<mxfile host="app.diagrams.net" agent="Mozilla/5.0 (Windows NT 10.0; Win64; x64) AppleWebKit/537.36 (KHTML, like Gecko) Chrome/140.0.0.0 Safari/537.36" version="28.1.1">
  <diagram name="第 1 页" id="r5jt0mEDDRZ7CHbxCycl">
    <mxGraphModel dx="1869" dy="1736" grid="1" gridSize="10" guides="1" tooltips="1" connect="1" arrows="1" fold="1" page="1" pageScale="1" pageWidth="827" pageHeight="1169" math="0" shadow="0">
      <root>
        <mxCell id="0" />
        <mxCell id="1" parent="0" />
        <mxCell id="tnkGDumLTSZ-fIv8gj4I-1" value="" style="shape=image;verticalLabelPosition=bottom;labelBackgroundColor=default;verticalAlign=top;aspect=fixed;imageAspect=0;image=data:image/png,iVBORw0KGgoAAAANSUhEUgAABwEAAAPJCAYAAAGNemfYAAAAAXNSR0IArs4c6QAAAARnQU1BAACxjwv8YQUAAAAJcEhZcwAAFxEAABcRAcom8z8AAP+lSURBVHhe7P0J/CVFee+Pe18y/lgi6L1RMYYElSBeBQWVABJAA4pBCYL5u0Ei4BXjVSGCGyhDcEFMGBKJ4MIioOCVTXYVAUGEGWZjX2VHBjQCicAwa/3rqVN1pk5/n3NOd5/uPr283/P6THdXV1d316nneer59lmeAwAAAABQT670y2EYvxzHsHpL/FL4kF8CgOUUv3y9X4btjf3yiMQyGOsLrJLGtLZfBkOMDTJexwhhFPtZvbS3OoO1/PICv2wFwwzlBL/c0C9lX9gvy2Ck2jFS9r7eap+4HkYIo3jKL2N+5ZexEcqYOsZttYBgILGh7OSXgkRB2RfX04wwMK4MI4Qi0MYZAAAAQFM4/PDDT5k9ezZTmhKgX2EkwfiCfDEUCP0LKknjQ9XKvwzQRZpmfF/84hf76zvuuKN57nOfazbYYIOBOocddphb7r777gPlTZB/WaBLaAOhzhIj3HvvvWWwOmMTI5Ry2U7W+6M/+qP+/qbIvSjQTbQBgaqTfxkAZhqjL4YCoX8hFQyS8qBfAQAAoKG8Ysf3G4SKkB9SkJUpdR4v2BoO8mo0GOEEYIRQBCPG0Yv8Uj6X+PbeqkM+rL6st+pY1y+7xxSMUM6HEbaMEeNIyr9hFT4cLMh6+MaIrf0SI6yY+JyyvrC3Ck1lSuOoHdTACKEFYIQTgBFCEWCEE4ARQhFghBNA50ERMI4mYFjnSfmdj65unPzlQ8VghBOAEbaHJY88YiaVbyozGOEEYITtQTOqrPJNZQYjnIA8RnjRdUtGyh6ulsfaebf3quWjpB2TvLbe1XcTzaiyyjeVGYxwArIaod1VG2GEg2hGlVW+qcxghBOQ1QiTkSgpe6haHusD+x+slo/SS166kVqevL7e1XcTzaiyyjeVGYxwAtIaoS1SjWCUTjr3erU8Vpp2R7UTX6O/zs6iGZXohBNOUMs1+aYygxFOQJlGWJQwwnRoRvW2XXYZMML777vPlYVt2bfuuuv2t31TmcEIJwAjnDrDrjnzvQRDmkS+qcxghBNQphHOOekSd9zW279N3Z9WHYiEct3hB18Dme9FM6qs8k1lBiOcgDKNMBwjy6DPHHlC5raGGaG0E1+jv87OohmVfJP4wQcf3P9yY5FWL8g1lAOMcALKNMKiNMwI4+uLrrMWSP+VId+8imZUYoR2V3/7uG98Y2B/Ur2WsjPu2mAEwzpPyhODWzWEKqQZYXxtsXpXP320aytCvnkVzaiyyjeVGYxwAso0wlG5XFCadjHCNfLNq2hGlVW+qcxghBOQ1gibIn/5M3h20QIziXwzGo9bbd9bXYN2bUXIN6+iGVVW+aYygxFOQFYjPOgL/zYjKo3TsHe7xNp8q+3U8lGSd94kr89f/gw0w8oi30ySUD7jS4qS11WUfPMqmlFllW8qMxjhBGQxQltcK9XACIeSvK6i5JtX0Ywqq3xTmcEIJyCLESYjUZrolSYKJpUm2tpLrIsRJvfJ9uuT1zVMUl8rHyZ3hhqCEU5AWiPUjCBZllRRH1dKSs4tqlEkjPe79eR1Be370U/11297eLm7j9dsvpVZZ931BuoNk7RdRzDCCeiiEa63zjrm4csvGzAy0ePXXjOjLMg3k5rkdY2SGKFWrsk3XzswwglIY4SaIWSVbVItj3XUN89Ry5OStkSTRMJghHdceIE5cO8PuvXYCE876qv9dZFvJjXJ6ypKvvnagRFOQFVGmEZVGmFW+WZSk7yuYbJVnX6x6AG3PWvW82bUieUa7x1TKzDCCWiyEYriASqSa9fQDCuLfDOpSV7XMEmOKNr5HXuo+5PyzWe+nhzs5JepwAgnoEwjtM2MVLJ+ViOMB2eQLVfRDCto/z33dNNSbV+Qb0bj5X45gHZtRcg3XwUYYVU01QjjgRnL7lPRDCtWTiMM5Sf5ZR/t2oqQb74KMMKqKNMIsyqNEdpLc4oHZix38QqaYWWRbyY12rWJ5FGE3e3WD/jk591S/jp61qVzB+oNU6/1SsAIq6JpRhgPSE3+8megGVYW+Wa09tVzatcmsrucwnZ4PihGeN2tj/XLh8k1Xg0YYVWkMcLTz71iYh165By1PNa3Tr9ALY8VD0hN/vJnoBlWFvlmhrU/o1y7tiLkm68CjLAq0hhhk+QvfwaaYWWRbyY12rUVId98FWCEVVGWEdomZpSFP8cny7967IkDf6KXY9/6tnf110N5Gsm1a2iGlUW+mdRo11aEfPNVgBFWRRFGuP4GL5Q2+tvhPZFxHVEwwjnfOqNfdsb5V7tlXP+9+3xkwAib+LYu7dqKkG++CjDCqijCCOskf/lTR7u2IuSbrwKMsCowQhgCRlgVGCEMASOsilFG2ET5y28Scs1Lequ1AiOsiil1nnbO0gaiPZlB2eW7LxUY4QTUxAiP8Jo4AksbSWyhOsjQaPnuS8WwvocUTKnzhp5Te0aXRb6ZAWwhAyQjWfsMI5yArhuh1kYX5bsjcOWoPtPACCeg7kb41Px58UBR12O5RhLYwtTn66p8d/QZ0mdS9iKrhW4rAiOcgBoZoZTNGBxihM+bNcvstsMObnv3t+yU+QuZbOHQe9Ta6KJ8d/TxfZYsl+2391YHwQgnoO6RMKt8MwPYwtLO1xb57ugzqs80MMIJwAj1drom3x19RvWZBkY4ARih3s442UPNL087tb+95WabDexvmnq9sYZRfaaBEU5A3YywDEYNKG1AZpXkqVp5k+S7o8+oPtPACCcAIxwYiAMDs0vq9cYaRvWZBkY4ARihPiibLO2N7UHyemvH+O7oM6rPNDDCCcAIZw7IcQq54AvXX79f9uTca/vr05ZmfEEYYQ3BCGcOyKZLM74gjLCGTKHzrrSq9JyjBpQ2IJuu2Ojk+3vin13DCGvIlDqv0nOOGlDagJyGli3Wy0VPnf8ltXyYYiNMCiOsIZN0nvZilil/2syMGlDaeaahsoxQvsWOSFhzMEL9XFWLSNhhMEL9XFUrNkJzx23G3Hlbfzs2wqUL55vVN9/Y39YUG13yJ9cwwhqCEernivXt2YebjTbcsP/rvfKpDllecfKJA9vy6CK5L61iI1y+eKH510MO7m9rkXDFjYtnlAXFRiff2RobIkZYQzBC/VxVq605oZkC/tTNoUgjfNXGG4/8rN8oye/Gxw+/NfnTZsYeOPRY7TzT0LRywk984ANu6bujz6g+08AIJ6BII5TpmEzb7C5z0D57uw/iioJhyi/iyqcNwrQuSMpjI3z48ssG9gdJu3lk/5tR5jWREcoHjpP3klbfPWL2wPbTPz3ePP0TXWKEWnlQ3I4oNrpxzwn32f1d7loS/VLYFz15u6gUf+rmUKQRagqfiC9C/rSZsQcOPVY7T1rZwwszwrb+ddTbRcRqv5zJ8D3Z8KduDmUbYZHyp82MPXDosdp5qlBVRvjxQ2bXJCfsmdgDi24yZoHV/LlW83rL6+1y0Xy3f6V5xi0nwZ+6OWCE+rnK1igjNA/eb+686ML+dmyEMn00D9zX39YUG6Eo/lWr6RlhjwduvsksWyDnvN5qvlsuX7jQrJi/2O1f5f63Jrt6tVm0aJG56KKL3Pq1115rnnjiCfPOd77T1xiOP3VzwAj1c5WtUUa4+pabzIv/5//sb8dGeMM5Z5nlNy42y29Y1C9LKjbApKZvhDeb5fPt/S6cZ3W9Wy5fuMga5kK3PxjhggXzzRFHHOHXF5htt93WHH/88WbJkiWubBT+1M0BI9TPVbaqmo7Kb0XG29M0QpmQ3m+N8Fkb+WItlYhoja5Hb9r605/+1Dz00EPmsssuM9dff73ZcccdzU477WQ+9KEPuf2j8KduDpMYYVMYNaC0AVmFqjJCyQen+bDe24WNcD4nvOlms3TBIvOMPWeQRMLltqxHr94XvvAFFwGvvvpqs2zZMvO9733PTUkPOuggt38U/tTNASOcOSCrUNII13vl3wzVbu94n1oeFLcjio0wqWkZYeD+m24yT1mHI9FvqT2vLP/7RlnaXNjSM8HJ8KduDhjhzAFZhZJGWKQ04wuaphGKgf3uvvvN9z/zOXPGZw7pS7ZP/8zne5UKMEN/6uaAEc4ckEF3XHiBW663zjr9NyHIuiyDwv6wLpL3msoyLkuqi0ZYFf7UzQEjnDkgg4IRxm84CG/MljIxvlDPNtWvI0b4hQM+MvA7GlVKM74gjLCGYIQzB2TTpRlfEEZYQzDCmQOyi/Ld0WdUn2mkM0J5ChhyPlnGCsTr+fCnbg4YoT4ouybfHX1G9ZnGeCNc7peBYJA9o1vtluFR/WT4UzcHjFAflF2T744+o/pMI10kFMTcVvr1wLNWK93b01avTO7Ljj91c8AI9UHZNfnu6DOqzzTGG6EYl81L73vY3PHoSnPrb9foNqvbHwvGt2Y6usoapDNMKyEsx+FP3RwwQn1QFiHb/MB6ll9uSn7AOe+HpdPKdUbEqD7TSBsJxQjvXrLK3PnoihnqMdPgVmaMjv7UzQEj1AdlEZIPK4sxhUcYyQ80S1lYTz7OSH7A+cJvHjewv2i5zogY1WcaRRuhvE3t+nnzzLvf/W736Yl///d/N5tuuqn56le/6vaPwp+6OWCE+qDsmnx39BnVZxpFG+Hpp51mrrrqKnPMMceYp59+2r2B+61vfav58Ic/7PaPwp+6OWCE+qDsmnx39BnVZxrjjVCMa7X5tTXC2x9bZQ1x9Ro9ttRK/jizhrPOOsssXLTIfWrid7/7nZuSzp8/39x7772+xnD8qZtD140QdLL2WWojvPdhc4c1wjseW97Xr5essIbZqxVYtWqVywvDMpAmP/Snbg4YIWhk7bPxRijTzdXmsf980pxyzs/MSWddGekqc/I5P3e1VhfwqNCfGupE1gEFxfWZtwtPiGgzH0f0HtSvHCjJiz811AmMMDvlGGE1+FNDncAIs0OfQaHIgELZ5bsPAAAAAAAAoBEcffTR5LIA0+JrX/vaeX4VAAAAAAAAAAAAAAAAAAAAps2VflkkT/ilUEb7AK1hQ7/8kF8e5JcvsDqitzpgRFK+U2/1ORtbndlb7ROOD/A+OcjDHlZPWS2zelwK2k5sKJdaiXEJowzoKL8cxmZWGCDk5QKrYIC/sjrGKrC1X7YCzUiCAY4iRMKYZFsYIAAAAADAGmbPns0UuQSkX620FAWgP0CcfBEUSNy/Vhgi9EgMDFStMMSuogyG2mvWrFnm05/+dH972223dcvnPve5Zq+99urXCfsbJAyxayiDoFH64he/2F8XAxRtueWW7nfu4npNkX9ZoGtogwFVJ/8yQNdhUJRL3L/0MQyFwVEOGB4AAAA0CPlZYjRdbfzmvdTyJsoPK0jLlDqNF2qQVvRHjrG0ll92FwywFnTBAGWffNYwsI+VGODbreRziLK/e+NiCgbYzY4eTSv6I+VYCh/sDQYoYIAVk+zsb1vJi9HVX71pxcCb0lhqNlM0wJiwjQE2GAwwBzUxwK6DAXYVDLAWYIBdhU6rBRhgVxnVaXc+uto0Tf7SmwYG2FUwwFpQyHXLa7nkkUcmkm8qFxhgDjDAWoABdpU8BnjRdUsGdNQ3z5lRlpRtTi2fVNJufG3uwptHIdeNATaQrAZoi2unxPU1kUKuGwNsIFkNMBmBPrD/wTPKkrJNqeWjdNK516vlsaRdUXx9ct0NpJDrxgAbSBYDTBpAGuNL6iUv3Ugtj7X5Vtup5UnZS3SKr9FdePMo5LoxwAZStQGmEQaYj9gADzjgAHPLzTf3tx968EG3vPeee/pl9pD+elSWGwwwBxjg1FlqFV/3y/3yAb9MTWyAooMPPnhgO418U7nAAHNQpgHu8f4D1PIge4qBZVBHI2C49u2t5OM5mUkaYB75pnKBAeagTAMU2WbM2uusa86/5iG3/vVvnW/+6PkbmLVmzXLbQfExTEHzMcwA5du89957bzNv7ly3bauazTfffEY9vy83GGAOyjZATbZpJ22fKIsBJq9RrrsOSL+mla2ulmvqta4j+zWjCgoGeOYZZ2CAdWFUpyUHd9IAppkDJq8tyF/61JF+1a5vUvnmVcYZYBr5pnKBAeagagMs6jFE8tqC/KVPHQwQUpHFAJsgf+kqzy5aYPIq6+DCACEVeQxQi0ix0r6LRSvPquS19a5cRzOstBrST1Im3/Q1Yx8GCKnIaoC2uDaqgQEKn/PLATBASEVWA0xGoKTsYWp5rDQRMqlh7Savz134EDTDSqsR/aSVu/rJawva6/37mXXWXU/dN06+/VqCAeYgrQGefu4VqgHEsoeo5ZNqVLvxNYrchQ9BM6y0GjO4kvsOGmWAovU3eKG54b6nZpTZYwfKkuo1X08wwBx00QB322GHGQY2TlkH1zgDzCvffC3BAHOQxgDTPhiPtfNu71XLY9lTqOWjlPzwbzw4Rb0r1wnGJAZoN51euP76A4Ym249fe81AmQgDHA8GmIOyDLAsFWGAeVSkAd728HKz70c/ZV6z+VZmzrfOkHb72vkde6jHBEnbUs8vawUGmIMmG6C9xGEDVEUzrLQq2gBF8ocYMcB4nxhlvJ2Ubz7TtUxA5nv2q5CWKgzw+B/8YmA5iWIDjAdmkL90Fc2wRHdceIH5wgEfkWPV/aIR/RS+Tn9dv3SMMsBJ5JuvikznwwBzUIUBBtkm1WUWBQOMB2Usue5haIYlkpzwebNmqfuChvTTflZSvsBtRWCAkIoqDbAIiQHaS5sxMIN6V66jGVZajegntTyNAZ516dwZ2zI1PeP8qwfKY/nmqyLT+TDAHDTRAOMBmZS/dBXNsNLK95PW/pVWG/dW1zDOAG0VZ3BxDnjTA8/0/0AT143Va70yMp0PA8xBGgP88jHfcc8Bs+jo476nlsc69Mg5avkofev0C2YMylj+0lU0w0qrMYNrxr5xBphXvvmqyHQ+DDAHaQywSfKXrqIZVlplHVwYIKSiCANM5jKxZEplm1L3BYW3ZL31be9ydWUqJtsfP2R2fz2t3IUPQTOstMIAx4MB5qBIA7z8+nuc4vc4igGKEYWHzqFclHzmJQYoD6I3ffXmI416lPylTx0MEFJRhAEGifFp5eM07t0fWaKgv/SpgwFCKoo0wDrIX3rTqOt1Y4BlgwFOneQX89YJDLBsRnWa7Gua/KU3jeR11+U+Ml1Hg/t/ekyp07RzlnodtnGDsqnXbenBAHNQMwP8qFzPJOo1NRO7Qx1kaLh63ZaeUf0PQ5hSp2nndGVyPdpzuLRyLSnYHdO4z7Qc5Je1wfdXpj7DAHPQdQPU2uiikuPA95faZ8PAAHPQBAPccrPNzHrrrCP73basyzJsx5I2NOwOdV/y+K4KA5wSNTNAJ22ABKMLGlZPGtKwO9R9Whtd1AgDlMckgVBHvox4BhhgDmpkgA65Hm2ApJVvZgZ2h7pPa6OLGmGAqcEAc4AB6u10TRjglMAA9XZGSb5DJt62zcyYIjdNGOCUqJsBloU9oXpObTCOkxjgU/PnuS9yOu2or7rvER33nTJ1FwY4JTDANYPQbpp9dn/XwMDsijDAKYEB6gMyrZ6ce61aPk1pb1KPpR2DAU4JDHDmYEyjYHiylOnnL087dUadaUkzuljaMRjglMAAZw7GpkszuljaMRjglJiiAcrX+VWGPaF6n9pgbLqSBmdvc2BbOwYDnBJTNMBKsSdUz6kNxqYrNjZN2jEY4JSYpNPkWO3FLFP+1JmxB6rHaudoujSji6UdgwFOCQxQP0+TpRldLO0YDHBKYID6eaapVTfdYH7/q1+aZYsXqvvNbbcYc/ed6j6RZnSxtGMwwCmBAernEYVfz7XV+mUbbbihe/eLrMs7YWQpH5cK+4PCvm/PPnzGvnFaceMiZ3w3n3euul9k7rpDLRclDU5+ez7e1o7BAKcEBqifp8mKjU2TdkxZBmimhD99/SnaAG3xjDJNB+79wRm/z55GvTNnxx6YPPYJ+U87R9OlGV0s7RgMcEoUbYAi+cFLu9vsv+ee/TJ587IobAcDlCmdbId3koQ6Mq0LU71Y0m4e2f9mlImS7WdRuPai9PRPjs+lZDtJg5P7jLeT9WW/Hwd92f/CemowwByUYYBlyp86M/ZA9VjtHGkVO5Q6KTY2TdoxyXEwrL9GkcYAV/ulyuqRezPhT19/MED9PE1W0uDWWXe9gW3tmGoMcIUxy62R3XiDMfOvs5obaZ554OxTzcqVz/q6k+FPX38wQP0805T8hfOsOf9qzC036ft/fVemv4ImpR1TjQGuciFwxS1yzvlW1/vlfLNs4Xxz//87cyBE/uY3v/FrPVasWGHuv/9+txyHP339wQD180xTq++4zT2G+PgHhvfv2cceo5aLNKOLpR1TjQFa6xIDvGmhNbh5kXqGeP9ZZ/h6PQ455BDz+c9/3jz99NPms5/9rDn++OP9nvH409cfDFA/T5OVNDh7mwPb2jFVGaCNgdYAF5lnFy5cI3v+Z5wBnj4QAW+55RZzzTXXmOuus9NVy1ve8hbz1re+1a2Pw5++/kxigE1i2IBKDsQ2KDY2UfKHUbVjqjHA3tRxpTXAZ+w5g+T8yxYsNPf/6Ptuf2C33XYzDz74oNl4443N8uXLzbXXXts3xnH409cfDHDmYJyW1nvl3+RSsp3Y2JLvghEl64uqMcBVZvXqlWbFzfNdxFvq1It+T91wvTXA083KlVEInAB/+vqDAc4cjE1X0uCS0o6pxgB7xnXKpz9lzvjMIZE+bb5vc7xTP/Fxt78I/OnrDwY4czAmJW8akOUVJ584UB7e7xneRGCbUxUfU4U0o4ulHVONAVaHP339wQBnDsakwputxQDl3TnhKwnD/lAmX08Y6ki5bb5fp0ppRhdLOwYDnBIY4MzB2HRpRhdLOwYDnBIY4MzB2EVVZ4DyIEKQfDBSLz20i7B/Mvzp6w8GqA/Irql8AwzGFhBDk+01BrfarHT/F4E/ff3BAPUB2TWVb4A9Vrq3kSWjnBjdcrOaN2O3l2EDShuMXVQ1Bth7EH/P71eYW3+7sq9brG57bKW5bPFDbv840hiqP339wQD1AVmE0n5tfXjMEaR9xUXZqsIAe3Fvlfn171eaOx9dMaA7Hl1tLrnhYVcjEBtavL5q1fg80Z++/mCA+oAsQq/dZBP1K+vlg8jyc2ZhX/LbAcJPcofPG1bxtffVGeDq1Ab4hz/8wVx44YXmpz/9qVmyZInZc889zd/93d/5vaPxp68/GKA+ILum6gwwfQR89tneZwPF+J555hmz0047mTe/+c1MQZvIsAGlDcYuqgoDFCQLvPd3K83dS1b3dddjK8yvH33WXL5g0ACvuuoqc9NNN5lFCxeaE044wXzmM58xn/jEJ9wbtMfhT19/um6AoJOnv9IY4HIrMcA7Hls+oLuXGPOThb/p/UHUs2rlShftglxZivxP8KevPxggaOTpr9EG2DOgFatXmpN+9BNz0tlXmpPO6um751xpTvnRL8xxZ/zcGpirNjH+9FAX8gyoLlNUf3l7iFgpf9L068Ka9bh0UvzpoS5ggNkozwCrwZ8e6gIGmA36CwpFBhTKJt91AAAAAAAAALXk6KOPNlZn+k0AqJqjjjrqQ34VAKrma1/72hK/CgAAAAAAAAAAAAAAAAAAAAAAAFAp2keQ6/Sx5Phakte1tlVcdoqVbCfryba8VZ13ywJAkbzdamFvdYbfCazll1Bj4hdv3PrGVuf1Vh3aCx/KDrK6tLf6nBdYxW1obSeRoBajHaMdO6w9giAA5GWZXwoPWG1vJb7mnX75K6sYKRNJELzSrwsX+KW0F+pADVhslfxgr/biSADbqbfaR4JLXDesJ48P28k2tPMIr7farLfqiNtNKia5HSAIAkBeYr8S1kNgfNwvAxIgBQmAcSa4tVUIgqGNYf4KKuZ2q+t6qwPICyR6wm3pASwokFxP7k8bBIX3WSWPj9HKh9UlCAJAXRjl9wAAAAAASubwww9PPnsFqCWzZ89OPooBAMiGBD3rTEwsvwug1iTHrRVBEQBGowU9hFoqgiJA1yHolaMvfvGLZqONNpKsuV8W1kO5LGV71qxZ/Tqh3tprr+3WDzvssH651JN2//iP/9hsttlm/XJUmAiKAG2HoFeNJFiF9ec+97lm9913d+v2JeiXyTIEs0MPPdQt430vfelLZwTBZB1UqgiKAG1HMXyEOitvFgDQVTTHgFBb5Yc9AIAOjgOaCmMXAAoHRwJNgbEKAAAAAAAAAFAqr9jx/UbkN9uM3CN/aoJhMDZqQod8EtQBgiBAf2wwPmpADp8U141/C3YU/BAw9OhAENzQL3FyMArGRk3I4ZPkNwwDclzy9w2D7R8jBZ5xv4G4n19C2+lAEBSCEQy7z2AAAamXdkYJ7aDtNtAYpuyTGAddoyNBUJB7jBUTtkfVgXbD610TOuSToA50MAgCaDA2agJBECqlIwMuBMAggCSMi5pAEIRK6dCAIwDCKBgbNYEgCJWSZ8BJ/TsfXY0qkO9yKB/6uiYQBKFSCIL1lu9yKB/6uiYQBKFSCIL1lu9yKJ9a9bXY2JJHHpm6/OVUSh6fBJCbPANO6msOe5TsYWiItP4KsvuhGmrV12JjWlCqWv5yKiWPTwLITZ4BJ/U1hz1KF123ZKSO+uY5ankse2q1PFaaOjvv9l61vGilOY9cr9ZfQdLfUAm16muxMS0oVS1/OZWSxycB5CbPgJP6msPWpDn+WB/Y/2C1PJY9pVoeK02dNOcap5POvV4tj/WSl26klscK1ytLrd+C7H6ohlr1tdiYFpSqlr+cSsnjkwByk2fASX3NYWtKOv+kCIIEwZpQq74WG9OCUtXyl1MpeXwSQG7yDDiprznsIFtlhtNPqoiAVKU232o7tTxWmgAZFPpIllofBkl/QyXUqq/FxpSAZH5x5ZVmzpw5bnvzzTc3s2bN6u8/4YQT+usPPfigW15y8cVm3ty5bv1lL3tZf7+0FdZ33XVXt5T2QlmQu5iKyeOTAHKTZ8BJfc1hB9kqM5x+UgRBgmANWGwlffw5vxzGN6xu7606Sn9dxMaUgOSCYFiX5Sc/8Qnznve8x61vsMEGbrnTTjuZN73xjW793nvuMfffd59bf9suu7hlUGjjrB/9qL+elC2vnDw+CSA3eQac1NccdpCtMsPpJ1VVEDzwsDlmmx12nVGe5hpjEQRbzdpW7rWw2kYKIsLP7zzgl0Lpr4vYmBaUqpa/nErJ45MAcpNnwEl9zWEH2SqFKxlERGvNmuWCnOgHl97Srxcvv/6t881njjxB3actNcm+ohS3GZZaHwbZ/VANoa/D709OFbExLShNKu1PnqPkL6dS8vgkgNzkGXBSX3PYQbZK39kPUxGZoJwnnEuWoc1QLkEyDoKiD33ssH6d5FLqy7qmMjJBre+SsvWgGmrV12JjWlDSFP4Mag/rl4XngOHZoOiWm28mCAIkyTPgpL7msINsFdXxx+rqM0HpmyCt75Ky9SBi3Nirm/xlZ0buUwtKVctfTqXk8UkAuckz4KS+ZvBBtooaAGJ1NQhq/TVKvR6HwLixVzf5y86M3KcWlKqWv5xKyeOTAHKTZ8BJfc3gUfHyXd5mjrDar7c68OYTlaaNPX/ZmZH71IJS1fKXUyl5fBJAbvIMOKmvGfww2UPQEGn9FcvWycyzixaYaSnjWJIAKFzgl+GdmEPJOvamLX/ZmZH71IJS1fKXUyly7xnHEUB+8gw4qa8Z/DAd9IV/U/80mEVp/tSY5ZtaRinNnz6LkPxJWOuvWL0ez4YWnKpS2c4r69ibtvxlZ0buUwtKVctfTqXIvZc9jgD65BlwUl8z+KQ0xx8rTbCxp1PLY6UJflneuTlMaYJ5musNdQiCz3nCKk391/tlZ4Jgl8njkwByk2fAjXJEhx45R9pCQ9SRIFiaRo29Ydr3o5/qr//Jy/7MLW+47ylz28PL3bq0Gy/nfOsMs/4GLxwoyyt7PGQkj08CyE2eATfKEZ1+7hX9jGeYbBNqeaw0der2k0haeaxQJyzrHgQfv/Ya8/MTv6PuG6YJnNcLrJLf1jKDUWNvlOyhThL8wvY6667XX//4IbPNKzbZzLxmize4sq8ee6Jbl32yPWvW89wyq+zxkJE8PgkgN3kGnOaIXvEXr3G/CVi23rDNW9TyWPYS1fJYaer8n4OOVMuzSNqoQxDcbYcdzB0XXuDWH778MncNsi7LUC51Qn2RBMEXrr++W//laaeap+bPc+tfOOAj/bJQN6hs56WNvTrLXzZkII9PAshNngGnOaKq3kxSpSSIaeVZFLdhu25gWXUQDOsSBGVpq7plCIIH7v3Bfh1RHARlPZTfeO7Z/WOTKtt5aWMvjeRPn/Zw8/XjTp2x7/Lr7zF7vW/f/jK5fxL1rhqykMcnAeQmz4DTHBFBUFddgmBVKtt5aWMvjUIQFMn2azbfyi3l+V94ZhiWW2+7o3nvPh8xZ106t18vr8I5W6pSyOOTAHKTZ8BpjmgaQdBeilo+TmmPKzMIJvtvmGzdzGjBqSrlcF5xffk1h5FoY6/O8pfdNnayKu3e8vgkgNzkGXCaI5pmEBy23Hr7t5lzrrx36P5xKiMIBiX7b5hs3cxowSmNDtpnb/O8WbP6fx7No4xjKdRdyy/Hoo29OstfdtsgCEJ7yDPgNEdUpz+H2ktUy7OqjCCY7Ldxch2eES04VaWynZc29sYpfNxB3g0aPhYhf+o89eyf9+uEd4qK4ueCm756c7e0p+6XZVHvqlsHQRDaQ54BpzkingnqkjaSfZVFvsszoQWnqpRxLG1sJfUvdVsp0MbeOMXP9W564Bm3lCAYngG+9W3vcs8AbfP9fbIuCkFT3jQjy6ySa24hBEFoD3kGnOaIqgqCRX9mb5QIgtnlx1Jp0sbeOJ1x/tVqeRblfYOMveY2QhCE9pBnwOVxRCiffJdnQgtOVWlC57XEL4fStLHnL7ttEAShPeQZcE1zRE2W7/JMaMGpKpXtvJo29vxltw2CILSHPAOuDEckz2HiNzDIMxj5YHMo077rUZQsG/X5r/DmB2krbiM875HnRXu9fz+3Ls+JZBl/tVb4s5rsC99BKeWhrZ3fsYdbFinbNkSUMfbKlL/stkEQhPaQZ8CV4YjiIGhP4QKTLEWhLA5I8l2Psi5BcMs3bTdQT6QFQSmXN0BIEIyf8YRAKueXtuTYEAQl2MVvipA2wr74nLKU40K9omTbhogyxl6Z8pfdNgiC0B7yDLimOaImy3c5eJo29vxltw2CILSHPAOuaY6oyfJdDuVDX6eHIAjtgSBYb/kuh3L4kJX0cdAwwr6n/LLrEAShPXRowMk9prnPsW/Th1YSxoc2Rpb5ZZrx0wUIgtAeCIIDSABMU6+W2Is2CFWh3nArB4IgVApBcAYDdaRvtM/DVSV/GamwlYODgmzsYUW/pSAaY6X1F0EQKoUgOIOBOm0Pgto5UXc1zhdEYyzTOMtCh3wS1IEODbi0hjtQR/pGcxZVyV9GKmxlgiCaSGN8gRtffoylGWcP+OV5fvk+vxxJh3wS1IEODbi0hjtQR/pGcxaxnpo/z1xx8olufb111jHfnn34wP6NNtzQHLj3B926bXJg3zj1riIdtjJBEE2kcb4gGmNBw34IOQRAIQS/I/xyJB3ySVAHOjTggtFmQvpGcxaxJAiGpQRBWf+Hv93dbYd9ItucC5aPX3uNOe7Qz/fLR6l3FemwlQmCaCKN8wXRGMs0zrLQIZ8EdaBDAy6X4UrfaM6iKvnLSIWtTBBEE2mcL4jGWKZxloUO+SSoAx0acLkMV/pGcxZVyV9GKmxlgiCaSON8QTTGMo2zLHTIJ0Ed6NCAy2W4oX+mJX8ZqbCVaxsE77jwgoHtLxzwEfPC9dd3z0tln70U96fk582aNVAPVatxYy4aYyPrTUKesQ+Qmw4NuFINtw7YmyssCNpdTtq+ohQ/L0X1EEEQOgdBsD3YmyssCO6z+7vUcjQdad8rm1Zi31qbmsb5gmiMZRpnWeiQT4I60KEBV6rh1gF7c4UFwaIUZ3vyrth4n/w59Mm517r18GfQZB3Ukxbc0krsW2tT0zhfEI2xTOMsCx3ySVAHOjTgSjXcOmBvrnZBEBUjLbilldi31qamcb4gGmOZxlkWOuSToA50aMCVarh1wN4cQbCl0oJbWol9a21qGucLojGWaZxloUM+CepAhwZcMNxh33DReOzNEQQL0DqveEcufWr/j6jlaaRdRywtuAXt/I491PIgsW+tTU3jfEE0xjKNsyx0yCdBHejYgGttABTEOYn8Zio0R9h1LVusl4/TU+d/SS0vQlpwC/qTl/2ZvObmhvueUveLfWttahrnC6IxNrLeJHTMJ8G0mdaAk3NqRtgm+VutDHvCUoJgGCNNk3YvadS0IDhOWfpC6vqhoRKNsUzjLAvh9fObAOUyrQEn59SMsE3yt1oZ9oRkggVIC4JLF8435p673bosV964eEadYUFw2aKF5q6LL3TrsvzD9XNn1BknLbgFhT+HrrPuejP2ibLY2jhfEI2xTOMsC9PySdBRpjXg5JyaEbZJ/lYrw56wsiAoH28Y9mF3+RYYbb0p0oLgqptuMLf8+FyzYvFCY+79tVma2C8aFgRdAL3/XtfG6ptvVOuMkxbcgiQIfvyQ2U7a/iy2Ns4XRGMs0zjLwrR8EnSUaQ04OadmhG2Sv9XKsCesNAiG9V+edqqcs/8TUiHwnXbUVwfWt9xsM7f+8OWXuW35urTwOUFR2B8UPjOoHRfqJH+2qgg17c+h0veyJBMEyMG0BpycUzPCNsnfamXYE1YWBNusJgXBWbOeJ6+3UxeDoOkQ/pahaLIMuCKRc2pGGEsyDFna6m753l3fPuMLlmX773ff3a1L5hD+RCfHhON22Xbbfuay1atfbfbfc8/+9jav26L/Zc5ST6szrK1xssdcWaXsCYODUvd7uXuxWmpViyAo2Z1WPi09c+X3zTNXZJcEQa08jbTriKUFN9Hl198TXk9z1qVz1TrjbE2+Ik+Of8Hznx98gTZunOxOguCU8LcMRZNlwBWJnFMzyFgSBCWo7f6Wnfp/Avv1pRf394cy25xbSjCL//wW/lQW/pwWlyUDWWhDzpmsc/KXjjQXfvM4tx63JctRcjdaIfaEwUGNYmC/dt1VSF5TWUp/Vx0Ev3vEbLU8qGl/Dp30c4Lzzjyjvz7OF6QcYxORxSf5+NAJ/C1D0WQZcEUi54wNsY3yt1oZ9oSZHZR23W1X24KgfRmdKv6cYGlk8Uk+PgyyuvffSvv/Cll7dql55onHzDO//71dPh7pCa/e9tL+9h/M0iW/Mc+ussdKIzXB3zIUTZYBVyRyTs0I2yR/q5VhT1hKEAxjpGnS7kWUNwguW7ywv1yW2CcaFgTN7be6j1W4d4ned49bavVGSQtuaTWqL5KSun5oqOQZY1kJr5/fHImPDwkkCq6w/8tytXnglhvNH266ziy9YZH7uMqyhXYpWrC4J7+9PPTDwhvMvT88w7XkmjA2GtYAf8tQNFkGXJHIOZMG2Db5W60Me8JSgmDblCcImrvuMLtu/2b3MYdfnHKyGsiGBcG//9vd3WcDpQ3z67vUOuOkBbcg+zI6aftEWWxtnC+Q8SXym6WQxSf5+DAcG8Tuv+Vms+yWhWbpgkXmmRuuN88snt+Tvd8161Iun9+cZ1bY1/b+H53mGxBcJOzz7LPPmlNOOcU88sgj5uKLLzLf/e537fJi8/TTT5sPf/jDZpNNNjFvfvObzZe//GVz7bXXmp/+9KfmySef9Efnx98yFE2WAVckck7NCNskf6uVYU9IEEyhtv05NHw+8DWbbzVjnyiLrY3zBXnGWFay+CQfHxL0MsEeq819N99klt1qA57NAp9dOESyz97/UhsMZXn/WaeHw8N/fc477zzzpje9yfzVX/2VOfPMM82OO+5ozjrrLHPtr35lfv/735tddtnFPPjgg2bZsmWu/kMPPeSWk+JvGYomy4ArEjlnbHxtlL/VyrAnJAimUBufCc751hkEQU8vZPX+GCrcf/PNZuUNi8zyBTYbXCQZfE/LJJt3Gb2s94JkLytcaO47+/vuWPlD6MpEEBQOPfRQc+ONN/otY373u9+5rG/58uXm7rvv9qU9jjzySL82Gf6WoWiyDDioN+KcRH4zFZojbLvaFgSDKv6cYGlk8Uk+PiSQoBUyQQmCN5nlNy8wf7hxoVkuz/6G6JlFi1xWuMIGy/t/9IPewbap1asmfyY4M4xmx98yFE2WAQf1RpyTyG+mQnOEbde4IFhHacFNtP4GL5TX24kgGBMywdXmgZtusJng9cbMn2dWLpwbKdpeMNesWnC9Wb1gnlk9f76570dr/hy6kjfGtJssAw7qjTgnkd9MheYImyB76Wp5GrUpCKaR2LfWpqZxviDPGMtKFp/k40Mn8LcMRZNlwEG9Eeck8pup0BxhWsXf4ZnUFSef6JbyQfiwLoq/0CB8YD7Uk/bCN/4kvy1IluFLDKQN2Y6/d7Tt0oJbWol9a21qGucL7E6C4JTwtwxFk2XAQb0R5yTym6nQHOE0FQJrHCARQXAYPj50An/LUDRZBhzUG3FOIr+ZCs0Rou6qPUFQngjKs7xJn+cV0UYx+FuGoiEItgdxTiK/mQrNEaLuqj1BcA29MLY6RSiTwBk0uFoH/C1D0RAE24M4J5HfTIXmCFF31Y4gKF/4KbIRTIKYi4IrzWqrkUQBL+R/4wNndfhbhqIhCLYHcU4iv5kKzRGi7qodQTCkcDb7s4tnli03t959v7n9nofM7b9+yNyh6kFzm13299v6K1fLxyxs4FzV++aXaeNvGYqGINgexDmJ/GYqNEeIuqt2BMGYVebO+x42v/79SnP3Erv+6IqRusO9mWiFueSGh/3xQpQielYN+QD9ahs4ZZ/bb9fjsknxtwxFQxBsD+KcRH4zFZojbILspfc/ehF+9zH5+5Jh+fDllw38QLIs5QeYw0c15DciD9z7g25d+w1JUThOPsoR6shHNX7y7RMG9ouk7aa+u7UtQXBNyCk+CN51113mU5/6lDnppJPM4Ycfbt74xje6L86+7rrrzG9/+1vzzne+0+y9997mH//xH80+++xjdt55Z3/kZPhbhqIhCLYHcU4iv5kKzRHWXfHnE+0tqEFQAlT8A8ihznrrrOOW4ceT999zT1dPAqrUCfWkDZGsi3bZdluz1atf7da1OvG6BMH42CaJIDg+CJ7+/dPNNddcY66++mrz7W9/2+yxxx7m6KOPdl+Y/dhjj5njjz/efP3rXze33HKL2Wuvvcxxxx3nj5wMf8tQNATB9iDOSeQ3U6E5QtRdtSMIhqDV++q0u+/7jbn7P1eZ2x8z5o7fLjN3PLZ8zdKv3/7YCnOb3e/qPLbK/GRR75cftD9inn766e6Lsu+55x73E0rvec97zCWXXOL2LV261Nx2223mX//1X90XZ8ufQufMmeP2TYq/ZSgagmB7EOck8psAhVPFGJs8CAZ6vy5/j80E7//dSnOXzfDustmgKrvvbpcNrjS3/XZlPxNc7n6cd82XcQ/gn/k988wzLtiJBHn+95+//737vcHwO4Jh3yT4W4aiIQi2B3FOIr8JUDhVjLHJgqAEmzW/JbjU/n/nvQ+b+55Ybe74vc0Kf6frLqs7/9Mure6wumxx+HOotDfmoxUV4W8ZiiYMONR8BQel7UOoCFU5xryLGomPD0OQYLjMJWwi+cD8eHpBz4W9lc+YVasnf1dnUfhbBoBhBAflNwEKp25jzMeHTuBvGQCGUTcHBe2jbmPMx4dO4G8ZAIYRHBRCZcsPOQCA+pB0VAiVJT/kAAAAAAAAAAAAAAAAAAAgJ0cfffRRflXWeQ4LAADdQoKf1+2+CAAAoP18/etf31CWX/va1z5ng+B9rhAAAAAAAAAAAAAAAAAAAAAAAAAAAAAAAAAAAAAAAAAAAAAAWsB5fpnkSr/MQ9FfWPo5K2lzM7c1E+1aP+SXMUv8EgAAwJEMWE/4ZR041mrX3qoaWKUsLpf1M63iAHiKVbIeAEARBL+ywGrd3uoM8D01JvniJLclw9qpt+o4wi8l0ATiOmF/4CCruK4Q6shxG/dWVZLXEmdxH/VLbXBpGSCDEAAmIfiQsHy5Xwpb+6VG0vd82S+hBkiG9ILequNSvxSW+qUENwlkgryYcUAL66GN+MUetS5/2hTi8iTJffF2uDbteAIgABTJ9n4ZkMdHkvX9yiv5Mz0yuQ8+R5aiZW6rlwCsZRXXgSkSv1CB5Auj1RGGba9t9b7eap8wSOJjJANM1gsMazsuT9YRCIAAUCT7+WVAAmAyAxSfJ8FQ/hS60CoQfM/jfhkCYCCuC1MgbWARtHIpS2Zke1gl/7w5LGvTApaQrCfPJ6UsKZlJxRAAAaBowqObEAxH/Qk0+BuZ3If1ZAAMxwxLAKAi5I0mEqzCG04E+ROl9sIMCyShPN4fr8uMSfszqZAmAA57x2qyLYEACAB1Js4AoQZoASLOuNwv8lriehJowv7XS4El3i/PDsP+OCjFdYRhAVAIx8uzSo1kWwIBEADqDAEQAAAAAAAAAAAAAAAAAACgKGbPnm1EfhOg9jBmAWAighPBmUDTYOwCQC6SziPI7waoPdr4FfndAACDaA4DoTbKD3kA6Dqag0CoC/ImAABdQ3MIaHLZrjUvfelLzZZbbtkvmzVrltl+++1d+UYbbWQ+/elPu3rxcV/84hfdvlD+3Oc+1y0PPPBAt5Ty5DGoGNl+BYAuoDkAVJxC4Np3333dcoMNNjDbbrutWz/ssMP69SQI7rjjjv1tCYCy3HTTTd0yGQDDNipP3kQAoG1oBo+KVwhUIdhtttlmbnnooYf2y3bffXe3tC+LW4rGBUDRxhtv3F9H5alnMQDQKg4//PD7NINHxSkELtvd/aAWtkMAlHVZxhlhqPuOd7zDLddee223DHUlgIbAiUpT+CkjAGgrBEKEBkTgA+gaBELUcRH4ALoOgRB1TAQ+ABhkVCD0VQBqjzZ+vQh8ADAaLRD6XQC1Jzl2rQh8AJCNOBD6IoDaQ+ADgMKQQOhXAWoPgQ8AAAAAAAAAAAAAAAAAACAnr9jx/QYhhOok754AyqVDgw2jgmEc5AU1gAAIlUEABOj9YG9vFaZNRT6J1xsIgNB5JPOTsSEiC6wBGX3S9lbr9lYz2Tj+AAiAABYZG4yPmpDRJ8V11/JLKZOgmGwnbG9tlawjX0Agxy+z2shK6kDbIQACuLHB+KgJEwTAtf0ylD1uJWWyLcHuPKtAXEcIATCw0C+hzbQ8AC62kvv7nF8CaMjYYHzUhIw+SYLWL3qr/dcwLENwC4Ty91kl68QZ4FutXmQFbacDGeBSK7nHUfcpBhEjzxWgO4wbH1AhU/RJcQYIXaADAVAIfwYRbSMFCcI+QWaABMBuEb/+MGU64pOgDnRosAUnJwrPCjRCHZ4BdIfwmkMNIABCZXQsAAob+mXMT6xO6606yAC7BQGwRhAAoTI6GAABkhAAawQBECqDAAhAAKwTBECojI4MtuDgMCzQYGzUCAIgVAYBEICxUScIgFAZHRpsGBUMgwBYIwiAUBkEQAACYJ0gAEJl5Blsdz662qDyhSOoDAJgjWDcQ2UQAOsrHEFlEABrBOMeKoMAWF/hCCqDAFgjGPdQGQTA+gpHUBm1C4BLHnnETFvTGn+Me6gMAmB9hSOoDOnnWvW1FpCqFgEQWg8BsL7CEVSG9HOt+loLSFWLAAitp4oAaA9BQ6T1VxCOoDLC61EbtIBUtQiA0HqqCoAXXbdkpF7y0o3U8lgnnXu9Wp5FH9j/YLU8VprrTVMnzbm0/grCEVSGez17q/VAC0hViwAIrYcAOFNprjdNHQJgY3CvZ2+1HmgBqWoRAKH1lBkAbVU0RATAWhFel9qgBaSqRQCE1lN2AIyzHU077/ZetbxopTlPmutNU+eob56jlmvS+i0IR1AZ7nXtrdYDLSBVLQIgtB4C4Bqlud40dQiAjcO9rr3VeqAFpKpFAITWQwBcozTXm6YOAbBxuNe1t1oPtIBUtQiA0HrKCICao49V12A0TGnayHu9Wv8F4Qgqw702vdV6kAxGtmhgO6kDDjhALZ9EBEBoPU0OgFWJANh63GvTW60HyWD00IMPumuU9V133dXMmzt3YH8IgKHOrFmzzAYbbDBQdsnFF7tlrDlz5gwsYxEAofUQAMeLANhaNvRL99r0VutBMhgFHXzwweZlL3uZu95QJgExGQBFIQCuu+66bhkCoATTUOdtu+zilsmAKiIAQushAI4XAbC1uNck0jDiffv5Zakkg9EnP/EJl9WF7VtuvtktbdV+WdgvZffec8/QACjaYostzGGHHdav/4srr+zvCyIAQushAI4XAbDVuNfFS2OhXwZe5JelkgxGsULWVrYIgNB62h4AtXb+6PkbzCgbJQJg63GvjVeSC/3yfVaVvR5aQKpaBEBoPU0NgGG/LNdeZ92BsnFKBsA93n+A+cGltwyUxSIAth732kSKecovJQBWhhaQqhYBEFpPGQHQVilcycARyuL92+ywqwtu51x5bz/IhX0SJF/0kpe5ddm38Stf7ZYS+EYFwNB+UUq2r/VfEI6gMsLrUxu0gJRG9lC1XKS90WWUCIDQesoIgEknn1QRGeCBh81xQUuCntSVbSmX9aCwHZfLegiOX//W+WbOSZdMJQMM16P1XxCOoDLC61EbtIA0TNttt527flmX5Wmnnmp22WUXt37+j39s3vTGN6ofnRgnAiC0nqYGQFGoI8EvrG+9/dvcetiW5fnXPOSWf/rnm7iyZACUZaivqYwAqPVbUjiCynCvTW+1HmgBaZjkHZ9h3R7qlptvvrlbhneGykcnCIAACZocANNKMjwJdN/64S/NK1+1uVpnlAiA9UH6pGjZZp20fZPKXXQOtIA0TKMCYPgohARCAiBAgjyDTXPWsWKnr6nqADipigyAQVq/JYUjmInWT3VVVQGwLBEAofUQAMeryACo9dcw4QhmovVTXUUAzAfjHiqDADheBMD6oPVTXUUAzAfjHiqjyQEwTZ00wWucCID1QeunuooAmA/GPVRGGQEQFaMOOIIH/PI8vxz7YXOtn+oqAmA+CIBQGQTA+irPayPHPLtowdTkLyMtoX74fs3k927OQOunumoSR64FpKo1rUA0rfNCB8kz2DRjH6Y/f/km0j5SJH2j9VlQntdGjtECU1Xyl5GGkP0JIfM7wi+HovVTXTWJI9cCUtWaViCa1nmhg+QZbJqxD9Oe7/2Q+jwslm1SLY+Vpk4Rz/sO+sK/qeWxirpe6Rutz4LyvDZyjBaYqpK/jDS4PuqtPuftVst6q6PR+qmumsSRawGpak0rEE3rvNBB8gw2zdiHiQA4XB0PgLnQ+qmumsSRawGpak0rEE3rvNBB8gw2zdiTstXQEBEA+yzxy9Ro/VRXTeLItYBUtaYViKZ1XuggeQabZuxJ2WoD2Y6mNNnWOBX5EQWtPFaaj29kEQGwPylIjdZPdRWOPB/0G1QGAbCnNHUIgOPlLyMta1vJMeMyQff6yIrWT+O0/gYvdMutt9tpxr40knNr5eOEI88H/QaVUXQAtLvREHUkAJYqrZ/G6eOHzO6vz/nWGf2AGLd3+fX3mK8fd2p/3w33PWVue3j5jHpZhCPPB/0GlVF0AHzJSzea4eiTOunc69XyLKryzSof2P9gtTyLtHsmA+yz1GrUsf19Wj+N087v2KO/ft2tjw0NgPGSADg96DeoDAIgAVDTC9dfXy0fJ38ZeUh1rNZP4/TVY080r9hkM/dah+3XbPGG/vasWc9zgU+2Q5ks11l3vf56nEWmFY48H/QbVAYBsBsB8If/+nW33GjDDWfs0zSFAJgKrZ+KUMj8ihSOPB/0G1RGEQHw0C8d696MMkr2MLU8Vpo6f/03/z+1vGi94i9eo5bHSnO9//OPX1KLAPjL0041z5s1a0YAfPzaa1x5qBPKQwCU/WFd6n179uFufbcddujXjeUvozS0fqqrcOT5oN+gMooIgEf9+8kznHtS9jC1PFaaOkVkY2m0+VbbqeWx0lxvyIjrEACfnHutC4BPzZ/XL3/48svMlptt5tZPO+qr/XItANrmhwa+oN5VlIfWT3UVjjwf9BtURtMCYFVqYwCUpa3ilrtsu635qzds5dazBMCw/PInP9GvG0uuoUy0fkoje6jTsH3yppew1OrkEY48H/QbVAYBUFfbAmBV8pdRGlo/pZG80UWW8maW8LzvrW97l3tDjG22v5RyWV501c2u3j77f6LfRlZFr9+HrErvm7ZAAITKIADqIgDmk7+M0tD6KY3soU6S4cUBUJbhHZ6y3PejnzLv3ecj7qMSk74x5s/+cvf+eVuo0iAAQmUQAHWVGQDlOFHHfw4pF1o/pVHIAG0T/cD2Jy/7M7eMA6BkgrIumjQARq/fKVal902FlHovBECojKYGwPOveci88lWbq/vGae111lXLY5UZAJP9N0wdCIDyVWhCOG7s8Vo/1VUtduSl3hcBECqj6QHwpHPmueO+ctxZLrCF7e/9eKFbyvZnjjzBHbPWrFluSQCcKXuok6z/zV/9VX89q+QaMnCMXz7ll2OP1/qpriIA5oMACJXRhgAYPhohAS7elvbqFAClvijZf8NUZQCUj0bsv+eebj28KzSP/GWkIWR/Qjhu7PFaP9VVBMB8EAChMtoYAKUdUfgTadgOAVDW55x0Sb8tTWUEwGS/jVOVAVA+AhE+5F5RAHT9Z7W12+qtj0Xrp7qKAJgPAiBURlMD4DDFAXESdS0AFiV/GaWh9dM4yTs/w5tb5Iuxw7s/bXNuedMDz/TXZV94U0xcnkcEwHwQAKEy2hYAi1JRAVDqBCX7bZw6EABf75ep0fpplMI7OSWY7fX+/dx6CIDxl12fcf7V/X3h3aFSLpL1+Bcl0ooAmA8CIFQGAVBXUQHwZRttPNBXWdSCACgfAB+F68Peajq0fhqlENiCbBP9ABiC2qav3tx99u+sS+f298X1ZfmazbcaKE8jAmA+CIBQGQRAXQTAfPKXEb75JM31p63n0PpplMJv+skH27d803buB3FDkJNML/6sn22+v0/W46UcF+qlFQEwHwRAqIymBcCmfRl2BwNg+NB3KdL6aZzy/Pkylvz5VCsfJwJgPgiAUBlFBMALrrjBnH7uFSN16JFz1PJYaerITFwrL1pfPuY7anmsNNf75WO+O9BXWdTQABjI8u0n21hJ3WPd1gi0fqqrCID5IABCZRQRAFE5angAzMp9fjkSrZ/qKgJgPgiAUBkEwPqqYwEwFVo/1VUEwHwQAKEyCID1FQFwJlo/1VUEwHwQAKEy6hAAk289z6LwLf/yFvbkvvhb/pP7Ysk7BGUpnwsL7xqU9k49++f9OuEzY6K93rdvf13eQi9L2y39sqJEAJyJ1k91FQEwHwRAqIw6BUAJZiedealbt6dxS3nTSwhQoSxWCIDX3fpY/y3tob04AIZ38kkbUi8OmPEHokOZ7D/gk5/vb4vCZ8FkXzg+BMzk582KEI5gJlo/1VUEwHww7qEy6hQA5SurQlkINhKc0gRA2TcqAMZZZvzZL1H8IecQKCXAyY+jyrocKx+UDueXfbIuCgEw2WYRwhHMROunuooAmA/GPVRGXQPgKzbZzLxmize4dfkeR1m3p3bbIeiJpEw+4ByCnezbZ/9PuPU4AMpS2pT6yWAV2pVlWA8ZnmSg8Z8/wz4JlJJ1hgAYgmWRwhHMROunuooAmA/GPVRGHQKgpjxfPZVXRfz5sozrxRHMROunuooAmA/GPVRGXQMgIgBqaP1UVxEA88G4h8ogANZXOILKoJ+zQQCEdkAArK9wBJVBP2eDAAjtgABYX+EISif0L/2cjVL7i3EPlUEArK9wBKUj/Rs0jrX9EgiA0BbyDDY5BlUj3+VQHp+zkn4e1ddXWh3RWwVLqeOScQ+V0aHBlvY+l/gldAcZG0G3S0EEmd9MSvUZBECoDALgABL8Gtkf9qINQlWoN9zKgwAIlUEAHCAYd+OyQHvRqrNCqGj1hlt5EAChMgiAfT5qJc95pF7/eY/0zzTlL2MstqLqrBAqWr3hVh5Zxj3ARHRosKW9z4F62k/+VKU8AdBvQjak3w7qrcIwojFW6jgjAEJlEABnMFBPC0xViQBYGXv4JYwgGmOljjMCIFQGAXAGA/W0wFSVyg6A0r52XtRd+aGhEo2xTOMsKwRAqAwC4AwG6mlOoioRAFHV8kNDJRpjmcZZVgiAUBkEwBkM1NOcRFUiAKKq5YeGhhtffoylHWfyZrL9eqvPecAvx0IAhMogAM5goJ7mJJKy1dzyybnXuuUdF15gXrXxxua1m2wysF/0wvXXN9u8bgvz8OWX9cuGiQCIqpYfGirRGBO9wBWO53G/3N4vx0IAhMogAM5goJ7mJJJ63qxZZr111ukHwC0322xgvwS7LxzwEbf++LXXDOwbJQIgqlp+aKhEYyzWMMJHiS7wy2P8ciwEQKgMAuAMgmE7aU4iKQmAkvWFABiCnejbsw93S2nrqfnz+uVpRABEVcsPDZVojIl29UuNUGeZ2+qtr9tbHQ8BECqDADgazUkkJQFQlrb6wFL+3BnWQ3AM27u/ZSe3HCUCIKpafmioRGMs0zjLCgEQKoMAOBrNSVSlOgTApgbJpl73tOWHhko0xjKNs6x0yCfBtOnQYMt1n5qTqEpZXhtbkQAYqanXPW35oaESjbFM4ywrHfJJMG06NNhy3afmJKpSltfGViQARmrqdU9bfmioRGMs0zjLSod8EkybDg22XPepOYmqlOW1sRUJgJGaet3Tlh8aKtEYyzTOstIhnwTTpkODLdd9ak6iKmV5bWzFWgfA8M7YK04+0b1p6MC9P+i2ZV3eIGQvx21vtOGG/WMmUVHX3TX1RoZONMZG1puUDvkkmDYdGmy57lP6Z5rylzEWW7ERAVAkQTDeZy/FKS6bVEVdd9fkBsYQZHyJeqvlkWXcA0xEhwZbq+/T3lwjAqB8YYB8PETW7SW4ZdguUgTAfOqNDJ1ojI2sNykEQKgMAmA7sDdXaAC0u813j5hdaiCRYKiVFyECYD71RoZONMZG1psUAiBUBgGwHdibKzwAipoaSAiA+eQGxhBkfIl6q+VBAITKIAC2A3tzhQbAIALg9CX3cuejq3NLa3OY/NBQicZYpnGWlQ75JJg2HRpsrb5Pe3ONDIDDvhLOXp5anlZlX3eVknvRAltaaW0OU29k6ERjbGS9SemQT4Jp06HB1ur7tDdXywAYfhljtx12cEt57mdP3d8fB8BhdfJo0uuuk+RetMCWVlqbw+QGxhBkfIl6q+XRIZ8E06ZDg63V92lvrpYBMHxRePjcnwQ8e+r+/jgADquTR5Ned50k96IFtrTS2hwmNzCGIONL1Fstjw75JJg2HRpsrb5Pe3O1DIDTUlOvW5PcixbY0kprc5j80FCJxlimcZaVDvkkmDYdGmytvk97cwTASE29bk1yL1pgSyutzWHyQ0MlGmOZxllWOuSTYNp0aLC1+j7tzREAIzX1ujXJvWiBLa20NofJDw2VaIxlGmdZ6ZBPgmnTkcF2pZXcpyxbib25UgJgmbKXoJajQY0LgNKPIm2fSGtzmGRcDMPuJABCu+jIYAtG29p7tTdGACxAz/3zt5l1XvGOzHrXbnub3f7mg+q+cVr3lX+jXkvQqAB428PL1fJYWpvD1BsZOtEYG1lvUgiAUBkdGmxyn2v3VtuHvTkCYAHa+Z0fU8vH6enLTjJP//xkdd84PXjFL9TyoFEBMI20NoepNzJ0ojE2st6kEAChMjoWAFuLvTkCYAFqYgCUfhRp+0Ram8Mk42IYdicBENrFtAabZnxtUtX9ak9GACxATQuA/AkUYAIIgOWoLQFQ6pQlewlqeVHS7mec+BPocKIxNrLepMj9+lWAcpnWYNOMr02qul/tyUoLgFp53ZX3ugmAw4nGWKZxlpWqbQc6zLQGm2Z8bVLV/WpPRgCMlPe6hwVAc8/dxtxykzF33OrWk/tHBcB7f3qpWXnjYrPkF1eYuy6+cMZ+AuAgVdsOdJhpDTbN+NqkqvvVnowAGCnvdQ8LgG/43//bfPGjB5id3vhGY+68fcb+UQHw7W9+s/ngO3czm//FXxhz+60z9hMAB6nadqDDTGuwacbXJlXdr/ZklQdA24RaPoleuP76anlSG224oVoelObeNA0LgP/7Fa9wGaALgPf+esb+UQHwb/7qr8wKmwFusemmZtnihTP2T/omGNFNDzyj7hdpbQ5Tb2ToRGNsZL1Jqdp2oMNMa7BpxtcmVd2v9mSVB8BksIp/2eGKk09U1yVwfXv24W79tKO+6n4u6an58/r77WW5ZfhliKDkcSEAxueMlebeNA0LgGcfO8ctf/adb5t/PeTgGftHBcCQ9bk/n951x4z9RWSA0m9auUhrc5jcwBiCjC9Rb7U8qrYd6DDTGmya8bVJVferPVnlAVAUfsNP9MvTTu2vJwPgk3OvdesS2EIg+8IBH+kHsBAEQ1ANAW7YcWF/fM5Yae5NUxPfBPPxQ2ar5UFam8Pkh4ZKNMYyjbOsVG070GGmNdg042uTqu5Xe7KpBMC6Ku91NzEAiuzLqZaLtDaHqTcydKIxNrLepGSxHdMh/C1DkWQZbEWiGV+bVHW/2pMRACPlve6mBUB59mdfSidtv0hrc5jcwBiCjC9Rb7U8stiOjw2dwN8yFEmWwVYkmvHFkj+tbfO6LZyxafvzSp4fyfLhyy+bsS8oTZ1xqrpf7cnSBMCNrV7QWyUAampqBjhKWpuxHr3qyv66Hxoq0RgbN84mIovt+NjQCfwtQ5FkGWxFEhugpvjZkgQieTa0wxvfMFDHNuMkASs8O5LtOy68wOy/557uWZGsh3q/PO175q/esJWr9/i11wwE2NdusolaR55fST15VhW3JftHyfer/PxSJbInC85J3e91nZW7fqsN0wSJNHUmUfyssEjlve5vfPYg88wV38+spy451knbN07/9bPvqdcSJPeiBTZR9Hqq+0Vam7HC8RII7VIbN052JwFwivhbhiLJMtiKRDPEWMk3V9hDnGRdgpuUh0wtGQBledA+e5vnzZrlgpZsh3cVhmMkuMkyvIninH+b028jriNtyLq86SLZ1ij5fq1M9r/YOaXRHmmCRJo6eRT6dhoBcJ/d36WWi8496mDz9E+Oz6ynLvq6k7ZvnJb+9D/UawmSe9ECW1B4TbV9Iq3NWOH4eF2T/Y8AOEX8LUORZBlsRZI0wqRCAEwGtlhSJkFJAlaoL2VhXQuA4V2H4oBDm+EdiGE7rhPOr7U1SlX3qz1ZcE6jkD+Bfqi32nvttWuPlaZOVsXv7KxbAGzan0Cn9GXYpZLFdnxs6AT+lqFIsgy2ItGML69CxlYnVd2v9mSZndOoIBGUpk4e2dO7JQFw+s8AY/VGhk6eMZaHLLbjY4PKar/sra3ZSkv2I8rF3zIUSZbBViSa8bVJVferPVmjAmDZGnXdbQuA9qV00vaJtDaHyQ2MIcj4EvnN0shiOz42rMFFrV7oWm61auVK8+wT/2me+f1vzTNPPOH1eKTe9lK3fLK3/Z+/Nyue+m+zdJU04JqqBf6WoUiyDLYi0YyvTaq6X+3JCICRRl03fwIdLj80VPKMsTxksR0fGyIk+K3sLSV42dWLv3C4MfMWGDNfNM9qrtd1a9bnSfn1xiyyy9tuMOfNOdKsXPWsbeUZ20g9oqC/ZSiSLIOtSDTja5Oq7ld7stICYFmyl6CWFyXtfkR5AqB8h+eyaD25f1QANPfd019q3yPKn0AHkfv1q2PxsSHBCqs1Qevsrxxunr5xnllq72/ZwsVWi3paZF/T/vYCu1+2Fxpz0y3m3H/5mgueq1fXJwX0twxFkmWwFYlmfG1S1f1qT1ZKACxT9hLU8rKVJwBu8Pznm+MO/bz5zj/PzvRrECtuWGT+a+617s1U22+5pTG33jyjDgFwkMkD4ODTux8f+UWzbME8G9zm23sUXe+1ZtsFQBv8VkiWeMOt5oI5/+qakVxS4/DDbVZpueSSS8yyZcskUrpt4YILLnDL+++/39xww2LzL//yL257UvwtQ5EQAMsRAXC87CWo5WUrTwD8/573PHPmv3zdfOeI2e53/ZL7RwXAey692Ky86YZSAuCUvgmmVCYPgB4fk875ks0A7b09E7R4fk83XL9mfbGsX2+WL5prM8DF5vw5R/njB4OpcNZZZ9l4t9qccMIJZo899jA//elPzTXXXGMee+wx89rXvta88pWvNEcccYT5xje+YebOnWuuuuoqf+Rk+FuGIiEAliMC4HjZS1DLy1aeALjpn/+5W55z7Bzzkv/1v1xgi/cP/RPo4oXmGZd5LDAX/sdx7vOmyTpkgINMHgAlaK0JXOf/8+E2A5xvszzJ9ESSDSZl73+hvKbXG3PzjebHxx7tjk3+AXTp0qXm+9//vtlhhx3MP/3TP5knnnjClX/rW98yTz31lHnHO95h3v3ud7vg+Ic//MHsu+++bn8R+FuGIiEAliMC4HjZS1DLyxZvghmu3sjQyTPG8jB5AJRngGsC4Nlfmm2eumGeDXALh8veu2SHvQC42Px4zteGZoAS5DbeeGNz6KGHmu23395tn2ADoPDJT37CXHjhhebSSy9125/97Gfdsgj8LUOREADLEQFwvOwlqOVlq00BUCT9uM6666n7RFqbw+QGxhBkfIn8ZmlMHgB7SBgUzjtytlkqz/y0wBdk7/0Z9yYYCYA3RAFwJj/4wQ/Msccea44//nhz+eWXm6uvvtr9uVP4wAc+YHbeeWfz13/91265zTbbuMywCPwtQ5EQAMtRWwJgmjp11KjrbmMA1MqDtDaHqTcydPKMsTxksR0fGxL0IleIXxceMdsFtt6fOXtvfFnqFbbl3p9ZvMgsXSwB8CZz3r99zf35MwTRmM997nPmP/7jP8yDDz7oS4w5+OCD3XKfffZxy8Djjz9unnzySb81Gf6WoUiyDDaoL+KYRH4zFWmCW5o6ddSo625bAJQ3wlx+/T3qPpHW5jD5oaGSZ4zlIYtP8rGhz5rQtyZ9u8AGQAl0/TfBKFouz/8WLjbLFyww5qabexmggrzjc9NNNzXnn3++ue6661yZ/Bn0kEMOcet77bWXmTdvnrn22mudzj33XPNf//Vfbt+k+FuGIsky2KC+iGMS+c1UpAluaerUUaOuu20BcJy0NofJDw2VPGMsD1l8ko8NCQYD4LlfOtw8dZPN+GyQk0CnaemiRS4DdAHwxpvNBccc5d4Bs2rFsA9CVI+/ZSiSLIMN6os4JpHfTEWa4JamTh016rpHBcDnvHhHs94r/yaz3rj9XuYNVtq+NNKuJUjuRQtsQfalVMuDtDaHqTcydPKMsTxk8Uk+NiTovXczhMBz/vmL5r8W/MoGuIU20MkH3tf8CTRs/+GGBea/b5T1eb13gR7ztV4YXRNHp46/ZSiSLIMN6os4JpHfTEWa4JamTh016rpHBcA6Su5FC2wi+zL2pe0XaW0Ok4yLYdidDQmAPUIYvOiIL7ivPVu1YJ5ZuXCuqlULrndavUA+B3ijOe/oLxv5EpheG/XA3zIUSZbBBvVFHJPIb6YiTXBLU6eOGnXdbQqAaaS1OUx+aKjkGWN5yOKTfGxQCcnbaZ//vPn+5z5nfvCZz5gzPnOIooPN9+2+0z/7Obv8rN3+rLnieye7r4FZuZI/gbaaLIMN6os4JpHfTEWa4JamziSyl6GWT6pR100AHK7eyNDJM8bykMUn+djQCfwtQ5FkGWxQX8QxifxmKtIEt1F1vnDAR/rrtjm3XG+ddcyWm23mfmlf1kO5/O6f/Kiw/AiulMX69uzDB+qF9aRCm2F7WD3RqOsmAA6X7dOh2J0EwCnibxmKJMtgg/oijknkN1MxKkgEjaoTAuBGG27olhLgRLIuP1Icfuw21It//Db8Kry9DBcAQz0JnmE7KWkz/Cq/KPxyv6Y099YUyb1ogS2ttDaHqTcydPKMsTxk8Uk+NnQCf8tQJFkGG9QXcUwiv5mKNEFiVJ0Q2EJQevjyy4YGQMnc5BcRQr2n5s9z6/YyBgKgbItkWyRBTrJGWU8GwDgbTCrNvTVFci9aYEsrrc1hknExDLuTADhF/C1DkWQZbFBfxDGJ/GYq0gSJqgOJZIBxpphXVV93mZJ70QJbWmltDpMfGip5xlgesvgkHxs6gb9lKJIsgw3qizgmkd9MRZog0dRA0tTr1iT3ogW2tNLaHCY/NFTyjLE8ZPFJPjZ0An/LUCRZBhvUF3FMIr+ZijRBoqmBpKnXPW35oaGSZ4zlYfIAGD4AIZ/im+ST7HJsfT4J6G8ZioQA2A7EMYn8ZioIgCgpPzRU8oyxPEweAAMSvOIgKMtRmslqAmC7IQC2A3FMIr+ZCgIgSsoPDZU8YywPxQXAHqtsGFs5JMANkgiGsqhP/Cu93zsJAbAdiGMS+c1UEABRUn5oqOQZY3mYLADKDxgtt9ICXghuISsMGeKaKNerIf/kG2BC/XrgbxmKhADYDsQxifxmKggSKCk/NFTyjLE8TBYAJZiF4OUX7huttWAWbYeY6JEwutJu1+jHIErv905CAGwH4phEfjMVBECUlB8aKnnGWB4mC4CDrFq10sa/FTa2aT9tG7PM6lkryR5X2WN8NKzRz0H4W4YiIQC2A3FMIr+ZCgIgSsoPDZU8YywPkwVACVii3p81JYG7/6FHzM33PGTu+PWgbk+s3xbW737ALPnPx80q28zq1RIU6xEE/S1DkRAA24E4JpHfTAUBECXlh4ZKnjGWh8kCYPgT6Jq/Xf7HD35m7nxspbn1t8N1m91/m1/e++Qqc9KPfuZDaLbgJ5ljrFBWBP6WoUgIgO1AHJPIb6aCAIiS8kNDJc8Yy8NkAXAmx5/5c3Pno8vN3Y+utMsVqu5+dJm547HVdrnC/PpJY0486+f+6JnBa9WqXmiMkSCXLF9tt4sMgv6WoUgIgO1AHJPIb6aiyQFw1PeAiuLvDE0j+Z5RrVyUbOvxa68Z2I4Vvu+0qfJDQyXPGMvDdAPgypEBMAQyLQgOQwuOefC3DEVCAGwH4phEfjMVTQ6AIvneUFmGL+AO2yIJWid/6Ujpj34d+VLtuGzRWT8yF37zOLceAqAEt2QQk7Z+dMy/9sulTvgFDGkrBMjP7b+fq7PbDjv0j22aZFwMw+7sfAAUjj76aPO9733P/OVf/qX5u7/7O/PJT37SbLPNNm7fm9/8ZvMP//AP5sMf/rDZZ599zF577WVuuOEGMsC6QgBsB+KYRH4zFU0NgBJg9t9zT7lXtx0ysmQAlGX4JQmpE36CSY4Pv0YRFAfAEFCDQlthGdeRQBgHPAmAyeObpN7I0MkzxvJQ9wB4zjnnmC996UvmlltuMZ/97GfNv//7v5uFCxe6fR/5yEfMBz/4QbPddtuZv/3bvzWHHXaYWbxokds3Kf6WoUgIgO1AHJPIb6aiqQEw+efPZACUADQuAMrSdoHZ6tWv7q+Hep/Zb1+zzeu2cNsiaUv2x3XkJ5ykTvhJKDmn/HRTyBLlx3vD8U2Svceh2J0EQIsEvM9//vNml112Mf/8z/9svvWtb5mPfvSjbp8s9957bxccj5g92xx//PHmxptucvsmxd8yFAkBsB2IYxL5zVQ0NQCi8uSHhkqeMZaHugfA8847z/zLv/yL+djHPmZuvPFGVyYZoXDIIYeYt7zlLWYHO8mSP4duv/325sEHH3T7JsXfMhQJAbAdiGMS+c1UEABRUn5oqOQZY3mYLADODFgnnHGFud0GtzseW75Gv7UBT+S2l5nbfrvK3PGosfVWmXtsADzprMv80TO56KKL3HPABQsWmC9/+cvmO9/5jrnzzjvdvv/zf/6Py/ruvfdec+qpp5pFixaZxx9/3O2bFH/LUCQEwHYgjknkN1NBAERJ+aGhkmeM5aGYALgmEH73+5fZ4LbK3PWozfCW6LrzsaXm3kckGD5jHrDx6nv/72f+6Jl885vfNLNnzzaLFy92f/782c9+Zm6w67/73e/MQw895ALi3LlzXYC85JJLzLe//W1/5GT4W4YiIQC2A3FMIr8JUDhVjbGiA+CJp19m5PN9d4mW2ECo6E6bBd77iLGZ4HJz13/ZoHnWz8xy28ZK99VoOitXrjArVqxwH3GQd3nGH5H4zW9+41Qk/pahSAiA7UAck8hvAhROVWNssgA48/N23/n+5ebOR43N7lb4P3nOlATA+x6WP4Ga3jPAH/3CHz1ICHQz5INgCIaBeH1S/C1DkRAA24E4JpHfBCicqsbYZAEw/BJE76dsZe14GwBvs4Htrv805u7f6brD7rvntzYA/t6Ye/9gg+YPf9I7evW4L9GuDn/LUCQEwHYgjknkNwEKp6oxVlQAFOT/08/6uTnpnJ9aXWFOOutKVd89+ypz2o+uNiedfbk58ewrzM+uudkebEPo5F/gUhj+lqFIZLCh5is4J20fQkWoyjHm3dNYfGxQkMglsgGxFwtHsibO9TK+1e6gZ+sU/1L3CUDnCM7JbwIUTh3HmI8NQ5AwFgKg/Bc0ijjkrTarCnyGNyn+lgEgSR2dE7SLOo4xHxs6gb9lAEhSR+cE7aKOY8zHhk7gbxkAktTROUG7qOMY87GhE/hbBoAkdXRO0C4YYwBQS4JzQqhs+SEHAFAPkk4KobLkhxwAQD1IOimEypIfcgAAAAAAAAAAAAAAAAAAAAAAAAAAAAAAAADCscce+4Kjjz7aiHwRAABA+4kDH0EQAAA6AwEQAAA6iQ16p0jgC/LFAAAA3YEACAAAncEGvY/6JcEPAAAAAAAAAAAAAAAAAAAAAAAAAAAAAAAAAAAAAAAAAAAAAAAAAAAAAAAAAAAAAAAAAAAAAAAAAAAAAAAAAAAAAAAAAAAAAAAAymInK2N1lNsaTqj3UbdVPYutnuit1o6lVtI3t1td6ddFe1iNQ+4r1B/GQVahzoekYARZ6gIAAAAAQEcJicgoZP+S3ipESL9IEpjk9VbjEjE5ThJHqaf1vySU0udru63R7WWpCwAAAFAma1n9ykrmI8uskn8Yl/3Juc8FVuf1VjOhtRXzDauDe6sAkESMZ5gBDdv3AquwL1YyWdzYSsrD08SgwAlWcXlyv6CVCadYxcfEkuuLGXYdQeOehiZ5n5UclzxPILSrIeWf662OrBcjddImdlnqAgAAABRBSMhe5LYGkfKte6vPebmVJIcxj1uF/VkYlwQCwBjEgC7trfaRxEjKwxOmQEi+kuWClMfGGJKvuCywjZWU7+q2hqMdP6xNQf7iJPvixC5ch/bkLryNckO3lY7QB8OQfcn94e2iMVo9DalDEggAAAB1ZT+rp3qrM5AnfQt7q7mSQDkmni9J8if1QxIYHyvbIRGV8x7RW1XrynnDfoBOIk+mxDAkWRIkwZNtzTCkfJwCIfkalpSERDBInrAlCfsC457CCclj4ieBGrIvS+IkdeP2k8TnD+c+1m0NEtcbhdQhCQQAAIC6kkzUYqQ8zPHyJIHHWIUkMkZ7Ehi3pSWBMcPaBegU4UtOBFlqT80E2Zc0omGMS76ShCds8fvHk+cLCao8wRuG7I/fW150EijIMfJ0T0P2hbd8Sp1hknqhHS1JDGS5vix1AQAAAIoiJFpJrWsVyPt2UKmTbDNPEhi3k7wOgM4iBhEng8MIxpN8y6V8JjBOQEYlX1JPkp+Y8EU18VtNw7liNrMK5fJFLIEzraQs2W4ZSWC4Bumv8FZS+QZVKZPPOqZB6orGkeX6stQFAAAA6AJawggAMDHaZyQBAAAAAACg5oSnc6MEAAAAAAAAAAAAAAAAAAAAAAAAAAAAME0OP/zwU2bPnm1EvggAAAog+FartN+ODgAAAFA8cdKXlK8CAAAFoPlZL5JCAAAAKI9RSV9S/hAAACgAzc8OEUkhAAAA5CdL0ocQQqiWIikEAACA4ZD0IYRQ60VSCAAA0GVI+hBCqPMiKQQAAGgzJH2oifriF79onvvc5w6U2eFs9tprr/72vvvuazbbbDNXHtc77LDDZhw7rG6s5Dk33XRTs+OOO7p1rc0DDzzQzJo1y61vu+22/boINVAkhQAAAE2GpA+1QVoSmEzE7HBXy7WEbVjdWHJOqfeGN7zBvPKVrzQvfvGL+/vGJYEiSRrl+C222GKgHkINFEkhAABAU7AJ4H1KMEeocdKSQHnaJk/zZH3ttdd2CVessC+ZsI2qG2vY08ewL6wHydPFl770pQNlQcm6CDVQR9hxDAAAAE2DpBA1VSHpCtp55537+3bffXc1iZN6n/70pweSwHF147LkObUneltvvbXb98d//MfuSWAoP/jgg11COOw4hBogkj4AAIA2QlKIEELIi6QPAACgi5AUIoRQZ0TSBwAAADMhKUQIodaIpA8AAACykzUp9IcBAEABaH52hEj6AAAAoHjGJYW+GgAAFIDmZyOR9AEAAED1JJNCXwwAAAUQ+1crkj4AAAAAAAAAAAAAAAAAAAAAAAAAAAAAAAAAAAAAAACollfs+H6DEEIIIYRGy0+dAACaj+bkEEIIdU82JKjlCKGeejMnAIAWgHNrHW4i5wUAkBZ8B4AC8yQAaCU4t9bBRA4AshL7DfwHQEQF86R9rJL2d5NV0axlNeoeHrda2FsFgNZTgXODaomDCADAOGKfkRRA5yl5niSJ1xG91QFebhXOF5I3WUp9WX+N1Sik7gIrqStJpjCunQuswrVInWV+GeruYQUAbaFk5wbVI69jEABAWvAdAAolz5OkzRf1VgcICdu60XqMbG/dW53BflZP9VYHGNdOMglM1pX95/VWAaDxlOzcoHzkdVvaW3XIdhAAQFrwHQAKJc+THrDS3oIpCVdI5LSETJ7OFZEExu2QBAJ0iZKdG5TLh6zkdRumrMgx8jmEb1slg1J4awoBAKCdTOI7AFpLRfOkb1gF+/usFERkTQIFOSb5Ns48SWBYyltDx70FFQCaREXODcrnc1byGsZaYpWWUa+//FXxfVbbW5EEArST2HcAgKej8yQtYQSANtFR59ZmwiQuqdutRiF1YsK2vFUlfF6BJBCgvcT+AgA8zJMAoJXg3FpHciJ3ipWsy5PCUcTv9f+ElfZ5ApJAgPaS9B0AYGGeBACtBOfWOpjIAUAe8B0ACsyTAKCV4NxaBxM5AMgDvgNAgXkSALQSnFvrYCIHAHnAdwAoME8CgFaCc2sNx1rFk7ggPsMHAGmI/QYAeJgnAUArwbm1imQiSAIIAGmJfQcAeJgnAUArwbm1jpAIkgACQBZCAkgsAIhgngQAraQq5xafB6G2yA9vgDYQEkDGNUAEPh8AWklVzk3av/PR1Qi1RkwIoGWEBJBxDRBR1TwJAKBSqnJu0r42kUaoqWJCAC0jJICMa4CIquZJAACVUpVzk/a1iTRCTRUTAmgZIQFkXA8hjpeoO/6vi/cMAB2gKucm7WsTaYSaKiYE0DJkPAeBgtj8kkceQVZd8n9yr0G+CACg+VTl3KR9bSKNUFPFhABahoznIFAQm9cSoi6qS/5P7jXIFwEANJ+qnJu0r02kEWqqmBBAy5DxHAQKYvNaQtRFdcn/yb0G+SIAgOZTlXOT9rWJdJGypzEXXbdkIh31zXPMS166kbovi+RaTjr3enVfFhVxTx/Y/2Cz827vVfdlURHXIiqiHbkfuS9tXxbJtWhjKY2YEEDLcPbgBQpi81pC1EV1yf/JvQb5IgCA5lOVc5P2tYl0kbKnUSf6WUQSOFxFXIuoiHZIAgEKx9mDFyiIzWsJURfVJf8n9xrkiwAAmk9Vzk3a1ybSRcqeRp3oZxFJ4HAVcS2iItohCQQoHGcPXqAgNq8lRF1Ul/yf3GuQLwIAaD5VOTdpX5tITyLbrDqxzyISpOEq4lokES6iHUnMJUHX9mVR8lpkWxtbacSEAFqGswcvUBCb1xKiLqpL/k/uNcgXAQA0n6qcm7SvTaQnkW12YEKfRySBw1XEtZAEAjQGZw9eoCA2ryVEXVSX/J/ca5AvAgBoPlU5N2lfm0hPItvswIQ+j0gCh6uIayEJBGgMzh68QEFsXkuIuqgu+T+51yBfBADQfKpybtK+NpFOK9sEQpkVJ3wh6Utua+MtjZgQQMvo243bghmIzWsJUay37bKL68MtttjCLbU6o3TAAQeYE044Qd1XJ3XJ/8m9BvkiAIDmU5Vzk/a1iXRa2SYGJu95xBOy4SriWuQ6Nt9qO3VfFsm1lPWlOlKW1OnnXqGOuXFiQgAtI7YLUBCb1xKiWLaaueTiiwfKNthgA3PLzTcP1Anl795jD7PTTju5Yy6+6CKXPG677bZm7733dnXO//GPXX3ZjtuWY7fbbjuzySabuPLjvvENt5Ty0H5Sc+bMcfve9MY3DtQJx4w6Nqku+T+51yBfBADQfKpybtK+NpFOK9vEjAl9VtUpCWyjmpIEJre18ZZGTAigZTh78AIFsXktIdK0cMEC15eStD304INuXcrlSWFI5Pbfbz9XLglcOC5+EhiOizVr1iy3TxK2e++5x63ff999Zt111+23EZ8jSNoKx8ZK1k22NUxd8n9yr0G+CACg+VTl3KR9bSKdVraJgcl7HpEEliuSQIBGIeN3aW/V4ezBCxTE5rWEKGje3LkDCZ09pJ9gyRM9eWq3+eabu21JtsI+OWbXXXd16/K0LqyLJNmL2/zqV77SL8+SBIrkekJbZ/3oR24p1yzloY60qx2bVJf8n9xrkC8CAGg+VTk3aV+bSKeVbWJg8p5HJIHlqo5JoKZkHW28pRETAmgwH7IasIuEsiD1t+6tqiyzytpmLRGb1xKiNIqfBrZBXfJ/cq9BvggAoPlU5dykfW0inVa2iYHJex6RBJYrngQCNJLPWTlbiLTEKg37WX3ZaoGVHHeSVeDlVgt7q25f4xGb1xKiLqpL/k/uNcgXAQA0n6qcm7SvTaTTyjYxMHnPozokgX/0/N4H7+OyF73kZa4svravf+t8V/aZI08YqJvUSefMc/XmnHSJuj+Wdu5YB3zqy27/Dy69Rd0/TiSBAI3G2YOi262GcYzVEb1VhySF51ltbyVPAH/lJe3Icl2rxiI2ryVEXVSX/J/ca5AvAgBoPlU5N2lfm0inlW1iYPKeR3VIAkPSts0Ou7rtc6+6320HhXqSsK01a5ZbP/+ahwbqiELSl0wWDzys9+1vsUI7IQkMy3jfHu8/oF8Wl2cRSSBAo3H24CWcYiXr8qRwFPFxkvhphDYbjdi8lhDVUfJZv/D5wzLUJf8n9xrkiwAAmk9Vzk3a1ybSaWWbGJi851Fd3g4anvyFdUm4QjIo15d8uifrms658t6BJDAki8mEMJw3+SQwHBvOExJBngSmExMCaBnOHrxAQWxeS4jKlD2tWj5OJIHFIfca5IsAAJpPVc5N2tcm0mllmxiYvOdRXZLAkPDttff/dcuQhIXkMCSGob6Urb3Ouv3tWFoS+OrN3+SWr91y24G6JIGTJX1JMSGAluHswwsUxOa1hGhSxd/ImfwpB3va/nrymzyT+8O2fGsoSWBxyL0G+SIAgOZTlXOT9rWJdFrZJmZM6LOqTl8Ms/X2b3PtbPzKV/fL4rd9JhOxrxx3Vj+JkyQvJEnhqeHh/3qa+rZR0StftbmrGz+BFB1z4sVuOySBonf93f6u7K3veE+/LK1IAgEajbMPL1AQm9cSokkV/9yDyJ5KXU8mdto3jkpb8sP0JIHFIfca5IsAAJpPVc5N2tcm0mllm5gxoc+qOiWBZWhYEqjVLUMkgQCDTOr3qtTHD5ndl7a/bpqG/ck5tYRoUo1KAs884wy3LT8gPyyx22mnnVydbbfdtl9GElgccq9BvggAoPlU5dykfS2Qp5VtYsaEPqvangROW3VMArWxVJSYEMA4JvV7aLimYX9yTi0h6qK65P/kXoN8EQBA86nKuUn7WiBPK9uEOtHPIpLAckUSCDDIpH4PDdc07E/OqSVEXVSX/J/ca5AvAgBoPlU5N2lfC+RpZZtQJ/pZRBJYrkgCAQaZ1O+h4ZqG/ck5tYSoi+qS/5N7DfJFAADNpyrnJu1rgTytbBMIZZY2looSE4JG8riV/JadLJOvX9gn5cN+7y4Tk/o9NFzTsD85p5YQdVFd8n9yr0G+CACg+VTl3KR9LZAj1FRVNSGIbbSL8t1QBhdYHdFbfc4DVlv3Vh37WZ3XW82PXL82dtDkKnlsqMg5tYSoi5pG/08LudcgXwQA0Hyqcm7SvhbIEWqqqpoQyHmeXbSgkyqxj+Wp3/t6qw5JAl/UW3Vsb0USWGNVZX8xck4tIeqiptH/00LuNcgXAQA0n6qcm7SvBfIitOd7P2QO+sK/qZ8LyyJ7mWp5Fsln2Ypo5yUv3ch9xk7bl0VFXIv0bVGf9dPKs6qIduSzoTJutPGUVlVNCOQ8WoLUBZXQx/L076Te6gAvtwrnWsuqkPOW6fe6rqrsL0bOqSVEXdQ0+n9ayL0G+SIAgOZTlXOT9rVAXoRIAoeriGshCdRV1YRAzqMlSF1QVX1cFmX6va5rGmNDzqklRF1U020zC3KvQb4IAKD5VOXcpH0tkBchksDhKuJaSAJ1VTUhkPNoCVIXVFUfl0WZfq/rmsbYkHNqCVEX1XTbzILca5AvAgBoPlU5N2lfC+R5ZJtTJ/ZZJElNXRJHSfYk6dP2ZZFcS1E/raCVZ5H0rfwkh7Yvi4q4FlGyHZLAZqjEPnZjwmszKSiDIv0eGlRV9hcj50Rr5Lul9XTxngGgA1Tl3KR9LZDnkW1uYEKfRySBw1XEPZEEFoecR0uQuqCS+9iNi0iTENp4vdvyFOn30uiIo4/v388hXzhKrdMWVWV/ADLWgnwRAEDzqcq5SftaIM8j29zAhD6PSAKHq4h7IgksDjmPliB1Qb6PG6si/d4onXH+1WadddebUS7XcMN9T7n19Td4YX/9toeXu32hTtDHD5ltLr/+HrPzO/boJ5R7vX+/fntp2wj1y1RV9gcgYy3IFwEANJ+qnJu0rwXycTr93CtIkIaoiGsRFdGO3I8kVtq+LCriWrTPZSa3SQKboar62LLYyo0TrxdYZSE+VnSQVW6/l1Vvfdu71ORLyud86wy3PiyBE8XrkgS+ZvOt+tuSYIbttG1UoQrHBnQcGWtBvggAoPlU5dykfS2QjxNJ4HAVcS2iItohCSwPOY+WIHVBVfVxhBsrXkdJQUpc0pckr9/LqpseeMZd86gySeCuu/UxdV+8LkngrFnP62/v+9FPuSeDsp62jSo0hbEBHUXGWpAvAgBoPlU5N2lfC+TjRBI4XEVci6iIdkgCy0POoyVImnbbYQd3r49fe02/bKMNNzQPX37ZQL1J9ML11++3L+tFtp1UVX1cFnn93jSVfBJYVzV9bEBzkLEW5IsAAJpPVc5N2tcCeayDPvsls+Gf/KnZerud+nr1a19vnve8/899hi+t1nv+BjPK7CWYV732DTPKR2lYO8myUdrwT/7c/OmfbzJQJtsv/F8vHigbpyKuRVREO3/84peav3j16wbK5H4kWY/LxqmIa5HreNGGfzqQ4HU9Cfzlaae6+w3JWZwEXnHyiW7fNq/bwi13f8tOrvyOCy8wu2y7rSuTxE6Woc2kkklgvL7DG99gnjdrljv+Cwd8ZOCY9+769v7+UD5OVfVxWaTxeyifmj42oDnIWAvyRQAAzacq5ybta4E81lH/frKb2MeT9Tyyp1PLs6qIdur0hExURDvyGtXlNwy1L9UJSWBS8TW3PQmUdUm8ZD0kgU/NnzcjAQv7JAnccrPN+uUH7v1Bc9pRXzVPzr3W7L/nnk5f+6eD3L5RSWBYF9lLd8vwdDJWuMZxqqqPyyKN30P51PSxAc1BxlqQLwIAaD5VOTdpXwvksdqYBLZRTUkC47LkdheSwLBtm+g/CZRE7eQvHenWL/zmcf2kcFgSGLZjZU0Cpe2wLvr1pRf318epqj4uizR+D+VT08cGNAcZa0G+CACg+VTl3KR9LZDHIglshkgCe6pqQiDn0RKkLqiqPi6LNH6vSMk3dsZf6mIvwZx16dyBOprky1/ibxdNbtdRI8bGh6waPW6gXshYC/JFAADNpyrnJu1rgTwWSWAzVLckUNrRFNdLbpMENkNV9XFZpPF7RUpLAsO3eSa/8CX++YhRSaB8C2j8G4TSpvxMhLQn62mSzDIUjY2Q9KFmqHHIWAvyRQAAzacq5ybta4E8FklgM8STwJ6qmhDIebQEqQuqqo/LIo3fK1LJJDD+GYe8SWBcL9a0v0U0GhunWLn7RI1Q45CxFuSLAACaT1XOTdrXAnmsriSB51/zkGv7la/aXN1fhoo8X1OTQG3MTaKqJgRyHi1B6oJK6OOXW0mbv/LL86wC21vF+7a2mog0fq9IhR9w3/JN2znJepzcybYkibLcZ/9PpEoCw3Gv2GQz8959PuLWw5PAmiSBSUJSCPVhJys3dtxWw5CxFuSLAACaT1XOTdrXAnmsriaBJ50zz21/6vDj3DJozkmXDOw/9KiTBvZ/5sgTBvaHbZFsrzVrVn89Vmg3r0gCe6pqQiDn0RKkLqjkPl7LKrS/ttWy3mqfic+dxu+hfKrK/qAQSAIBAOpGVc5N2tcCeSxJAm3VRipOOMZpWBIob1EMdWQ7JHHa/he95GWu7Jwr7x2bBIbttddZt7+dRXJsnSW/URhfL0lgMZKfh4i/PdReyow6ZavEPg5PBAOSBD7VW+0z8bnT+D2UT1XZHxQCSSAAQN2oyrlJ+1ogj9X1J4HjksD47ZyyLYr3b7PDrm47tF9UEphUU54EamOsSFU1IZDzaAlSGZKfhnjtJpu49fh3BZM/IVGVSujj+Olfkset9umtPucYq/itorlI4/dQPlVlf1AIJIEAAHWjKucm7WuBPFZXk8Dv/Xih25a3g4Y6f/T8DdQnge/6u/3d+i7vfH+/rii0ITr+B78wW2//toGkL94vTw/jY7OKJLCnqiYEch4tQSpLW7361a7/fnTMv7YxCayUNH6vCJ1x/tVm53fs0d8+4ujj3Wson+OTz+9JmXzBi5Qly2Otv8ELB9oRhePisiCpH76IRr6EpsrPCDZ9bHQMkkAAgLpRlXOT9rVAHqsrSWBWaU8KpymSwJ6qmhDIebQEqQuqqo/LIo3fK0L2VP315Je6BEkyF/+cQ3yMSI6TL4r5k5f92UA9Oe6HF14zo75WHtqI65Wlpo+NjkESCABQN6pybtK+FshjkQQ2Q3VLAl+20cbqeCpbVU0I5DxagtQFldjHx1q5MWj1hBSUQRq/N6nkKaD2BG7r7XZy9xeSMkna5Alg/PQuSPstwLAeksf420C/euyJLtEM30Ya6lb5jaFV2R8UAkkgAEDdqMq5SftaII9FEtgMkQT2VNWEQM6jJUhd0JA+jn8cfBIOsgrtiKTdQknj9yaVJF5xApeUvQy3jJ8EJpO3eF0kiWVoMz5OnvS9893v7yd6yXaSb0stU1XZHxQCSSAAQN2oyrlJ+1ogj0US2AyRBPZU1YRAzqMlSF2Q7+M46WuU0vi9IiRP97TP+FUtuWetvAxVZX9QCCSBAAB1oyrnJu1rgTzWvh/9J7Pe8zdwScYksqdTy7OqiHbk5wvkM2vaviyq0z3Ja/SKv3iNui+LirgWuY5RT0HKVFUTAjmPliB1QYk+Dj8CHqso5Cci4nbvs5qYNH4P5VNV9geFQBIIAFA3qnJu0r4WyBFqqqqaEMh5tASpCxrTx5IUFk38WcGJX1/8Xnmqyv6gEEgCAQDqRlXOTdrXAjlCTVVVEwI5j5YgdUFV9XFZ4PfKU9PHRscgCQQAqBtVOTdpXwvkCDVVVU0I5DxagtQFVdXHZYHfK09NHxsdgyQQAKBuVOXcpH0tkNdJ8bfgVaXw7XpBXz/uVLVeUvKNgFJ/r/ft674QIrmtHTNOXfzB6UlU1YRAzqMlSF1QVX1cFk3we01V08dGxyAJBACoG1U5N2lfC+R1UpwESmIiCVryN7Uk2ZIEJyRIe71/v/6++Bv64q9Ol2VQ8kecpV7cfvxDz8nf3JLrk9/8kt/oittMbkvdXyx6oL990VU399uTa99n/0/M+J0wUThW1JUfnJ5EVU0IYhvtonw3NBK5fm3soMnV9LHRMUgCAQDqRlXOTdrXAnmdlEwC46dc9hbcMpmYxT/UPCwJFMXrsZJPAkWhjWFJoKwnk7R4W9a33nZH8959PuIk1yX3lWwvVld/cHoSMSGAcTTB7zVV2F+jIAkEAKgbVTk3aV8L5HVS2iQw+eQuvPVRjrnu1sfcuiRE4RhRvB4r+SQwTojkXHFSJU/X0iSBklwl344pGpVcJc+VVLimuI/GJbpN+MHpScSEAMbRBL/XVGF/jYIkEACgblTl3KR9LZA3TU15SpVHycR3WrLDRS2vm5gQwDja4vfqKOyvUZAEAgDUjaqcm7SvBXKEmiomBDAO/F55wv4aBUkgAEDdqMq5SftaIEeoqWJCAOOI/SsqXr6bof6QBAIA1I2qnJu0r02kEWqqmBBAy2jsJB1qD0kgAEDdqMq5SfvaRBqhpooJATScDf0y0NhJOtQekkAAgLpRlXOT9rWJNEJNFRMCaDCLrcKkXPS5aD0PX7WSY7/tl++zAgiQBAIA1I2qnJu0r02kEWqqmBBAC1hqFSbnQXtYZeUBq316q885xuqI3iqAgyQQAKBu4NxaRwi0Rb2ea3sBQHsRG499R9A2Vmm4wOqk3upzHrda2FsFcJAEAgDUDZxb6wiBtojXM54YkggCtJtg6y+I1oNG2f9aVlJnXbf1nOdsZCXbAAGSQACAuoFzax0h0E76empPBkgEK8B2tEEIoTap59qcGgfzJABoJTi31lFEsNUSwCASwZKxnaxOohBCqKnquTanxsE8CQBaCc6tdRQdbEe2JePm2UULOqmybMY2mpw8AZSNjLNYABNhB1HSjwU1DuZJANBKcG6to+hgO7ItGTdagtQFlWUzttHk5AmgCmSsMd6gEIL/CuoVNXN8MU8CgFaCc2sdRQfbkW3JuNESpC6oLJuxjSYnT6UQ2z5CCGny7iIzsQ8T9YrK82dlUkR/AADUDpxb6yg62I5sS8aNliB1QWXZjG00OXkqhS6/dgih8ZrEx8U+TNQrKs+flYn0Q5AvAgBoPji31lF0sB3ZlowbbfLQBZVlM7bR5OSpFLr82iGExiunj9vMasCHiaTMKy/y+5PL/DLZTtgn5bIsFOmHIF8EANB8cG6tQ17HoCIY2ZaMG23y0AWVZTO20eTkqRS6/NohhMZrAh93XezDRLYsqAgusDqit/qcB6y27q069rM6r7daDNIPQb4IAKD54NxaR9HBdmRbMm60yUNWPTV/nllvnXXcuR6+/DJX9uTca11Z2C/74mOuOPnEgfXd37LTjDq77bCDK4/LTv7SkQPbeVWWzdhGk5OnUijqtUMItVOT+LjYh4l6RX2dYpUXeer3vt6qQ5LAF/VWHdtbkQQCAIwD59Y64kBbBHF7qrTJQ1ZJkve8WbPc+gvXX9/88rRTB5JASea+cMBHBo6JFa5DjgntaIljkSrLZmyjyclTKcj1a/eFEEKiSXxc7MNEvSJVO1mlQZ7+ndRbHeDlVtKOsJZVWC+MMEcqy+cDAEwFnFvrkNcxqHRk3GiTh6yKk0DRRhtuaL5zxOH9JFCe9IX1pCRptJcyoPD0T9bDk8WiVZbN2EaTk6dSKOq1Qwi1U5P4uNiHiXpFA/7sCb+sPdIPQb4IAKD54NxahxZsS0PGjTZ5yKpkEij6zH77zkj8Pva+97p7e9XGG5vHr73GfHv24TPe7imSOiH5+/WlF/cTxaLeCioqy2Zso8nJUykU9doF/4Gqk/Y6IFS0ZKx5d5GZ2IeJekXl+bMyiW3PFwEANB+cW+uoNNjKuNEmD11QWTZjG01OnkqhqNeuy2NgGqK/UVWaxMfFPkzUKyrPn5WJ9EOQLwIAaD44t9ZRabCVcaNNHrqgsmzGNpqcPJVCUa9dl8fANER/o6o0iY+LfZioV1SePysT6YcgXwQA0Hxwbq2j0mAr40abPHRBZdmMbTQ5eSqFol67Lo+BaYj+RlVpEh8X+zBRr6g8f1Ym0g9BvggAoPng3FpHpcFWxo02eeiCyrIZ22hy8lQKRb12dRoDd1x4wchvkW2DumxzqFpN4uNiHybqFZXnz8pE+iHIFwEANB+cW+uoNNjKuNEmD11QWTZjG01OnkqhqNeuTmNgVBIo3zB72lFfdV9CFH/rbKi/5WabuaXsD+u2m9yyTuqyzaFqNYmPC/4rqFdUnj8rE+mHIF8EANB8cG6to9HBFtwLl5w8lYLYvDbxy6qi2ilCySQw/tbZOOGTb5WVhDAkg/L7ktq3zCa/sbYOqlN/o3ZrknlB7MNEvaLy/FmZSD8E+SIAgOaDc2sdjQ624F645OSpFMTmtYnfKNnDzHePmD1QlqedOkh+NkQrr7ua2t+oeZpkXhD8V1CvqDx/VibSD0G+CACg+eDcWkejgy24Fy45eSoLaXtivehVf6lOIFE5El+tlSNUtCaZF9gDk34sqHEwTwKAVoJzax2NDrbgXrjk5KkUxOa1id8o2cOc9tn9Xf2yPO2g/KK/66kQR6cl7ZomlbTrnEUOxHfF6hWV58/KJO5nXwQA0Hxwbq2j0cEW3AuXnDyVgti8NvHLqqLamYaGfRZwlGzXqeVVqcn93WbJ63Lno6unorLGhLTb8xbZCf4rqFdUnj8rE+mHIF8EANB8cG6to9HBFtwLl5w8lYLYvDbxy6qi2smrjTbc0Dx+7TUuofvlaae6Zfh2z9122MGVybq9ZffFMPG3gyaTQPkimPDlMaPaCfWnoWn3N9Ilr4uWoFWhssaEtOucRQ7Ed8XqFZXnz8pE+iHIFwEANB+cW+todLAF98IlJ0+lIDavTfyyqqh28kh7kidJYbwdvuHT3nK/LHwpjJYEhvU07UxD0+xvNFzyumgJWhUqa0xIu85Z5EB8V6xeUXn+rEykH4J8EQBA88G5tY5GB1twL1xy8lQKYvPaxC+rimonrySRs7fjFMrkyZ1sxwlevD/+ZlBJ9sK+5E9CjGtnGpp2fyNd8rpoCVoVKmtMSLt2vOfCHpj0Y0GNQ/ohyBcBADQfnFvraHSwBffCJSdPpSA2r038sqqodlA60d/1lLwuWoJWhcoaE9KudxeZiX2YqFdUnj8rE+mHIF8EANB8cG6to9HBFtwLl5w8lYLYvDbxy6qi2kHpRH/XU/K6aAlaFSprTEi73l1kJvZhol5Ref6sTKQfgnwRAEDzwbm1jkYHW3AvXHLyVApi89rEL6tiH9Ik2S5Qy5sg7XVA05W8LlqCVoXKGhPSbs9bZCf4r6BeUXn+rEyC3U3SHwAAtQPn1hoWW8WBNmiJFTQI+6IlJ0+lIDavTfy6ItsFajlCeST2pCVo43TTA8+Y12y+lbovrcqy5UnmBcF/BfWKyvNnZSL9EOSLAACaD86tVSQTQRLABmJfuOTkqRTE5rWJX1dku0AtR4Pa9W8/bsxdtxpzZzVaceX3zFPnf8ms+MWp6v6y9OTcuer9p5XYk5agjdNtDy93YzHWOuuup9YdprJseZJ5gT0w6ceCGof0Q5AvAgBoPji31hESQRLAhmJfvOTkqRTE5rWJX1dku0AtR4Pa+Z0fM8sW6/vK0NOXneSSwKd/frK6vyw9eMUv1PK0EnvSErQqVJYtTzIvCP4rqFdUnj8rE+mHIF8EANB8uubc4vtFzZV/OVuJvbnk5KkUpB+1iV9XZLtALUeDIglMJ7EnLUEbJ3k76McPmT1QlvXtoWXZ8iS+NvivoF5Ref6sTKQfgnwRAEDz6Zpzk/vUgh1qjto+Vu3NJSdPpdB1W7BdoJajQZEEppPYk5agpdGfvOzP3HgMOuvSuWq9YSrLlifxtfbApB8LahzSD0G+CACg+XTNucl9asEONUdtH6v25pKTp1IoyhawqWpVdX+TBKaTvC5agjZKs2Y9zz0JtOY4ID4TWC+kH4J8EQBA8+mac5P71IIdao7aPlbtzSUnT6VQlC1gU9Wq6v4mCUwneV20BK0KlTUmpF3vLjIT+zBRr6g8f1Ym0g9BvggAoPl0zbnJfWrBDjVHbR+r9uaSk6dSKMoWsKlqVXV/Z0kCV99yk4xXs9GGG5rXb/Yqs/q2W8zbt9vOvOzFLzYvfdGLzDXfP009LlaeJHDpwvlms5e/3Fzy3W+785vbbzVbbLqpufRbJ5jzj/uG+c9rrlaPizWNJPDy6+9x15sUbwetF9IPQb4IAKD5dM25yX1qwQ41R20fq/bmkpOnUijKFqq2qW/PPtx84YCPpC6fVC9cf321fFqqur+zJIGrbrrBbPwnf2J+cdqpMm7NSpsU7v6Wt5hX/OmfuvLVt9yoHhcrVxK4aL75H//jf5iX2mTzXTvtZFbbJHDb173O7LbDX5l3bL+9WXXrzepxsab5JHDfj37K9VcQbwetF9IPQb4IAKD5dM25yX1qwQ41R20fq/bmkpOnUijKFrK0EydUu+2wg3n48svcur0cp1/a5EG2JaG7+5KLXNmH99qzv1+SvCtOPtGcdtRXzYF7f1AtD+2HfeEc0qa0L2XrrbNOv96Tc6/t102W7f6WndQkUK5d9sdJZ2hj1PmS1xzf5+PXXtNva5Sq9mFZk8DXv+pVZuVNi932ihsWmbe86U3m97/6pdPT8+fNOCapfG8HnW+2e/3rzXJ7PtmW63jNKzcx//C3u5sP/M3fmJvOPTtRf6amlQTKZwLnfOsMt77zO/ZwS5LAeiH9EOSLAACaT9ecm9ynFuxQc9T2sWpvLjl5KoWibCFLO5JQ2VM7aUmPlMsyJFChXN5eGNbjZE8rlwROkrdQLomXtCVthuPuuPACl4TJMlyPSJK15PHJJDA+pyjL+WQ9Pj55n2lUtQ/jM4HpJK+LlqBVobLGhLRr7SIX9sCkHwtqHNIPQb4IAKD5dM25yX1qwQ41R20fq/bmkpOnUijKFrK0M+ypmjw9CwmZlCWTo/ipYZwEDiuX80iS+dT8ef2ncMOSslBX1kMyF65TErrkNcuxW262mVuX88syy/niayYJnKkuJoHyBPCrx57oxr9s8ySwXkg/BPmiQjDQSvzLC1B/ynJudUXuUwt2qDlq+1i1N5ecPJVCUbaATVWrqvubJDCd5HXRErQqVNaYkHa9u8hM7MNEvaLy/FmZSD8E+aJC8DkDtAz/8gLUn7KcW12R+9SCXVf08xO/o5ZnVVHt5FHbx6q9ueTkqRSKsoWu21TVqrq/SQLTSV4XLUGrQmWNCWnXu4vMxD5M1Csqz5+VifRDkC8qBJ8zQMvwLy9A/SnLudUVuU8t2GWRvJ0rfguXvA3NNj1Qpy6St7OFt6RNoqLaKUJtH6v25pKTp7xsbCXHi56weoFVnyJsQVRUOyidqu5vksB0ktdFS9DSKHwhTFDVbwfdZ/d3OT/xguc/3zx61ZX9cmm35y2yYw9M+rGgxiH9EOSLCsHnDNAy/MsLUH/Kcm51Re4zDn55lEwCRfJlD1Imn/EJn/0ZVlck9eIvk5Djk59nknX5jJG97H69IPkyiufNmuXW5fNGYV0UnzOZvMVtB2nti8I9yfqodpLHy7bsG3Vdk8iP1dbK/jds8lSklhZhC6Ki2pmW4s8SNkF5+vu7R8zWxkAq3fzdz7ikrO1afelXzJ//yZ+ofZBG8rpoCVoaJZPArCrLJ77kNX+llqeR/W+YH2sc0r9BvqgQfM4ALcO/vAD1pyznVlfkPrVJUhZpyYxtur8vzYQymVTFxw1LAuWY126ySb88TgLDF1WEeqGtUcmbHBd/Vb5IzrXorB+59TTJpJakyr7wRR/DrmsStX2s2ptLTp7yEj8JFO1h1acIWxAV1U7ZkrGaHI8yTruSBMrTHm3fOP01TwJTSV4XLUEbJ/mJiNdsvpW6L60mtcHwJFDGSVwu7fa8RXbsgUX5sakj/RDkiwrB5wzQMvzLC1B/ynJudUXuMw5yeSTJkW3KaZvXbWHuvOiCgf03nnt2f/+XP/mJgX2xTv7Ska6O/JZVMnmUREr2SaIly1C+1atf7bZ/dMy/pkoCRdJWqJtM3oLC8Rd+8zi3LcmmtBMnu1o7Yd8u227rjvurN2zVLyMJzIe9uaImT2v7pUoRtiAqqp0qFD+ZDj/VQBI4WrwdNJ3kddEStHG67eHlYuMDaum3gzYW6YcgX1QIPmeAluFfXoD6U5Zzqytyn1qwm7bSPkFEJIFFUZQt1NWm2qo8/U0SOF58McxMSbveXWQm9mEiX9xIpB+CfFEh+JxhNKu9IlZZLbdaarVitd25eoWs+dKVVlKjBFbac6xcZZbbU4occvqSTtdU/MsLUH/Kcm51Re5TC3aoOWr7WLU3V8nkqShbwKaqVZ7+Jgkcr2m+HXTOt85wTwQ/fshsV5b17aFl2aC0691FZmIfJvLFjUT6IcgXFYLPGVIimVaUDcrmMsnAjFly653mxA//oznznw42Pzr4UPPDgz5n/t9BnzI/PPjAITrI6pN+uab8/33qIHP2gZ8yZx90iF0/xJz5qYPNGYf8kznt0582Z3720+Z7H9vPXPCNr/dOv7qXbK5c+YxciFV0bR3Hv7wA9acs51ZX5D61YIeao7aPVXtzlUyeirIFbKpa5elvksDxmuaTwPU3eKFbnnH+1WLv5ob7nppRZ5TKskFpt+ctshP8V5AvbiTSD0G+qBB8zjAGSa5E4UmfLD2rJBEz5oGbbzQXfGW2WXnrIrN80TyzYtFCs9K+fisWz7fLhXbbroelteWVixb5ZU9hv6yvssevWjTXLF98va1zvV3OM8/auubWG80D551hfvzvX3PnlGtauWqFTQOftSIJjPEvL0D9Kcu51RW5Ty3Yoeao7WPV3lwlk6eu24LtArW8jaoqCVx12y3mbdtta7Z93evMP//fjxlzy03m8hO/a7Z7/etd2XGHfl49LlbWJHDFDYvcvb32L/7CPH+99cw5x84x5td3udf3da96ldl6883Nansd2rGxpvkkUK41Fk8C64X0Q5AvKgSfM6REHv1J0rfa/evRW95nk8Affekws/TW683TN84zSxcvNM8utAmhaMFiu4wVyvxyYL8/xq4/a7VswSKzcv5is/L6m41ZfLt54Ic/Mhf8i7UvIeSjGXO/Z56RJ4drWL58uXn22WfNanlb6xDG1fnd735nnnzySb81ffzLC1B/ynJudUXuUwt2qDlq+1i1N1fJ5KnrtmC7QC1vo6pKAs1dd5gNnv98Yx64zxz6fz5sLj/pRHPSl/7ZfPXAA83JX/6S+a9516nHxcqTBO777j3MSUf+s9lvz3ebow460Ji773Sv74te+EJz2Ec+4upox8aqy2cC5W2hfDFMvZB+CPJFheBzhgxESZCs+s37b7rZ/PjI2WbFzQtsAne9WT5/kVm2cL55ZvFcs3TR9VaSGM6z2z09a8t6+2y5lZTJfikXyTHP2Nd/ma2zfOE8s2LBQmNuusHc/6PTzY/nhCeBPSQtXZkiE1y5cqU5/vjjzcc//nHzqU99yjz22GOu/Otf/7q5+uqr3XpAkr0VK1aY+++/39xxxx3mG9/4hvnKV75ibr/9dlcmx//Zn/2Z2Wqrrcxf/uVfmnPOOcf8/ve/N08//ZQ9dvofUPQvL0D9Kcu51RW5Ty3Yoeao7WPV3lwlk6eu24LtArW8jao8Cbz1Zre9bPFC8x177rsuvsjtM7fdMuOYpPIkgXu/653m97/6Zb9MzrXFppuaey69xPz60ovddcTHaOKLYWZqEl8b/FeQL24k0g9BvqgQfM6Qjyjvuv+Wm825LglcZJbaJPDZBXZpXz9J7JYumu+SOqfFXlLm9kXlbjnfJY9u/0J5mmgTSpsELltobermxeb+s04354cksH/++MnkTJYuXWpOOukks8MOO5gDDzzQJX1HHHGEOeCAA8w73vEOs9NOO5kPfvCD5v3vf7/527/9W7Pjjjua66691h/d45ZbbjF///d/b+bMmWMuv/xy8/nPf9687W1vM3/3d39nXvjCF7r1Qw45xNx9993+iOniX16A+lOWc6srcp9asEPNUdvHqr25SiZPXbcF2wVqeRtV5WcCV99848D2cpukSZlo5Y2LB/Zp6tpnArWfiAhK+0SwLFuexNfaAyvxY1Ug/RDkiwrB5wwp6T1zG8j+PPffLEng4WbFLQvMMzaZe3aBvH7zcyi89gttOwtdMth7OihJ4A3m/rN/YM479mh/1jWMSgIFeTvn008/7Z7iHXPMMea+++4zjz/+uFv+4Q9/MP/93//t9Mgjj5j/+I//MHPnznVPDuUJ4bnnnuOSvtNOO821deaZZ5rvf//7bl0SzPe//33mrrvuctt1wb+8APWnLOdWV+Q+1zg61ES1fazam6tk8tR1W7BdoJa3UXwxzHhNMwmcNet5/e08Px5fli1P4muD/wryxY1E+iHIFxWCzxlSIolWL9mS/yUdDG98lCTwbJsELr/Z2s/i683T7ineolySJ4Hu7aI2AZQnhMvc00CbBMrbQc86bc2TQDm5yF3S6CRQkr358+ebiy66yBx00EHmJz/5ibntttvMb37zG7PQXuvixYvNTTfd5OqdcMIJ5jqbBAqS5P3855ebM844w1xxxRXmql/8wlx11VXml7/8ZV8/+9nP3HGrVq0a+bnCKvEvL0D9Kcu51RW5Ty3Yoeao7WPV3lwlk6eibCH4D1SdtNdhlEgCx4u3g86UtOvdRWZiHybyxY0k2N0k/aHhc4aUSILTS3Lk//g7WR646WZz/j/PNitulCTOJm0LFrq3cGZVeN3l84DPLF5kFd5KapPAW24095/9fXPevw1+JnDNFQ3n1ltvNYceeqh7gief77v00kvNfvvt59a33XZb95ZQeUunPPH78pe/bK6//np/pDEf+MAH3PHyZFASvaQeeughc/jhh/PFMAB5KMu51ZX4flFz5V/OVmJvrpLJk/RjPOHLq6LaQemUp79JAsdrWklg+J3AsJQyvhimXkg/BPmiQvA5w0gkvVrl/hfpbwd90CaBF82ebVZKErhgvk0CF7nX75nF8gUwMyVP+LTyZ8TOFy40SxfKZwvl7aAyDuTzgYuMufnmXhJ4bC8J7F1XeJPqzGtKsmTJEnPdddeZt7/97eatb32r+/zf9773Pb+3x29/+1v3pFCeCgqS5O2+++7mTW96k9l5553NX//1Xw9IEkdJIvfee2/3dlKhDk8D/csLUH/Kcm4AkA+ZMMXyxYUjNp+c9OVRUe2gdMrT3ySB4zXtJ4HWJJ12fsce6v5RKssGpV3nLHIgviuWL24k0g9BvqgQfM4wkl6yJf+L9N9keMAmaD+WJ4E3y2f55pun5Cneot6Xw8jr6L4kJoWWWclPRCxzbw2Vn4hYaBPKBWaFTSrNjTYJ/OH3zfnHRF8MY9VLumZeU0D2y0843HPPPebhhx923/qZRD4v+MADD5h77723n8wJcqx8dnBcYiefK1xp211tk8Y64F9egPpTlnMDgHzIhCmWLy4csfnkpC+PimoHpVOe/p4kCXzb7v/X/VC0vB2sCq248hTz7EVfNit+8T11f1n67TXXqPefVvK6aAnaKO370U+JfTtdd+tj/XWt7iiVZYPSrr2eXNgDK/FjVSD9EOSLCsHnDCkIidZgEhiSo/tvvsmc++XZZtktC8xTNy8wf7hRkkF5i6e8LTS95OnfU4sXmP+6YYH5byv5fOHShfPc00Fz003m/rN+YH4ckkCbb61audpdw6qVMxO7LuNfXoD6U5ZzA4B8yIQpli8uHLF5beKXVUW1g9IpT39PkgSidJLXRUvQRumPX7xhfz3rW0BjlWWD0q53F5mJfZjIFzcS6YcgX1QIPmdISUgEe/S/k8XyoE0CLzzycLPyhuvNCqvl8uUu7qce5tlk8HpF862Ufe63AuULYXpaZussXzjXrFgwv/ftoPI7gccc5c7pkj+7lPQvzdtBu4R/eQHqT1nODQDyIROmWL64cMTmtYlfVhXVDkqnPP1NEli+5HXRErQqVJYNSrveXWQm9mEiX9xIpB+CfFEh+JwhA71kS/6P3/j4wA03mIu+8HmzwiZsq669xsouf2WXv/plDv3K69pofa4x119vHjr9e+ayOf/SO6l8GLAPSWCMf3kB6k9Zzg0A8iETpli+uHDE5rWJX1YV1Q5Kpzz9TRJYvuR10RK0KlSWDUq73l1kJvZhIl/cSKQfgnxRIficYUJsArbKZmTyebiVdjkgKcui5PFBfl84D4zEv7wA9acs5wYA+ZAJUyxfXDhi89rEL6vytHPHhReYLxzwEXVfGdpoww3760/Ovdbs/padBvbnle3GkdvDNMk15OlvksDyJa+LlqBVoaJsOSlp1zmLHIjviuWLG4n0Q5AvKgSfM0DL8C8vQP0py7kBQD5kwhTLFxeO2Lw28cuqPO1oSeCBe3/Q/PK0U916nCTZS+3XueLkE/vl3559eH9dyk876qv9esmyUUlgaF/aC9cUjn1q/jyz5Wab9feH6wuKry3e1tqK90+SBEobeUQSWK7EDrQErQoVZctJTTIvsAdW4seqQPohyBcVgs8ZoGX4lxeg/pTl3AAgHzJhiuWLC0dsXpv4ZVWedrQkUBK1x69d8w2N662zjls+b9asflmcUCXXpT1J2kL9UCbraZPA0F64PmnvVRtv7OpoSdsL119/YDucW2tL1sO5qn4SiMqXvC5aglaFyhoT0q74ijzYAyvxY1Ug/RDkiwrB5wzQMvzLC1B/ynJuAJAPmTDF8sWFIzavTfyyqqh26qg40RTFCem01Ob+brLkddEStCpU1piQdr27yEzsw0S+uJFIPwT5okLwOQO0DP/yAtSfspwbAORDJkyxfHHhiM1rE7+sKqodlE70dz0lr4uWoFWhssaEtOvdRWZiHybyxY1E+iHIFxWCzxmgZfiXF6D+lOXcACAfMmGK5YsLR2xem/hlVVHtoHSiv+upEEenJe2aJpW0691FZmIfJvLFjSTuZ19UCD5ngJbhX16A+lOWcwOAfMiEKZYvLhyxeW3il1VFtYPSif5GVWmSeUHsw0S+uJFIPwT5okLwOcMY5Df4glb6pfxEe5BsV4uccZX7t8JquVvCGvzLC1B/ynJuAJAPmTDF8sWFIzavTfyyqqh2UDrR36gqTTIviH2YyBc3EumHIF9UCD5nmJCQIPYk/3rreYnb88RFwwR9/MsLUH/Kcm4AkA+ZMMXyxYUjNq9N/LKqqHZQOtHfqCpNMi+IfZjIFzcS6YcgX1QIPmcYQ7pMS37CfZWt01NRhPPKE8jwFFJaj64lVIE+/uUFqD9lOTcAyIdMmGL54sIRm9cmflkV+xBUjbTXAaGiJWPNu4vMxD5M5IsbSWx7vqgQfM4wAsmu5K2Wy7zC2z8TWdfAZtiQZZy4xQr7kmUzkdKeVvePcC2u7j111I/qNv7lBag/ZTk3AMiHTJhi+eLCEZvXJn4IISSaZF4Q+zCRL24kZc2TfM4wlsFEa3Br1fLlPhVbYVav7CWKq1fZMpekhQQunRyrbZq32iabq23KJ/J7pL1VK23bbt0VOWwRJPAvL0D9Kcu5AUA+ZMIUyxcXjti8NvFDCCHRJPOC2IeJfHEjKWue5HOGiZDkbPnKlf0kbvgzvWKQ9leu8M8EV/unk5I0Qh//8gLUn7KcGwDkQyZMsXxx4YjNaxM/hBASTTIviH2YyBc3krLmST5nGIGkc5JwLfeSpEuWUmbTL8nD7PL+3ywxR3/rh+a7Z/3SfOfsX5lvW51w1jXm+LOv6S1jhTK7HCgPZU6/stvSxq/Mt2y56KRzfmXmnHihOfXsn7pzy5VIQijfDhquB3r4lxeg/pTl3AAgHzJhiuWLC0dsXpv4IYSQaJJ5QezDRL64kZQ1T/I5wwT0nvnded/D5vgzf25+/fuV5o5HV5i7lxhz96OrzJ2ixzLI1r/70ZVuecdjtt1HjbnLtbPa/PpJYy5Z/LA58Uc/d+dcg1zD+GePq1etck8thVUrB5PGUC64t7EmtoVV8fF2fVQb08a/vAD1pyznBgD5kAlTLF9cOGLz2sQPlasXrr++2f0tO6n7gq44+UTzvFmz1H13XHiB2XKzzdR9RcsOE/PL005V9yU16rrknh+/9hp13zhNciyaTJPMC4L/CvLFjaSseZLPGVIzM82RZ3GDSeCdjy63SWBI5lZk1t2PLnPLOx5bbRPK1f12XBJ4g00Cz8qeBErCJkmgkEzwgsJ2WIZ1IWyH5C9sx3WE5Pa08C8vQP0py7kBQD5kwhTLFxeO2Lw28UPl6cC9P2hOO+qrZqMNNxxIriTReWr+PHmtXXmcUElZ0BcO+Eh/33GHft6Vfe2fDprRjixDEnnyl4509WQZ6ol22XZbV/6B3f7GbX979uH984ikLJmAhWP+4W9375cFJa8rrpNs52Pve6+r86qNN+6XiX7y7RNcuVx7qB8fu8Mb3zDjPlB5mmReYA+sxI9VQVnzJJ8zpKaXRsU0IwlM8tvf/tZcfPHF5txzzzUXXnih+elPf2rOP/98c95555lf/vKX5r//+7/NyhUrzPLly838+fPNBRdcYH784x87SZ3z7HFnn3NOf/vKK680Tz/9tG99+viXF6D+lOXcACAfMmGK5YsLR2xem/ihcvTk3GvNeuus09+2L0F/PZkkJZ+qxXWT+0JiKetxO8nz7bbDDv3EU9rbf889+woJY9yWKLQXEtRQril5XfI0M2yPakf2PXz5Ze764nPH++d85tNjn56i4jXJvMAeWIkfq4Ky5kk+Z0jNzCSwl3zVPQk89dRTzd///T+Yww47zLzvfe8z3/jGN8zs2bPNEUccYXbZZRfzute9zuy99952/6Fmn332NnPnznXHPfroo+ZDH/qQ+d3vfue2hd///vfm1ltv9VvGJX/HHnusufHGG33J9PEvL0D9Kcu5AUA+ZMIUyxcXjti8NvFD5ch2+cC2JEkhSYuTN1EVSWAojzUsCZT1YccEyXXFb2GVtkLiNqqdsB3XjxWOlesnEaxWk8wL7IGV+LEqKGue5HOG1DT1SeAPfvADc84555g//OEP5utf/7q54YYbzCc/+Umz7777mt1339284Q1vMB/84Adtovj3LkEMb+tcsmSJ+fCHP+yeFp5xxhmu/kte8hLzp3/6p+aQQw4xp5xyimtX2gxJYB3eEupfXoD6U5ZzA4B8yIQpli8uHLF5beKHEEKiSeYFsQ8T+eJGUtY8yecMqWlqEnjGmWeY17/+9WbTTTc173rXu9xbPLfffnuz9dZbm9e+9rVmo402Mm9605tcnX/8x390bwMV5Engnnvu6ZJIecvnNddcYxYtWmQWL15srr76avPzn//cXHLJJebggw925XXBv7wA9acs5wYA+ZAJUyxfXDhi89rEDyGERJPMC2IfJvLFjaSseZLPGVIzM9XqlQwmgSvMXTYJvMslb8vdti59312ufGU/CbzLl//6CZ8E5vh20O9973vm+9//vvss4Fe+8hVz1VVXmW222cZ85CMfMe95z3vMX/7lX5oDDjjAvVV0v/326yeBgiSM8hnBRx55xOnhhx82119/vd9rzF133dWvH758Ztr4lxeg/pTl3AAgHzJhiuWLC0dsXpv4IYSQaJJ5QezDRL64kZQ1T/I5wxiSSdaa7fAT7XfbJPBbP7jc/Pp3q8ytjxlz62+NTeJs8vbYsgx61tzx2+X22NXu+DuXGHP7o1a/XWmXK829Ngm8bOFD5uQf/cyfNT3yVk55yvfqV7/a7Lzzzi4RlCRwhx12MFtssUX/SeB2221n3vKWt7j68k2gP/zhD83pp59uli1bZk488UT3VlHhqaeeMr/5zW/MwoULzdlnn+3qyDFx8jhN/MsLUH/Kcm4AkA+ZMMXyxYUT2z5CCGny7iIzsQ8T+eJGUkR/aPicYQzJp2xrksDwS3n32CTwxO9fZu7/3cr+k7u7l6w2v37EZJK89fPux54xv370aXPfI8vt8lmbHD5j21xm7vNJ4Ck+CexdRfg/eY2DyGcBV6zopazyRS6ros/t3XLLLebkk092dWIk8XvyySf7n/GThG+Pd7/bJZG77rqr+0IZ+Qyh1JGE8b/+67/cMXXAv7wA9acs5wYA+ZAJUyxfDADQGNrkx8qaJ/mcYQy9RGuQ3nY/CbxXksCfm/tcEpj8LKC8vTNWKBu2Tz4XuNrc+xubFC4x5rbfypPF1eYu+UzgoofNd8+63J1zpb2GlfbfKncVouQ19pDSlSttvei3AgOS4MVf5CLrUjeJqyfHRnUD7rcDfbvJ9qaFf3kB6k9Zzg0A8iETpli+GACgMbTJj5U1T/I5wwhcCuUVkhtZ9p69hTc/3v3AEvOdM68ytz+6ytxuk7bbHpO3cq40d9jE7g63DJLtUBaWKxJly1wi+GubBN5h27v1sRXmNru8+3FjfrLoN+Z7517lzyrY65C3YE6YeA1L3OqQ0OXBv7wA9acs5wYA+ZAJUyxfDADQGNrkx8qaJ/mcYQSSBEkCKG+lDAmRLOUpnCSBvWTwrnt/Y4797sXm+rseMVffssT84tZHzS9sJviLW3+bSVfcZiXrt/zW/Oqm39m2pPwxc5Vt61d3/9b8vytuNyeddYVchFllTyw5miRq8pQP1uBfXoD6Ezs3hND0FSZNQVodhBCqs9rqx/zUqRB8zjAGeatjSAAFWQ9vq5Q3ZNqE0BYtW77CPLNsmdPSZcsn1rNea8qk7eVm+Up77pXL7CX4z9/Z/G91uBxw+JcXAAAgG/HESeSLAQAaA35sPD5nyIgkgfLkTfSs3bTJWO+RnHxAzpZZSdlA8ijLWIK+L5T2VuQ/edPpCrdHnkdK0mnMUrtrmVlls79lNikkBxzEv7wAAADZiCdOIl8MANAY8GPj8TkDtAz/8gIAAGQjnjiJfDEAQGPAj43H5wzQMvzLCwAAkI144iTyxQAAjQE/Nh6fM0DL8C8vAABANuKJk8gXAwA0BvzYeHzOAC3Dv7wAAADZiCdOIl8MANAY8GMAAAAAGUhOnhBCqOny7g0AAAAANJKTJ4QQarq8ewMAAAAAAAAAAAAAAAAAAAAAAAAAAAAAAAAAAAAAAAAAAAAAAAAAAAAAAAAAAAAAAAAAAAAAAAAAABjg6KOPNl/72tee8JuyfYQvO8gXAQAAAAAAQBuwid5iSfj8Zh9bdqxWDgAAAAAAAA3m61//+usl2bM60xc57PZ9JIEAAAAAAAAdwSaA7i2hfhMAAAAAAADayrHHHvsCSQCt9vBFAAAAAAAA0AZmz569tk/4Yh3hdwMAAAAAAAAAAAAAAAAAAAAAAAAAAAAAAAAAAAAAAAAAAAAAAAAAAAAAAAAAAAAAAAAAAAAAAAAAAAAAAAAAAAAAAAAAAAAAAAAAAAAAAAAAAAAAAAAAAAAAAAAAAAAAAAAAAAAAAAAAAAAAAAAAAAAAAAAAAAAAAAAAAAAAAAAAAAAAAAAAAAAAAABMhSutzuytjuQgK6m7oduqlp2sjNUpbqt+vMDqdiu5RtEJVmmRvpd+HUfogzRkqQsAAAAAAB0iJC3jSFuvDNa2knPv6rbqxeutQt9IIndftJ2GcXXl3p+wStNmlroAAAAAANBBjrKSZEGeGg0jJGDnuS2I0ZItSVSl7Fi3NZwlVtrxgbAv1jCy1AUAAACYNgusZL6yrtt6znPebiXbC91Wei6wOqK3CgBpEWOTZGQY8jZFqSOJIKzhQ1bSL9rbYqVcNIzNrGT/R/1SQ8rlrbfCuPay1AUAAAAokzC/Ef1CChJI0hY/WFjLKu/cZVQCKO3+qrcKADHjEoZR+ze2krc+ij4nBQpilMEwJVm61CokK4H3WYV2kk/O5DN2crycS0OeXsoxcqzUG/Y5xfg6JJmV6wjH5GGp1bB+kc8rjutTcXwhiRyH1ElTT8hSFwAAAKBIZA5yU2/V8VUrKXuR2+rxuNXWvVXHy62W9VYzMyoBDO9iA4AEknyJccgyiSRTsk9L7hZbyb6ktrGKCeXhrZEi+axcIJTFir/wRRI/KUu+TVUSw+RxQdrbVcO++K9SsbIy6rhwr/IZwSSSdIbjSAABAACgLUgy9lRvdYBjrOIEr6oEEABGIAmDPNFKEpK8JPIET8olgYnRnorJdlDybaTD2o+TyGEJYGhTEsGYkGBJohcT6ifvU5JbKR/3mb0kckycyMaEvzgl+yd8Q2d4mkkCCAAAAG1B5h9xYheIn8TJWzJlXb5BXda3twqfB5Ttd1pphDaCwh/7JQE8zSreF64h+dZSqfseq7guySN0lvCFJEmkTL5ZMomUS/KWJDwx3MNt9ZBtkfYtnmHfKLQEMLzFUnvCJmjthrI8n9nTkPqSbA5D9icTQCmLn26SAAIAAEBbkPlH/FbPQEjEwhe+5HkCKMfE71Y7yy8lqYuP3c8qPIXUEsC4rpyXORN0lvBzBvFTs/C0athbL5PlAdkX/xaebIs0whPAUb+dpyWAo9oUpL3k/lHHjGtPQ+rLX680Qh/FCaBsJ58+kgACAABAW5D5x6gEMDAuAZTkTp4Gik6SAoscHxLImORbQOO2tAQw+cRvWLsAnUAMIDaS8JtySYZ9hi5W/GQslA0j/u087alingQwfK4xfto36phx7WmMOiYk1OGp57C+JAEEAACAtiCJnfaWSnmbZzw3yfMEUI4nAQQomPjLSQRZ197iKG/vlH3Jz94NQ+rG7Q7jOqtQN0728iSAIUmNGXXMuPY0Rh0Tn1+uO9Qdp2GM2x+TpS4AAABAUcjbL7U5iJTFiVfeBDB+C6h8u6iQNQGMz5NMTAE6R/hwrRhReDKV/NIWIby9MfklK8OQulmMK1k/TwIYfrswZtQx49rTkLd/DjsmPNUU5GmgJNKaQhthexhZri9LXQAAAIAi+YZVmIsEhbdxBvIkgFJHazNrAniGVdxOfB0AnSQYw6jfuBNCvTRkqSvEyZOgJYDhLZ7DfntQ9iV/3F7K4nZjRu0bRnibZ/KtBIKUaz9FkYS3gAIAAABUg/YWUIDOIz+FEBKIo6RgCCEBE8Wfs8vz1sv4G0Pl5x+kLP7mUS0BFEKSqv1moCjJsHJh1L5RhGsIT0Pliem45DmGBBAAAACgGkgAAYaQNoGIf9g9VjJxDOUa8XFByd/WG5YACvEXyARpP1shhP0ao/aNI3zBSyztrbMaJIAAAAAA1UACCACFEv94PQAAAAAAAAAAAAAAAADUBXlrQHgb5TABAAAAAAAAAAAAAAAAAAAAAAAAAAAAAAAAAAAAAAAAAAAAAABMzuzZs+W3NgEAoCCsX+W35gAAAKBeSOJnZUS+CAAACuDwww+/UnyrLH0RAAAAwHSIE78gvwsAAAogJIBBJIIAAABQOXYSMiPxC/JVAACgAJIJYBCJIAAAAJSOnXQMTfyCfFUAACiAYQlgEIkgAAAAFI6dZIxN/IL8IQAAUADjEsAgEkEAAACYGDupSJ34BflDAQCgANImgEEkggAAAJAZO4nInPghhBCqj0gEAQAAYCx20kDihxBCLRKJIAAAAMzAThJI/BBCqMUiEQQAAAASP4QQ6phIBAEAADqInQSQ+CGEUIdFIggAANABbNAn8UON0qabbmr++I//2Gy00UbyDbNOhx566ECd3Xff3ZV/+tOfdttSN9QPx77iFa9Q62pKnnOzzTbr79tggw3Mhz/84YH6a6+9dr89OVaOeelLX+qWcT2E6igSQQAAgBZigzyJH2qkJKGKE6599913RmIl21IeJ2oiLVkbVjdWfM4vfvGLA+cblwAmrw2hpohEEAAAoAXYoE7ihxqtZAIoskO7n3AddthhZtasWf3yuF4yWRtVN9akCWByP0JNEokgAABAA7FBnMQPtUJaAhgnYdtuu63Za6+9ZpRr26PqxpJzvva1rzVveMMbZiR04xLAkDCKPvaxjw3UQ6hJIhEEAABoADZok/ihVmlcAmiHfb9c3topn73T6olG1Y0Vn/Of/umf3HHhc4fjEsCgcFyyLkJNE4kgAABAzbEB+0PJAI5QU6UlgHaYu+WBBx7o1pMK9eJkbVzdWMlzypPDHXfcsb8vPEUMknaSX0wjio9DqImyyd8TdvkCO8YBAACg7tigTSKIGq84GZO3V8rTtvAFLloyJkmf9jbPcXVjJc9pzWlGIhkSvne84x3muc99bn/fu9/9brcuio9DqEki8QMAAGgwNoiTCKLGSpIxO4yd5GcZJMkK+6QsriuSt3aGL3qJE8BxdWPF55TkLvlZPnl7pySisn/LLbcc2Lf99tsPPQ6huovEDwAAoEXYoE4iiBBCaIZI/AAAAFqMDfIkggghhEj8AAAAuoQN+iSCCCHUQZH4AQAAdBg7CSARRAihDojEDwAAAPrYSQGJIEIItVAkfgAAADAUO0kgEUQIoRaIxA8AAABSYycNuRJBfzgAABSATeKu1HztKJH4AQAAQG7sJCJTIugPAwCAAsiSAJL4AQAAQGHYSUWqRNBXBwCAAkiTAJL4AQAAQGnYScbIRNBXAwCAAhiVAJL4AQAAQGXYSYeaCPrdAABQAFoCSOIHAAAAU8NOQgYSQV8MAAAFECeAJH4AAABQG+ykxCWCfhMAAApAEkASPwAAAAAAAAAAAAAAAAAAAAAAAAAAAAAAAAAAAAAAAAAAAAAAAAAAAAAAAAAAAAAAAAAAAAAAAAAAAICO84od328QQgghhNBw+WkTAEDz0ZwcQgghhBBaIz9tAgBoPpqTQwgh1C39r1du5aTtQwiRAAJAi8CxtQ55LXk9ASAr+A4ABeZJANA6cGytg0kcAGTlIKvgO2QdADzMkwCgdeDYWkeYxAEApCX4DfwHQIIWzZMusDqitwoAnYYEsHUwgQOALMRP/4J4CgjgqWCe9LhV0gZfY1U0oxLAl1vJedd1WwDQbkgAW0cIHgAAaQg+IykAsJQ8T5J2z+ut9nm7VRnn4wkgAPQgAWwd8lryegJAGrSnf0E8BQSwlDhPCk/dNOSpYEjWJHF7n9VXraT+aVbjCEnk7W6rR0gAP2qVbGctq/hapO7WVqHuL6wAoC2QALYOeS15PQEgK/gOAIUS50n7WT3VW52BJGDhyaCsy/k/67Z6yWHyqWHMMVbLeqvP2cgqrI9qR0sA47oPWIV2AKDpkAC2DnkteT0BICv4DgCFEudJkqiNSgAX9lbdevzWze2tRiVjcq0v6q0OMKodLQGM6yb3A0CTIQFsPGv7ZUBeS15PAMgKvgNAocR5kjwBHJbIyRO3+C2gcTImbx0Nx0m9YLshYRx2raPaGZcACrKfL4kBaAMkgI3mc1by2skyINu8ngCQFXwHgEKJ8yT5A660m0yqQjIWnuKNStw04mNjJkkAeQII0CZIABtLCBxBS62EsA0AkAV8B4BCyfMkSbSk7de5rec8ZzMr2Y4/45c1AZT6Yb98BjBce9YEULYPdlu9zwsOe7sqADQNEsBG84SVvHaashK+MezbVuLok3+RlLI87QJAM8jrOwBaTQXzJEn6FljJOeRbOze2ismaAArhG0Nvcls9siaAUvcbVlKe5ptHAaApkAA2nvA20KSyMO6tHfJBcflrZNZ2AaA55PEdAK2no/OkZLIIAG2CBLA1yFtAwwQuaFerNEiCN8rRh/ERlgDQPoLfAIAIEkAAaB0kgK3iKKswiQuKfwR2GPJV1FJXfuj1ZL8e3gIqQUB+DFaQcgBoJ8FnAEAE8yQAaB04ttYRJnFJbWM1DEkA47/0yVdTy1s+5Ytm4g99SzsA0E6CrwCACOZJANA6cGytI0ziTonWRddZDSMkfIGwLW8NjdsI4neAANpHsG8AiGCeBACtA8fWOuJJ3Aus4u1hhC+BkcQurGu/ITSuHQBoLml8BUDnYJ4EAK0Dx9Y6tElc8iulNcJvBclXQr9GChQYJwDtRfMdAJ2HeRIAtA4cW+tgEgcAecB3ACgwTwKA1oFjax1M4gAgD/gOAAXmSQDQOnBsrYNJHADkAd8BoMA8CQBaB46tdTCJA4A84DsAFJgnAUDrwLG1DiZxAJAHfAeAAvMkAGgdOLZWcKxVmLwlFf++HwDAMILPAIAI5kkA0DpwbK0hTN6SAgBIAz4DQIF5EgC0Dhxba9CeAvL0DwDSEvwGAEQwTwKA1oFjaxVhAhcEAJAW/AaAAvMkAGgdOLZWET8F5OkfAGQh+A4AiGCeBACtA8fWOpjEAUAe8B0ACsyTAKB14NhahzwF5OkfAGSFBBBAgXkSALSOqhxbOA9CbZEf2gBtgQQQQAGfDwCtoyrHJue489HVCLVCTAaghZAAAihUNU8CAKiMqhybnEObSCPURDEZgBZCAgigUNU8CQCgMqpybHIObSKNUBPFZABaCAkggEJV8yQAgMqoyrHJObSJNEJNFJMBaCEkgAAKVc2TAAAqoyrHJufQJtIINVFMBqCFkAACKFQ1TwIAqIyqHJucQ5tII9REMRmAFkICOIYQL1G3/F8X7xkAWk5Vjk3OoU2kEWqimAxAC5Exzbgegdj9kkce6by65v/kfvH5ANAqqnJscg5tIo1QE8VkAFqIjGnG9QjE7rWEqGvqmv+T+8XnA0CrqMqxyTm0iTRCTRSTAWghMqYZ1yMQu9cSoq6pa/5P7hefDwCtoirHJufQJtIINVFMBqCFyJhmXI9A7F5LiLqmrvk/uV98PgC0iqocm5xDm0gj1EQxGYAWImOacT0CsXstIeqauub/5H7x+QDQKqpybHIObSKNUBPFZABaiIxpxvUIxO61hKhr6pr/k/vF5wNAq6jKsck5tIl0Udp6ux3D5AWh1Fp/gxeo42mcmAxACwl2AUMQu9cSoq6pa/5P7hefDwCtoirHJufQJtJF6eOHzDY77/Zec9F1SyaSvVS1PKuKaGfzrbYzB33h39R9WVTEtZx07vXmJS/dSN2XRdKGtKXty6Ii7kn6duvtdlLH0zgxGYAW4uyqtwoaYvdaQtQ1dc3/yf3i8wGgVVTl2OQc2kS6KJEADlcR10ICOCgmA9BCnF31VkFD7F5LiLqmrvk/uV98PgC0iqocm5xDm0gXJRLA4SriWkgAB8VkAFqIs6veKmiI3WsJUdfUNf8n94vPB4BWUZVjk3NoE+miRAI4XEVcCwngoJgMQAtxdtVbBQ2xey0h6pq65v/kfvH5ANAqqnJscg5tIl2USACHq4hrIQEcFJMBaCHOrnqroCF2ryVEXVPX/J/cLz4fAFpFVY5NzqFNpPNKvr3RNotQJm2+5bYkgAA6wU5gCGL3WkLUNXXN/8n94vMBoFVU5djkHNpEOq9k4s7TMV1F3JP0rTyB1PZlURHXIiqiHXlC/IH9D+5vkwACDODsrLcKGmL3WkLUNXXN/8n94vMBoFVU5djkHNpEOq9IAIeriHsiARwtJgPQQpyd9VZBQ+xeS4i6pq75P7lffD4AtIqqHJucQ5tI5xUJ4HAVcU8kgKPFZABaiLOz3ipoiN1rCVHX1DX/J/eLzweAVlGVY5NzaBPpvCIBHK4i7okEcLSYDEALcXbWWwUNsXstIeqauub/5H7x+QDQKqpybHIObSKdVySAw1XEPZEAjhaTAWghzs56q6Ahdq8lRF1T1/yf3C8+HwBaRVWOTc6hTaTzigRwuIq4JxLA0WIyAC3E2VlvFTTE7rWEqGvqmv+T+8XnA0CrqMqxyTm0iXQaPXettcLEBKHUetu7PkACCJCeYDswBLF7LSEKeujBB10fbrLJJm656667qvVGSY7Tyuukrvk/uV98PgC0iqocm5xDm0in0cs22tgc9c1zBibzeWQvQy3PojY+GZOkKE6M8qpO9ySvUfIJMQkgwEic7fVWQUPsXkuIgg444ABz8MEHq/vSyp5GLa+Tuub/5H7x+QDQKqpybHIObSKdRiSAw1VEO11KAKXtpLQxN05MBqCFBJuAIYjdawlR0Jw5c8ysWbMGyubNnWvWXXfdgTqSJEq5bdLsvffe5sUvfrHbJ+uh7LRTT3VlG2ywgXn3HnuY7bbbrt+2HLvTTju5urJflm/bZRe3X9aHJaGyL9QJTyfP//GP3fab3vjGgfJR6pr/k/vF5wNAq6jKsck5tIl0GrUxAWyjiuhfURHt8AQQIDPO9nqroCF2ryVEsSQRs1XNe97znn6ZbId1Sdjuvece97Twkosv7pcHxXVDshi2pW05RhLAONGUNk844QS3fv99981IQkXSlpbcxecL23J9cVlSXfN/cr/4fABoFVU5NjmHNpFOIxLAZqiI/hUV0Q4JIEBmnO31VkFD7F5LiDTFT+wkcZMETT4jGMrC5wVlO064pCysh2QyVkgAN9988369l73sZeaWm2926/E5YoXkMS7T6sZtDVPX/J/cLz4fAFpFVY5NzqFNpNOIBLAZKqJ/RUW0QwIIMJa1/TLgbK+3Chpi91pCNEz2ELeUp3LyNtDkEz3RwgUL+vVE8XpIHMN2UN4EMNlWSELjMnmaSAI4iNwvPh8AWkVVjk3OoU2k04gEsBkqon9FRbRDAggwks9ZyRiWZcDZXm8VNMTutYQoSD7LF57mJT8PaA/vv/1TtnexCVm8T1sPnxMM25IshvKsCWD4rF/Y/j8f/rBbyjUd941vuPUzzzhDPTaprvk/uV98PgC0iqocm5xDm0inEQlgM1RE/4qKaIcEEGAo8uTP2ZnXUishbGdlI6vHreTYz0pBAik/r7fabMTutYQo6IbFi80WW2zh+jH+DKDogAMOGPgyGEnUJPmSur+48sp+uSRhUhae1v3y6qvdtuiwww5zZXkSQFFoW36mIn7b6U7+C2W23XbbgfrD1DX/J/eLzweAVlGVY5NzaBPpNCIBbIaK6F9REe3IayTtJEUCCOB4wmqGfXhlYXurZb1VlWOsDrHqRAI4SsPeztlEdc3/yf3i8wGgVVTl2OQc2kQ6jUgAm6Ei+ldURDs8AQQYS3gbaFJZkCd/6/ZWZyBPGp+ykiSx0wmg9lm7Jqtr/k/uF58PAK2iKscm59Am0mlEAtgMFdG/oiLaIQEESI28BdTZXaRdrdIgdT/ql/IkME4GQ3LY+QSwbeqa/5P7xecDQKuoyrHJObSJdBqRAA6X3FOa+zrpnHmuXpwAFa0i+ldURDskgACZOMrK2V6k263GIfVC0hc+WyhI0ndEb5UEsG3qmv+T+8XnA0CrqMqxyTm0iXQatSUBDEnYNjvs2i8796r7XVny2rQyTX/0/A3MWrNmqftipUkAZf8rX7W5ui+N0lxvGhXRDgkgQGac7SnaxmoYsj8mbMvyV17hC2Ius2o0YvdaQtQ1dc3/yf3i8wGgVVTl2OQc2kQ6jdr0BFCuIU7YDjxsjisT/eDSW1zZ+dc85LbjRHFSpU0A115nXXVfGsnxWnlWFdEOCSBAZpztWZ0SrYuusxqG7H9Rb/U5a1nJdhKeALZMXfN/cr/4fABoFVU5NjmHNpFOozYlgPLELr6OF73kZW5bFJKTkKzNOekSt/13f//Jfh1RnECGsuR2LGkntLnjLu+esU87LpRnkRynlWdVEe2QAAJkJti/8AKreHsYktxJHXnSJ8v3WSUhAZyC4t8cLFpd839yv/h8AGgVVTk2OYc2kU4jSQBtE41QnHBo2uP9B7h6ceIlT/pkGZ6+hTqyHhK3Xd75frd95L+d6bY/c+QJ/eND3XDc8T/4hfnejxe69WRSGfZ/5biz3Hr8xC+5nUahzTqKBBAgE8F2Yjb2S7CI3WsJUVmS3w7M+9MRJIDFIfeLzweAVlGVY5NzaBPpNGrTE8DwmT9J+sK6JIPhSaDUiT/XF5K6pMJn9cK2rG+9/dv662FfeBup9hZQ2U4+TeQtoOnEZABaiLO93ipoiN1rCVFZIgGsB3K/+HwAaBVVOTY5hzaRTqM2JYAiuQ5JtMLn/6QsrMvnAGUZEreQ1CUVngiGbVmPn/IFhSeNJIC9BFDajrX+Bi9Qx9w4MRmAFhLsAoYgdq8lRJNo3ty5ZqeddnJ9L0mbLKX84osuMltssYXZdtttzd577+3KZL/8oPwmm2zSTwzDMfGxoZwEsBjkfvH5ANAqqnJscg5tIp1GbUsAw9M+WYYELDwN3Gvv/+uWIXELTwDDF8QkJftEsh6SxfA5w+NO+3m/HglgLwH8+CGz1TGWVUwGoIU42+utgobYvZYQTSJJAGdZPxy2JcG75OKL3XryCaAkdfH2nDlzzK677jqwvfnmm/frkgAWg9wvPh8AWkVVjk3OoU2k06htCWD8zZ/xN32Gsvg6wzeCJhV/hlAk68mnha/e/E3mpHOvd/vSJoBBof0skuO08qwqoh0SQIDMBPuHIYjdawnRJJIEMCRtojjp0xLAOKmLk0XR/ffdZ9Zdd121bpHqmv+T+8XnA0CrqMqxyTm0iXQatS0BjJO6+MleSOC03+Lb6i97bxESfehjh/XL488LDnu76DlX3tv/UphPHX6ceqwo1AnHhPK0kuO08qwqoh0SQIDMBPuHIYjdawnRJJo0AYz3S1skgMUj94vPB4BWUZVjk3NoE+k0alsCWJbk/uK3cMp1SlmeZC6PiuhfURHtkABCHQj+tQmyl+uk7aujXAdXjJxXS4gm0agEMPkWz2RSJ8fayxrYH54IkgAWxzTHHABAKVTl2OQc2kQ6jUgA00l7Ahi+LKYKFdG/oiLaIQGEOjCJ36taYhtF2UfZmpb9yXm1hGgSjUoARZLIhc8IakndWT/6kfOZol9ceWW/nASwOOR+u3bPANByqnJscg4tkKcRCWAzVET/iopoJzz9TGrr7XZUx1hWMRmANEzi99BwTcv+5LxaQtQ1dc3/yf127Z4BoOVU5djkHFogTyMSwGaoiP4VFdGOvEZH/fvJ6ngqQkwGIA2T+D00XNOyPzmvlhB1TV3zf3K/XbtnAGg5VTk2OYcWyNOIBLAZKqJ/RUW0QwIIdWASv4eGa1r2J+fVEqKuqWv+T+63a/cMAC2nKscm59ACeRqRADZDRfSvqIh2SAChDkzi99BwTcv+5LxaQtQ1dc3/yf127Z4BoOVU5djkHFogTyMSwGaoiP4VFdEOCSDUgUn8HhquadmfnFdLiLqmrvk/ud+u3TMAtJyqHJucQwvkaUQC2AwV0b+iItohAYQ6MInfQ8M1LfuT82oJUdfUNf8n99u1ewaAllOVY5NzaIE8jdqYABZxLaIi2vnA/gc7afuyqE73RAIIdWASv4eGa1r2J+fVEqKuqWv+T+63a/cMAC2nKscm59ACeRo9d6215PoQyqT3fGB/dTwVISYDjeTlVvK6/covz7MKbG8V79vaamIm8XtouKZlf3JeLSHqmrrm/+R+u3bPANByqnJscg4tkCPURDEZaDxrW8WvYbye3Jcb/F45mpb9yXm1hKhr6pr/k/vt2j0DQMupyrHJObRAjlATVdVkINhnl+W7omjWsgptS8K3rLfap5DzyvVr4wdNphLHxUjkvFpC1DVNq/+nhdxv1+4ZAFpOVY5NzqEFcoSaqKomA3KeZxct6KxK7OdjrMJbQOWtoU/1VvvIedftreYHv1eOqrK/JHJeLSHqmqbV/9NC7rdr9wwALacqxybn0AI5Qk1UVZMBOY+WGHVFJfVz+CxgQJ4AagngxOD3ylFV9pdEzqslRF3TtPp/Wsj9du2eAaDlVOXY5BxaIC9CtnmEMksbS2lV1WRAzqMlRl1RCf2sfb4vfjtooJDzlun3uqyq7C+JnFdLiLqmafX/tJD77do9A0DLqcqxyTm0QF6EbPPqTwFkURt/3mHn3d7bzp93KOgnQbSxlFZVTQbkPFpi1BUV3M9aohd43Gqf3urA20Mnoky/12VVZX9J5LxaQtQ1Tav/p4Xcb9fuGQBaTlWOTc6hBfIiZJtXJ/lZRAI4XHW6JxLAbqngft7Pyr32keKfe1hgJWUnua0CKNPvdVlV2V8SOa+WEHVN0+r/aSH327V7BoCWU5Vjk3NogbwI2ebVSX4WkQAOV53uiQSwW6qqn8uiTL/XZU1rXMh5tYSoa2q6XWZF7rdr9wwALacqxybn0AJ5EbLNq5P8LCIBHK463RMJYLdUVT+XRZl+r8ua1riQ82oJUdfUdLvMitzv/5+9N4GbpagO9v+/xEsEEpYkGtQPRYMKQVBACRCCgBvEiCgaQMEIRiGKQgRRkXAJKqhfgCgqEFkEZREUZBFQw77DZZF9FVAiYL6AC3LlbvWv09NnqLff0zPd/Xb3VPc8Dzz3nenqrt6r68yZ7pm2dQaAntNWwybzsC7kdeirNzv5ZSQAzDemdSIAnC7b2s5N0WS7N81O6riQ+VoB0bTZ9fOyLLK+07bOANBz2mrYZB7WhbysvirE0n5w74MJADtog9v5Nd7G92Fd7R7OtK3zL4vM1wqIps1Jbf9JIes7besMAD2nrYZN5mFdyMvqq3LHnXn9jM58FaUea3gZJbsmWTarrIx1LItYRz2yPpINtcrKWMeyyH6uo56/eMHqs7KGUq91fBW1rc6AzMcKjKbFhrbzEd7kGPA+KQOaoq52D2fa1vmXReaLA9NNMhVM4zoDQM9pq2GTeVgX8rL6qggAc6yjHgLAYrbVGZD5WIHRtNjQdl7DmxwDqRd454IElCZ1tXs407bOPwBBjjeOOQDoFW01bDIP60JeVl8VAWCOddRDAFjMtjoDMh8rMJoWG9zOe3uT4yD1/d6qPOiVOmb9dmBd7V4R73xkkVtnvQ2T9Vn/dZu6Wx58yhyvD7Z1/gEIcrxxzAFAr2irYZN5WBfysvqqCABzrKMeAsBittUZkPlYgdG02PB2vsSbHAupkhmsggaA6jAQrKvdG+dF1z+QzFuDvktvejh5f80dj88aN+uue3zcHX70KWZZUeuoo4xtnX8AghxvHHMA0CvaathkHtaFvKy+KgLAHOuohwCwmG11BmQ+VmA0La76klcl+6qjnlVXuzdOmV822DvkiGPdOutukLyWAFFfi1u9+W1JwCbjhMssZSutvGqSTZS/8+YtNwwqy9TRtG2dfwCCHG8ccwDQK9pq2GQe1oV8nH5SxNKGwR4BYHfteAD4aNV2r6wyv+ywWx9+ejg8L3iT19nsnQZ+8lozi/q6aB1N29b5ByDI8cYxBwC9oq2GTeZhXcjH6Sed0XGvah31TEt2rIp1LIts2yZ+i5EAsLu2tJ2f602OiVT5SmcZsl8BfdQrdVZu98oo2TqZ76jhZQPA8P5BqUPeEwDCtCLHG8ccAPSKtho2mYd1IR+nn3RGx72qddRDAJhvHctCADgbmY8VGE2LbW1nz8be5LhIzX2yp4EGgMPAT6na7pXVz2rWMAnYll9hxeHrqgGgvJevlxIAwrQixxvHHAD0irYaNpmHdSEfp590Rse9qnXUQwCYbx3LQgA4G5mPFRhNi21t55Tw9wHLzPca74zAT6na7pX1hS96sdtz3/mzhmlQFgaD2TIrADzjgmuH7/1qJH/L1NG0LR8XMOXI8cYxBwC9oq2GTeZhXcjH6Sed0XGvah31EADmW8eyEADORuZjBUaT8u5zz3Hrr7VW8vqpG65zP/j612aNU6dtbecAyeZJJq8WqrZ7VfSzS5SfgJC/YbZOy+XePvm7ywc+OgzYTjn78mSYBH7yXv7Kz0nouNvvtFvpOpp2AscFTDFyvHHMAUCvaKthk3lYF/Jx+klndNyrWkc9BID51rEsBICzkflYgZGlBGR+kmGAJv7q2qvdissvP2O8uRgGgFec9E33qjXXnDVOnba1nZuiars3SSWIC78CGqNdPy6gW8jxxjEHAL2irYZN5mFdyMfpJ53Rca9qHfUQAOZbx7IQAM5G5mMFRpYSAEqw5ydzj1z042RYkwFgG7a1nZuiars3SQkAAWYixxvHHAD0irYaNpmHdSEPXWnlVdxGm24xQz9pEhQUde11X+tW/JOVZw0vW88qq/65e/nar54xbNU/e777Py9Zc8awcdaxLGus+Vfuz5//ghnDXvmqDUvXYy3Lcsv9kXvZy9eZNXyUdayTbMfVXviSWcOsukcp44eBnQZ34ftpCgCXmzfPXXz8scOgLxsArrrSSsm6699w+Oav3TCZXoYfsPuHhmWhYQCYff2mTTYx65blkfcfeOc7k79XnHTisGycbW3npijS7mF5u35cQLeQ441jDgB6RVsNm8zDupCH+tGSjvpc3O/go2qpR4K9D+59sFlWxjqW5V277JkEaVZZGetYFrGOet7wd//gNtx4S7OsjLIsYWCnwV34ftoCQHktQZgEWmEAeMz8A922W24xHF/eawCn48vrsJ6sowLAcJq3br75sD6/GsPho+q2bGs7N0WRdg/L2/XjArqFHG8ccwDQK9pq2GQe1oU81I82o5NeRb4amW8dyyLWUc97PrBP8pVaq6yM1rLIMMvsONYxWNS2OgMyHyswsgyDKw3IwgAwDMrEsEwCwCeuvnJY5med/N17l52TzJ0o70cFgPpa3Gvn97qTDj0kWSapK5QAEOdq148L6BZyvHHMAUCvaKthk3lYF/JQP9qMTnoVCQDzrWNZxDrqaToADN9PYwZQXH211dx/HnTgjABQgjItl6BtXACYtWoAqMPL2tZ2booi7R6Wt+vHBXQLOd445gCgV7TVsMk8rAt5qB9tRie9irEFgH20ju1LAFgMmY8VGFlmA0ANvjTIkyBN3mt5+LXPpgJAeS11H//Zg4dl//Gp/Yavx9nWdm6KIu0elrfrxwV0CzneOOYAoFe01bDJPKwLeagfbUYnvYoEgM1bx/YlACyGzMcKjCyzAaC43267DgNA8cJjBvfIijedcfpweJMBoKgPiNn41evNmM8429rOTVGk3avTrd78tuH+fdmaa5njWMqTP//+HTu5TTd/o/k+Nrt+XEC3kOONYw4AekVbDZvMw7qQh/rRZnTSq0gA2Lx1bF8CwGLIfKzAaFpsazs3RZF2r04lADzjgmuT18edekHyo+3ZcSz9oo58H5tjjgv5Mf+DBi8B5o4cb11viwAAZtBWwybzsC7koX60GZ30KhIANm8d25cAsBgyHyswmhbb2s5NUaTdq9MwABT9Igxfh7/vd+cji4Zl8lc9/OhTZr2XcTbb8i3J+7e/e5cZ9Wk94TzbMOe4kMBPl50AEGpDjreut0UAADNoq2GTeVgX8lA/2oxOehUJAJu3ju1bZwBoGY5DANhd29rOTVGk3avTMAA85ezL3fIrrDgsywsAxfB19v0LX/Rid95ltyWvJau4zrobJK+lvqIZxrrNHBdh4Idxe4m3c8jx1vW2CABgBm01bDIP60Ie6keb0UmvIgFg89axfckAFkPmYwVG02Jb27kpirR7dRreAyhmM3ZVAkB5vcMuHxqqQV9YX9umxwWBX/ckAAQAiIG2GjaZh3UhD/WjzeikV5EAsHnr2L4EgMWQ+ViB0bTY1nZuiiLtXp1mvwIq2Tv9GmeVADA7XmgEAaCwhjdZRuyEBIAAADHQVsMm87Au5KF+tBmd9CoSADZvHdu37QBQhmW1jsGittUZkPlYgdG02NZ2booi7V6dZgNAeb/nvvOT1xKwXXPH48nrWx9+esY5EL7Ovs+WqZEEgEo2EOQewLjQ/UIACAAQA201bDIP60Ie6keb0XGvYhcCwI02e3OyjN+75Kdmed3u/vHPJfM7+YLbzfKy1rF92w4Av3XmxeYxV9W2OgMyHyswmhYb2M5PeJ9J/2br1jIZLn/nTJF2r04l4JOff1j/dZsm54GoZYcccWzyfp31NkzuDQzLwtfZ9zqdfP1Tpg3vAYwoAFQ0ECQAjIvkGPISAAIAxEBbDZvMw7qQh/rRZnTcq0gAONvtdto9mR8BoH3cVbGtzoDMxwqMpsWGt/PDXg0UdvOeNXiZIGU7Dl5Wp0i7h+Vt6/yD2kjaZS8BIABADLTVsMk8rAt5qB9tRse9il0MAP/4T1Z2z11+heSvDBefM2/ecPwi5TJM33/p6LOT94cfd/4w+LOmq2o4r6oSABZD5mMFRtNiw9v5HK8GgBLwbTR4mZANCCtRpN3D8rZ1/kFtJO2ylwAQACAG2mrYZB7WhTzUjzaj417FrgaA8n6Nv1x7xnvN2GXLn/cXL0reSxAVlstrMQwA5T0ZQALAoq660kruVWuu6d60ySbJdgyHv3Xzzd0r11jDnXToITOmadKGt3NYt3z983mDlwmbeW8cvKxOkXYPy9vW+Qe1kbQnXgJAAIAYaKthk3lYF/JQP1onDYONIuYFgFqeDeCy5Wde9lDy/i9fua5ZXmcAKNPFrrXM4XsCwGquvtpq7oqTTkxeSwDYZuCnNridJeALv+IpGcBsAEgGMFLbOv+gNpJ22UsACAAQA201bDIP60Ie6keb0XGvYpczgFo+LgA8+8qfJ+/bCAAtw3lVtekMYNb9Dz7cPOaq2lZnQOZjBUZN+r3/ONx94J3vTIK+MAB84uorZ43btA1t5/DeP0W+DhoGhId55/wgkSLtHpa3rfMPakPbYgJAAIAYaKthk3lYF/JQP9qsznxZ+xwA6vhavvHmW5vTa/3THABax1edttUZkPlYgVFT+lm6m844PXktX/nsYQAogd5xg5czeKlX5/Ucby3zLdLuYXnbOv+gNpK2xUsACAAQA201bDIP60Ie6keb1Zkva58DwKw6ffZBL6pOr/WJ0/IQGOv4qtO2OgMyHyswasKnbrgu2Xb6Xl73MABM1isw/LmHt3h12AoyYK4UafewvG2df1Aber4RAAIAxEBbDZvMw7qQh/rRZnXmy9qFAFADNg3g9KEuWn7YsT9I3mcDwG9+/8bkrwRxOq36tnd/ICnbapt3Db8i+vWTLzXLw+mqKPVYw8tIAFgMmY8VGDXluV87Mtl+8iCYvXZ+b1+/AtoaRdq9OvSzGr6+85FFye/1ybB9Dzh0OEzeq1868sTh+OpF1z8wox5Rp9t+p91mDBd1fP3h+Re+6MWt/S5g14+LKSQ5VrwEgAAAMdBWwybzsC7koX60WZ35snYhACxrNkM4aetYFgLAYsh8rMBoWmxrOzdFkXZvrkogpj/OLvrZuvMuuy15vfvHPp38lUBu3rzlhuPIj7gffvQpw/eiBHBve+d7ZgzX6aTOcFxRxt9o0y2G459y9uXujdtsN2u8Juz6cTGFJMeQlwAQACAG2mrYZB7WhTzUjzarM19WAsDmrWNZCACLIfOxAqNpsa3t3BRF2r25uuseH58RtPnZzigXswHgIUccOytYk+luffjpGePpdFu9+W1mYJgdbs27Cbt+XEwhybHhJQAEAIiBtho2mYd1IQ/1o83qzJe1jwFgbNaxfesMAC2t46tO2+oMyHyswGhabHg7P+r91OBlMxRp9+aqZPOuuePx4XvJzPlZu4tv+OlwWBgAymspD6cJs3dSpl/l1OmygaEGnQSAUJDk2PASAAIAxEBbDZvMw7qQh/rRzE5+GQkAm7eO7VtnAGgdS03bVmdA5mMFRtNig9s5OXZS15IBTVCk3Zurfjaz7r274Mo7k+HZoG/9122a/A2DNlGCRg0IJbjbc9/5w+m0Dgk0dT5Sh/zNBoDhOE3a1vkHtZEcM14CQACAGGirYZN5WBfyUD+a2ckvIwFg89axfQkAiyHzsQKjaXHMdn5/+rcKT3qT4ye1EYq0e3PVzyY36JLAToK5MJATZRp9rcHhDrt8KHH7HXedETjqa/3aaJgtJACEgiTHmJcAEAAgBtpq2GQe1oU81I9mdvLLSADYvHVsXwLAYsh8rMBoWszZzg96Zfhcf6g9OX4Ca6dIuzdXs18BDdVsXjYAlMBNs3x59wNKnVbgGAZ5fAUUCpIcG14CQACAGGirYZN5WBfyUD+a2ckvIwFg89axfQkAiyHzsQKjaTGznTXwU+caAD7XG9Yn9wTWSpF2b66GQZj+NMPL1lxruF4yPBvIyT19WmYFkBI4SlCYnU4yisuvsOLwPQEgFESPRwJAAIAYaKthk3lYF/JQP5rZyS8jAWDz1rF9CQCLIfOxAqNpMd3O2cCvMxZp9+Zq9mcgJiU/AwEj0HOCABAAIAbaathkHtaFPNSPZnbyyxhbAFjHsux9wH+4dTfY1CwrYx3LItZRDwFgMWQ+VmA0Lb74r7dN9nFXLdLu1aHMyxreppIdbOP+P7Gt8w9qQ88JAkAAgBhoq2GTeVgX8lA/WhLozMVXvmrDWupZbrk/ci97+TpmWRnrWJb/85I13Yp/srJZVsY6lkWsox4JsFf9s+ebZWWUZbGOpaZtqzMg87ECo2kx2M5reJP9HTjXr4CG3OwN617FO2eKtHtY3rbOP6gNPa8IAAEAYqCthk3mYV3IQ/c/+HD3rTMvnpPHfefCWuqZ/4WvuqO/dY5ZVsY6luWrx33Xfe6w/zTLyljHsoh11CP3DX3xyG+aZWWUZckeR23YVmdA5mMFRtOisZ3DQLDOAFBY6NW6s/OtRJF2D8vb1vkHtaHnFAEgAEAMtNWwyTysCzliF22rMyDzsQKjaXHEdpZAsO4AUJD5qYfKgLlAu9eMbZ1/UBt6ThEAAgDEQFsNm8zDupAjdtG2OgMyHyswmhbb2s4B8tVPmefGybs5QrvXjBM4LmBuyP4SCQABAGKgrYZN5mFdyBG7aFudAZmPFRhNi21t56ag3WvGrh8XU4jsL5EAEAAgBtpq2GQe1oUcsYu21RmQ+ViB0bTY1nZuCtq9Zuz6cTGFyP4SCQABAGKgrYZN5mFdyBG7aFudAZmPFRhNi21t56ag3WvGrh8XU4jsL5EAEAAgBtpq2GQe1oUcsYu21RmQ+ViB0bTY1nZuCtq9Zuz6cTGFyP4SCQABAGKgrYZN5mFdyGPxzkcWuXnzljPLmnSrN79NL4zuZWuuZY5judLKq7q/f8dObtPN32i+r6Isg76W7bHOeoPfVNz3gEOHw3RZxS8deeJwfPWi6x+YUY+o022/024zhos6/hkXXJu8b/PHpOdiW50BmY8VGE2LbW3npoi93euqXT8uppCknfcSAAIAxEBbDZvMw7qQx2KTAeCue3w8+d07q0wCQA1+jjv1gsLL4DfpyPdllUBsnXU3GL6X+s677Lbk9e4f+3TyN7uNJOjMrpcEcG9753tmDNfprGWU8TfadIvh+Kecfbl74zbbzRovNtvqDMh8rMBoWmxrOzdF7O1eV+36cTGFJO2/lwAQACAG2mrYZB7WhTwWw+BGgiEJQg764teTi9Yn5//f4XgS9Mi48lfG12xVNoCSwE6CmkOOOFYvfIlaHo6nAaAYjiPz0PplnloW1ifzyL6XcTbb8i3J+7e/e5cZ9Wk94TzFbJAq44TlYriNRFm3bLAm09368NMzxtPpdJuMG27NOzbb6gzo+TnNppuik8jyW8cPzs2uHxdTSNKuewkAAQBioK2GTeZhXchjMQxu9GuJ+hVHeX3NHY8nrzXwC8fT11YAKK+LZgAl+7X8CisOy/ICQDF8nX0vWTXN3klWUZcrXPasUqbrKEodUufFN/x0OCzcRro84TRh9k7KwmWX6bKBoW4XAkDoK7G3e12V869zJO26lwAQACAG2mrYZB7WhTwWswFgGMyFAVwYlIl+1ZL3cwkApQ41m7GrEgDK6x12+dBQXa/ssofKNNmyC668MxmeDfrWf92myd/sOknQqAGhrPOe+84fTmctg9Qhf7MB4KjljEU6A1CE2Nu9rsr51zmS9t5LAAgAEANtNWwyD+tCHotVA0B5L0FPHRlAUYIoa15FA8DseKGjAiuZJq9MlkmCuXAbieF8dL4adG6/464zAkd9rV8bDbOFBIDQV2Jv97oq51/nSK4PXgJAAIAYaKthk3lYF/JYDIOUcQGgdc+eTBN+fTMM5MoEgPJeM2caXMpr+fqkzksMX2ffZ8vUUYFVOK+sms3LBoDhsubdDyh1WoFjuCzZADBv+WOSzgAUIfZ2r6ty/nWOpF33EgACAMRAWw2bzMO6kMdimQBQfh5BxvWrNeOnDeS9Dt/lAx8dTiPZLhkm0+q4qgQ/8vMP+rVKUcv0ATIyPwkuw7Lwdfa9TieZOJlW12VUABgGYbL+Mr0sl/zVurOBXBiUWgGkbDcJCrPTSXAcBssEgNBXYm/3uirnX+dI2nUvASAAQAy01bDJPKwLedccFUR12WzQOyn5GQjoE31p92KT869zyP4SCQABAGKgrYZN5mFdyLtmXwNA0e8mc3ibSnawC9uXzgAUoS/tXmxy/nWO5PriJQAEAIiBtho2mYd1IUfsonQGoAi0e83I+dc5ZH+JBIAAADHQVsMm87Au5IhdlM4AFIF2rxk5/zqH7C+RABAAIAbaathkHtaFHLGL0hmAImj7ivWbbmLoBrK/RAJAAIAYaKthk3lYHWnELkpnAHqGdtA5rqEJ9NgiAAQAiIG2GjaZh9WRRuyidAagZ2gHneMamkCPLQJAAIAYaKthk3lYHWnELkpnAHqGdtA5rqEJ9NgiAAQAiIG2GjaZh9WRRuyidAagBzw3/StoB53jGppAjy0CQACAGGirYZN5WB1pxC5KZwA6zqe8cgzLX0FeqwB1o8cWASAAQAy01bDJPKyONGIXpTMAHUYyf9ohFxdm3ldBpjvFKx38qnVAf9FjiwAQACAG2mrYZB5WRxqxi9IZgI7zpFc75VnLspv3rMHLhIe9zxu8BEjQY4sAEAAgBtpq2GQeVkcasYvSGYAeoF8DzVoWzSgqVeqAfqPHFgEgAEAMtNWw6XwQ+2J6aAN0nexXQMWtvWVY3avTAmTRY4MAEAAgBmjYeodeaOvi5vQvAPQXbTdC7/IW4TleGX8F71bBawBFjykCQACAGKBh6x16oa0D/WpX+Lh4AOgf2m5Ybuwdhdzzt9HgZUL2nkAAPZYIAAEAYoCGrXfohbYOHvVKXfIXAPqLthviCZn313hHcY43+xCYHQcvARL0WCIABACIARq23qEX2rmSfVQ8WcAW8BvaISL2zUHzRgAIABAFNGy9Qy+0c0WzfypZwBbwG9rsPCEidtlB80YACAAQBTRsvUMvtHMhm/1TyQI2jN/IZucJEbHLDpo3AkAAgCigYesdeqGdC9nsn0oWsGH8RjY7T4iIXXbQvBEAAgBEAQ1b79AL7Vw4KFXrEnXYDPT4mUbTTVArvlKz84SI2GUHzRsBIABAFNCw9Q690NaB1pVbnxw7v79pwdTZ1DnjK7U6TgBNsp1XjjN1by9AZaTdyjoYTAAIABAFNGy9Qy+0daB15dYnx44VIPXdps4ZX6nVcQJoGjnOVIA5Ie1W1sFgAkAAgCigYesdeqGtA60rtz45dqwAqe82dc74Sq2OE0DTaBaQ7B/MmbD9UgeDCQABAKKAhq136IW2DrSu3Prk2LECpL7b1DnjK7U6TgBtwLEGtRC2X+pgMAEgAEAU0LD1Dr3Q1oHWlVufHDtWgNR3mzpnfKVWx6l29LxHRBxl2mSUImy/1MFgAkAAgCigYesdeqGtA60rtz45dqwAqe82dc74Sq2OU+1M635DxOJWbefC9ksdDCYABACIAhq23qEX2jrQunLrk2PH6jj03abOGV+p1XGqnWndb4hY3KrtXNh+qYPBBIAAAFFAw9Y79EJbB1pXbn1y7Fgdh77b1DnjK7U6TrUzrfsNEYtbtZ0L2y91MJgAEAAgCmjYeodeaOtA68qtT44dq+PQd5s6Z3ylVsepdqZ1vyFicSu2cwvD9kv1w8WqAeBLvTL9Venfs7zKZt6wbCNvrch2aKrNBwCYCDRsvUP2ZV37U+vKrU+OHavj0HebOmd8pVbHqXamdb8hYnErtHN7eGe1YaIM99aRAXyuV+pSwtfZslqQ7dBUmw8AMBFo2HqH7Mu69qfWlVufHDtWx6HvNnXO+EqtjlPtTOt+Q8TiVmznVgvbL9UPF+sIAJ/jlboECfieGbwcomW1IduhqTYfAGAi0LD1DtmXde1PrSu3Pjl2rI5DWd+6+ebJfJ64+srhsNVXW809ctGPh+9XXWmlZJyNX71e8jcsO2b+gbOGiXefe04y/JVrrJH8fdWaa84or2pT54yv1Oo41U5d+w0R+2vVdi5sv9TB4P/v0WSEuXGYV78CKl8NfWrwcojMZ4XBy3qQ7dBUmw8AMBFo2HqHXmjrQOvKrU+OHavjUFYJAE/79y+5FZdffjgsDAClfNsttxiWicd/9uDha78o7uLjj50xzlM3XJcM1/eijBO+r2pT54yv1Oo41U5d+w0R+2vVdi5sv9TB4KGreKug9wIqkgG0AsBake3QVJsPADARaNh6h+zLuvan1pVbnxw7VsehrBLgXXHSicm8NOgLA0AZHmYHQ3917dXDwFHG0+GSFVx/rbWG7+u0qXPGV2p1nGqnrv2GiP21ajsXtl/qYPAMD/WWwbq/L/w6qJJ9P2dkOzTV5gMATAQatt4h+7Ku/al1jdTqOJRVA0D5yuZy8+YlwzQAtDJ5oXvt/F530qGHJK9lGqlHXkudB+z+oRnj1mVT54yv1Oo41Y4sv7VeiIhq1XYubL/UwWDTIliBnvKEd5fByxlfD60N+kkA0Dto2HpHmYvqOLSukVodh7JqACiv5V4/eV00AAzL5CuemvUjAMxHlt9aL0REtWo7F7Zf6mBw8hAYuQ9Q36/lLcJuXp1GDX/uYYFXhh2XvKsZ+kkA0Dto2HqHXhxbQY4dq+NQ1jAAlK90+qpnfQVUX4fqQ16ySpkEg+E9hXXa1DnjK7U6TrVT135DxP5atZ0L2y91MHj4FNDtvHU8EbQVZDs01eYDAEwEGrbeoRfaVpBjx+o4lDUMAPW9r34Y9EkwJ+/1PsAj9/908sAXGU+//qlK4KjDZJp/fPu2yWvJJEp2MRy3qk2dM75Sq+NUO3XtN0Tsr1XbubD9UgeDuxP0hch2aKrNBwCYCDRsvUMvtK0gx47VcShrNgAUffUzsn73X/CD4U9B6BNA5bWWq9nM34d33CEZT34KIu9BMmVt6pzxlVodp9qpa7+J2oZgO1r7ALEJ5XhLm4xShO2XOhhMAAgAEAU0bL1DL7StIMeO1XHou02dM75Sq+NUO3Xut2k9BiYh2xrbtGo7F7Zf6mAwASAAQBTQsPUOvdC2ghw7Vseh7zZ1zvhKrY5T7dS536b1GJiEbGts06rtXNh+qYPBBIAAAFFAw9Y79ELbCnLsWB2HvtvUOeMrtTpOtVPnfpvWY2ASsq2xTau2c2H7pQ4GEwACAEQBDVvv0AttK8ixY3Uc+m5T54yv1Oo41U6d+21aj4FJyLbGNq3azoXtlzoYTAAIABAFNGy9Qy+0rSDHjtVx6LtNnTO+UqvjVDt17rdpPQYmIdsa27RqOxe2X+pgMAEgAEAU0LD1Dr3QtoIcO1bHoe82dc74Sq2OU+3Uud+m9RiYhGxrbNOq7VzYfqmDwQSAAABRQMPWO/RC2wpy7Fgdh77b1DnjK7U6TrVT536b1mNgErKtsU2rtnNh+6UOBhMAAgBEAQ1b79ALbSvIsWN1HPpuU+eMr9TqONVOnfstpmOgrh/6j9VpPd9wMlZt58L2Sx0MJgAEAIgCGrbeoRfaVpBjx+o49N2mzhlfqdVxqp0691tMx4AVAPrVTbzipBOT98vNmzcs22vn9w6Hr77aasl4Jx16SPL+mPkHuvvOPy8Z9sTVVw6nmaTTer7hZKzazvmJrHZMJAAEAIgBGrbeoRfaVpBjx+o49N2mzhlfqdVxqp0691tMx8CoDKBf7eTvWzff3D1y0Y9nDJNAUIM8KZfXEgBuu+UWybBYnNbzDSdj1XZO2q2sg8EEgAAAUUDD1jv0QtsKevxMo+kmqBVfqdVxqh1ZfqvDV8U665qrRQLAu889JwnsfnXt1cMAT6aTclUCRAkANTsYizFta+y/Vds5P5HVjokEgAAAMUDD1jv0QgsdxO84q+NUO3LOWx2+KtZZ11zNBoCSzdMgzq/2cLi8lqyfZgLl659aphIA4rRbtW8g7VbWwWACQACAKKBh6x16oYUO4nec1XGqHTnnrQ5fFeusa65aAaAEeZL186s9HC7BX/heytdfa63ktQR++pcAEKfZqn0DabeyDgYTAAIARAENW+/QCy10EL/jrI5T7cg5b3X4Rukncy954QtnDa9S16TVr4FaZTHbxW2N3bVq30DbrtDBYAJAAIAooGHrHXqhhQ7id5zVcaodOeetDt8o/WRDw0CwSl2TNnwQTJfs4rbG7lq1b+AnstoxkQAQACAGaNh6h15ooYP4HWd1nGonPefnrASCUpfVecT6ZVtjm1btG/iJrHZMJAAEAIgBGrbeoRda6CB+x1kdp9qRc97q8I3STzbLe847h6CkRdnW2KZV+wZ+IqsdEwkAAQBigIatd+iFFjqI33FWx6l25Jy3Onyj9JMNlcBPh1epC6vJto5XvZZOSmuZ5qrUK+1FWfxEVjsmEgACAMQADVvv0AstdBC/46yOU+3IOW91+EbpJ5sR+KlV6sJqsq3jVfbNPY8tm4hNHRdS76DFKIe2XaGDwQSAAABRQMPWO/RCCx3E7zir41Q7cs5bHb4q1llX21q//zfKi48/1p106CFmWRt2eVv3Xdk3VnDWhk0dF1Jv2mSUImy/1MFgAkAAgCigYesdeqGFDuJ3nNVxqh05560OXxXrrKttCQCxLmXfWMFZGzZ1XEi9aZNRirD9UgeDCQABAKKAhq136IUWOojfcVbHqXbknLc6fFWss66y/uraq4c/4L7mi1+c/JWg7omrr3RP3XCdW27evGSY/Ki7X+3kdfgTEGEAKONssPbaw/dWPQSAmKfsGys4a8Omjgupd9BilEPbrtDBYAJAAIAooGHrHXqhhQ7id5zVcaodOeetDl8V66yrrBLMSZCm7yVY04BQ3Gvn9ybBngR3GrjJj8AfsPuHktfZAPCKk05MXufVQwCIecq+sYKzNmzquJB60yajFGH7pQ4GEwACAEQBDVvv0AstdBC/46yOU+3IOW91+KpYZ11lzX6FUzKC2265xfC9BG4S1JUNAPPqIQDEPGXfWMFZGzZ1XEi9aZNRirD9UgeDCQABAKKAhq136IUWOojfcVbHqXbknLc6fFWss66yamAWDtOva4oa4JUNAEWrHgJAzFP2jRWctWFTx4XUmzYZpQjbL3UwmAAQACAKaNh6h15ooYP4HWd1nGpHznmrw1fFOuuqogRnfpWGQZ18fVPeizpOXgAomT4ZT8qyAaBVDwEg5in7xgrO2rCp40Lq9cd/afxEVjsmEgACAMQADVvv0AstdBC/46yOU+3IOW91+KpYZ104WrZ1vMq+sYKzNmzquJB60yajFGH7pQ4GEwACAEQBDVvv0AstdBC/46yOU+3IOW91+KpYZ104WrZ1vMq+sYKzNmzquJB60yajFGH7pQ4GEwACAEQBDVvv0AstdBC/46yOU+3IOW91+KpYZ104WrZ1vMq+sYKzNmzquJB60yajFGH7pQ4GEwACAEQBDVvv0AstdBC/46yOU+3IOW91+KpYZ104WrZ1vMq+sYKzNmzquJB60yajFGH7pQ4GEwACAEQBDVvv0AstdBC/46yOU+3IOW91+KpYZ104WrZ1vMq+sYKzNmzquJB60yajFGH7pQ4GEwACAEQBDVvv0AstdBC/46yOU+3IOW91+KqobUiX9JvAHN4FrX2Ak1f2jRWctWFTx4XUO2gxyqFtV+hgMAEgAEAU0LD1giO8cmEVwwuteKoXOoLfcVbHqXbknLc6fNOi3wTmcMSqyjllBWdFlOMx9Jo7HjfHy7Op87lq38BPZLVjIgEgAEAM0LD1Br3AZn2uFzqC32FWx6l25Jy3OnzTot8E5nDEqso5ZQVn43zhi17sbnnwKbOsqE2dz1X7Btp2hQ4GEwACAEQBDVtvuNmrF1n1US90CL/TrI5T7cg5b3X4pkW/CczhONP3vf9TbvmXbuOWf1k7/sHqb3Gf3GOPRHltjdOUy62xtbkNiirnlBWcjXOrN7/NHF7Gps7nqn0DbbtCB4MJAAEAooCGrVfoRVYl+9cx/E6zOk61I+e81eGbFv0mMIfjTLfdfm/nfnafc/fc0Y733+t+e+a/eg9IXpvjNOGD97hVXvE2cxsUVc4pKzgbpwSAcjyG8hXQuJDtUHVbAABECQ1brwizgGT/OojfcVbHqXbknLc6fNOi3wTmcJzp29/lA8A7bzXLGvGWn7inzjrQ+6/Ja3OcBnS33eJWnlAAWIdNnc9V+wbadoUOBhMAAgBEAQ1b79ALLdm/DuJ3nNVxqh05560O37ToN4E5HGdKAFhcOaes4KwNmzqfq/YNtO0KHQwmAAQAiAIatt4hWUCyfx1FOkpZ06JakXPe6vBNi34TmMNxpgSAxZVzygrOxnnrw08nx6O6zrobmOONsqnzuWrfwE9ktWMiASAAQAxMW8Om64vdNd2VvcSvnNVxqh3ZjlaHb1r0m8AcjjMlACyunFNWcDZOeQpo+H7XPT5e+qmgTZ3PVdtbbbtCB4MJAAEAomDaGjZZV+tCh92w78eqXzmr41Q7034e+E1gDseZEgAWV84pKzgbZ/YpoIcccSwPgYkM2Q5VtwUAQJRMW8Mm62pd6LAb9v1Y9StndZxqZ9rPA78JzOE4UwLA4so5ZQVn48x+BXTevOXM8UbZ1Plctb31E1ntmEgACAAQA9PWsMm6Whc67IZ9P1b9ylkdp9qp8zzQNqRL+k1gDu+C1j5oSgLA4sq+sYKzNmzquJB6By1GObTtCh0MJgAEAIiCaWvYZF2tCx12w74fq37lrI5T7dR5HnBOtWfb25oAsLiyb6zgLE+51++MC65N7gH0p+QM+QpoXMh2qLotAACiZNoaNllX60KH3bDvx6pfOavjVDt1ngecU+3Z9rYmACyu7BsrOGvDpo4LqTdtMkoRtl/qYDABIABAFExbwybral3osBv2/Vj1K2d1nGqnzvOAc6o9297WBIDFlX1jBWdt2NRxIfWmTUYpwvZLHQwmAAQAiIJpa9hkXa0LHXbDvh+rfuWsjlPt1HkecE61Z9vbumwA6O683bkH7nPuvnueHSbvxfvvdQtvvGHG+LOsGAA+dtkl7t4fnOt+cclFbtltg+keuPD8ZNhP/d9nbr5x1jShkwwA5aug4XueAhofsh2qbgsAgCiZtoZN1tW60GE37Pux6lfO6jjVTp3nAedUe7a9rcsEgItvucn949u3dS96/vPdH/zBH7grTvpmMswfbm711VZz66z5l0mAaE07tEIAuOQnN7utN/sbd+HRR7mPvmcn9y/v28X95rpr3FZ/vZE7/6ivu/869j+T5bCmVScVAK608qrJ9gnlKaDxIduh6rYAAIiSaWvYZF2tCx12w74fq37lrI5T7dR5HnBOtWfb27pKACjZNvffP5fj1rnbb3XveOMbkuzf2OBPrBgAbvO3mw2yjw/91P3ZKqu4p66/zu2xwz84d89dbumtt5jThcaUAaxiU8eF1DtoMcqhbVfoYDABIABAFExbwybral3osBv2/Vj1K2d1nGqnzvOg7XPKL36p4XPx7nPPcQfs/iGzbBK2va3LBoC7vmM791/HfsP9q99mn9j1/Ulwtty8ee4vV1/dHfThfx77VcyqAeA73rCVe/lLXuJW/pM/cQ/+6EL362uvTrKOf/e3f+u+/YVDzOlCJ30PoBy7oXwFNC5kO1TdFgAAUTJtDZusq3Whw27Y92PVr5zVcaqdOs+DonWFwdRbN9/cnXTo+I65+Cvfmd92yy0KD6/TugPAuS5z2+1X2QDw/du93V1/2inu5xf9OLkXb5Eftv2b3ujcww86d9cd5nQzrBgAyldAk3ncc1dyn6EEgP+0/TuTsrFBp3eSAeBWb37bjL/ysxBheRGbOi6k3rTJKEXYfqmDwQSAAABRMG0Nm6yrdaHDbtj3Y9WvnNVxqp06z4OidYXB1FM3XOdWXH755PXFxx8r65hkinRcKZMMzvprrZWUqVIW/rWGi3vt/N7kvc5DlPp1+CM+QNHhMh8ZFgakOswKAGXZpUzUYUXnp9PptOF66nSjbLv9KhsAvu/t2yb33+kwCQC38cGZBGRPXHWleyYY37RiALj5azdM/uowmd/z/+xP3fu23dZ98F3bu2V33DZjmqyTDAA14NOvgp5y9uVkACNDtkPVbQEAECXT1rDJuloXOuyGfT9W/cpZHafaqfM8KFpXGEzJ62wmTAJBDcL8Ig6HZ7NmWpY3XIKuK046cdY4YZ3huE9cfWXyWrKS8jqcXl5nA8AwUBXLzC9vmYvadvtVJgCUTNvFxx3rng6e9CnDvvLpT7n/u+8+7rBP7OsWp0/ozLVCACha2UV3393O3etNs4LZ8tBJ3wN4y4NPuYuufyA5HkRrvFE2dVxIvX55SuMnstoxkQAQACAGpq1hk3W1LnTYDft+rPqVszpOtVPneVC0Lgn6/KwTrYyXBIAabIVBVtkAUDJqOkzUurRcXHWllYZ/dZlEydSF02czgNl5imXml50+G0yOs+32q0wAWIsVA8C5Oul7AOdqU8eF1OuP49L4iax2TCQABACIgWlr2GRdrQsddsO+H6t+5ayOU+3UeR4UrSvv65QaBNUZAGpWT9SvZWq5qAFZNngTNRMor60AMBu8lpkfAeAYpzAAlAygHCv6nt8BjA/ZDlW3BQBAlExbwybral3osBv2/Vj1K2d1nGqnzvOgaF15AaAGTBIkWQFgOI7oF3/kcJmPBmkSzIX33+m4GpCF4x4z/8DhMA3SXrnGGrOWWaaVgE/mL19ZLTO/7DITAGac0gBQ/srxcvjRpxAARohsh6rbIg8HvSTdvQDx00TDFjOyrtaFDrth349Vv3JWx6l26jwPOKfas+1tTQBYXNk3VnA2zvB3ADUbSAAYF7Idqm6LPNJ4AXpGunsB4qeJhi1mZF2tCx12w74fq37lrI5T7dR5HnBOtWfb25oAsLiyb6zgrA2bOi6k3rTJKEXYfqmDwQSAShovQM9Idy9A/DTRsMWMrKt1ocNu2Pdj1a+c1XGqnTrPA86p9mx7WxMAFlf2jRWc5SnZvjMuuDb5GQh/Ss6QDGBcyHaoui3ySOMF6Bnp7gWInyYatpiRdbUudNOg3H/0g69/zSwrY131VLHvx6pfOavjVDt1ngfTfE61bdvbmgCwuLJvrOCsDZs6LqTetMkoRdh+qYPBBIBKGi9Az0h3L0D8NNGwxYysq3WhK6oEP74at/Gr13MbrL128vof376tOW4MyvLp6ytO+qZ71Zprzigval31zNW+H6t+5ayOU1Vk2oMGL2cy1/MgtM66cLRtb2sCwOLKvrGCszac63GRfdCRKvWmTUYptO0KHQwmAFTSeAF6Rrp7AeKniYYtZmRdrQtdUSUAzD65z1c7/AHr2JRls4aXta565mrfj1W/clbHqSoyrTojEJzreRBaZ1042ra3NQFgcWXfWMHZOMOHwIiTeAqobxISs4Gg1Js0GCXxE1ntmEgAmJLGC9Az0t0LED9NNGwxI+saXuDKagWA8vtl+mh3ee1n4z7wzncmf6846cQZ46ryyHkplyyi1CevZXj4SHlRHiuvwaU8Sl4yb2/aZJPh+Dp889duOKxHL+K6DPL3zC8fMaPuw/f7RJLFFMN56/hF6xFl/lKuf8Ph1nLNxfRYlU5EL/UrZ3WczHELKNNmPcJLABgo28UaHqNtb+v3ve8TbsmVp7mnL/52O15yqnvq+//mPSh5bY7TgIsuO8Vt97b3mNugqLJvrOBslCutvGr2/HTz5i1njjvKuR4X2WXQtlrq9e+ttmWkfiKrHROlvHPIdki3RW2k8QL0jHT3AsRPEw1bzMi6Zi9+ZbQCQPlxZx3mZzEcbo2rhuPJ9Pp+VAAYKj8+rcGlBFr6OjvPcD7ZusW9dn6vGZiF6yTm1SOBbPjD1vJey0YtV1XTY7W3+n9maY03V+d6HoTWWdcklO1hDY/Rqts6u/+LustOH3GLfvA599TZn+21vzvns+7Qj37Q3AZFlX1jBWfjzGYAq2gtz1x9yQtfWLm99f/ktWMEgClpvAA9I929APHTRMMWM7KuVgepqKMCQCnzs5ihDJdyyZ6JX/iXvYfjhXXq+3EB4Pf+4/CknjC4ktfyw9Q6Tlh3+DpbdzbIE2VZ9t5l52QeYVlePbJ8YZZT6gx/2DtvuaqaHqu91f8zS2u8OXizd87nQWiddTWpHJvWcSvbJRwvZqtu66rr+IFdP+kWX3S0+92FX2/HHx7lnvr+wUkWUF6b4zTg7390lNvjvf9oboOiyr6xgrMiyv4JndRXQEUJ/HS41BuWFdX/k9eOEQCmpPEC9Ix09wLETxMNW8zIuoYXvrJaAaBk0SQLlg3sRhmOVzQAlHFuOuP04fC5BoAy3SMX/Xj4XtZDH+6SXc+8erIBqpS1EAD2Fr9yVsepKjKt+qAMUOZ6HoTWWVeTyrEaHo96nPrNMRwWu1W3ddV1nKZ7AFea0D2A8jMQtzz4lFlW1Lmeg3J8hIGfKvVKe1EWP1Gd7djEke1QdVvkkcYL0DPS3QsQP000bDEj65q9yJUxGxid+7UjZdsN30vQc/xnDx6+/49P7Td8HRqOJ6+1jjAYvP+CHySvJcDKBpfyei4BYParm2IYzEl5kQBQXodlsixFlquqfT9W/crV2XGSaWcEfspcz4PQOutqUvnadPhej2+/OWYMj9mq27rqOvIQmOLKvrGCs3Fu9ea3mcPL2NQ5KPUmDUZJ/ER1tmMTR7ZD1W2RRxovQM9Idy9A/DTRsMWMrKt1oSuqBmLq5z720Vnj6ENa5AErYQCUVQIk6YT+8orLkvF1uAaV8vMSEohpUKbDJUsn2boigZZOI3VkM3cyXNXp9actTj/s381AN1uPeOExRw3r0QylSABYHr9yrXSc5noehNZZV5OG54x8HVQ/APGbY8Z4MVt1W1ddRwLA4sq+sYKzcUoAKPsntKc/BN9ZZDtU3RZ5pPEC9Ix09wLETxMNW8zIuloXukmaze5hvn0/Vv3KtdJxqvM8iPGcylM/+Aiz3/I+HCdmq27rqutIAFhc2TdWcNaGTZ2DUq+0F2XxE7XSjrWFbIeq2yKPNF6ozLLUAfrq2SGNsGxQf8Nz6TTp7gWInyYatpiRdbUudJOUALC4fT9W/cq10nGq8zyI8Zzqq1W3td/l5vBxEgAWV/aNFZy1YVPnoNQ7aDHKoW1XaFrUSWQ7VN0WeaTxwngk2goiLnm52PuM9/fepcuWpkMWpX/lfQMhmsxnyRK3ZOmyZN5L0lkks29gdl0l3b0A8dNEwxYzsq7WhQ67Yd+PVb9yrXSc6jwPOKfas+q29rvcHD5OAsDiyr6xgrNxyg+/y/5R11l3A3O8UTZ1Dkq9fplK4ydqpR1rC9kOVbdFHmm8MB4JrpIAa/BC/h2Ge0t99LV4kVv821+5p5943D395C/dwv/3S//3Se8TwV81HD57nIWJT3p9fYlS9mvvb9zTjz/mfv8/j7ulPgh8aokEnn5p/F+YSbp7AeKniYYtZmRdrQsddsO+H6t+5VrpONV5HnBOtWfVbe13uTl8nASAxZV9YwVn45SngMpffRiMBIRlnwra1Dko9Q5ajHJo2xWaFnUS2Q5Vt99hSJMAAPizSURBVEUeabxQEAn7glSb/JHga6F/4QdfdOQx7uh/3M2d/olPu9P3+Yw7da993Xc+vrc7bZ+9Civjn/4ve7vv7rWP/7uvO3Uf78f/xX37E/u4kz7xCT/Ox9w3PrKr++/77k4WYNmypW7p0kXep9OFASHdvQDx00TDFjOyrtaFDrth349Vv3KtdJzqPA84p9qz6rb2u9wcPk4CwOLKvrGCs3GGgZ88/EX/ZscbZVPnoNQ7aDHKoW1XaFrUSWQ7VN0WeaTxQgE0+JO8nwRa/n0SAPp/Fi5KBv3XV77m7j7xJOduv925a29ybsFPnLv+WuduyHqd95rgvbyWYVrm/14nf68feKN/fbP/e/MCt2zBle78z3/SPXjHLcnyLF680AeBC/3sn/KLI18KBSHdvQDx00TDFjOyrtaFDrth349Vv3KtdJzqPA84p9qz6rb2u9wcPk4CwOLKvrGCs3FedP0D7vCjT0ley37iK6DxIduh6rbII40XCqABoHzpU5TXgh++RN4vcz/+z6+520870bm7b3WLbrzBLb7pJrfYB21LbrrRv14wNHmfDh+8viEdZ/B+yU03uKU3XeuW3HydW+QDv8X+7zN+nEU33+jrvdpd8MUD3UO+PRjMfZlbuuwZHwDKnYhkAJV09wLETxMNW8zIuloXOuyGfT9W/cq10nGq8zzQNqRL+k1gDu+C1j4Yp6yvNXycVQLAZ3xnUcy+D4flWjEAdA8+MPCO2wbv77lrOGzJrbfMGj8rD4GxlXqTBqMk0m5lTYs6iZ576dtaSOOFgkiAJcHekiTwGrJMsoLL3A+/8TW34JRj3e/v9Ofb7Te7p30Q+IwP6J658WbvTYHZ99lhEuj5Ovy0C/3+f0aOA1+++MZb3KJrr3Hn/du/ugdvv20wb79Ig2UJvpoKnT7OYcpoomGLGVlX60KH3bDvx6pfuVY6TtN+HvhNYA7vq1XXt2wAeOVJJ7pNX/Mat9G667pfXHKRW3r7rW7z127oNnn1q91f+2HL7rvHnG5ohQBw8S03Jeu33itf6V74/Oe5ZXfe7v5m/de4Df7qr9yrXv5yd8N3TjWnC530PYCy/KHcAxgXsh2qbos80nihIBJgSRC4NA26UtIA8PxjvupuPPU4t/iem93CWxf4ANAHbz6gW7TgZh/Q+b8+iEvU9/I3fK3lybiDoFACv0ULbnJLbviJW3b9bW7RNQvchQd91j10+x2DeesDR0uwePFit3DhwvTdAHkvw/NYunTpyHGk7PHHH3eLFkmAPHnS3QsQP000bDEj62pd6LAb9v1Y9SvXSsdp2s8DvwnM4X216vqWDQBP/uIX3ILTT0syb3/4B3/o3AP3uT9deWXnfv6Qc/fe5RbeeIM53dAKAeAiHwBu/trXOnfXHe6L+/yLu+/8H/iAcz3n/vvnSSawSOYxpgzgrnt8nAAwMmQ7VN0WeaTxQgkk8Mtk2pYOvnr5w6O+5m495Xjn7v6Je+aG690zC2T/ybkmXh+ow7I+W/ZMGjxKBlC+TipB4FIfBC669jp34ef+zT10RxoA+kWRJ4HKEmSWagbL0t8OFL7//e+7//t//+8wmHvmmWfckUce6R588MHkfUIwvvDkk0+6k08+eTiOTPvII48k73/xi/92hx327+5tb3ubu+uuO5PySZPuXoD4aaJhixlZV+tCh92w78eqX7lWOk7Tfh74TWAO76tV17dsAHiKDwCvP+0U5+67x/3BH/xBEgAu/0d/5E71nbSzvvwfyb1E1nRDKwaAf7n66u6bXzg0Wc+ld9zmtt5sM/f8P/1Tt8qf/Ilb/JObzelCYwoA5aEwPAQmLmQ7VN0WeaTxQknS4Ej+iPIzEJ4fHnWUu/XbJyQB4KIb/DmxQL7Cea33evf0zdf5v9elf693C2+W4Trs2XHCQPFpv++fvvl6t8jXsWjBDW6pr2/RdVe6Cz53gA8A06+AemQRFvt/Z4ZsNj/5yU/cv/zLvyRKQCdIELf//vu73/3ud8l7ZZlfr1//+tfu3nvvdRdffLHbd9993Xnnnecee+yx5P3aa6/tNtxwQ/93LfeRj3zE3Xfffe43v/m1DyjlfsTJku5egPhpomGLGVlX60KH3bDvx6pfuVY6TtN+HvhNYA7vq1XXt2wAeLoP9DZa91XuH7Z+S5Ltc3felgRh/3vt1e7xyy81p5lhxQBwk9e8xv3vVVck9wDKfUtJBvCxXySBqDVN1pi+ArrnvvPN8UbZ1Plctb31E7XSjrWFbIeq2yKPNF6oThAAXnjM190tpxzvlt5zm3vaB2u/v/EmH8DdkAZy/q8q72+RgC99L691nJtk2CAYHHi9P5d8AOgDwqWSCbzuCh8AfubZADCJ+uSf8eGfBGhHHHGEu+mmm5L3p512mrv88svcRz/6Ubfnnnu6888/P/HCCy909z/wgFuyZEny/tXrrefWWWcd9+IXv9i9+tWvdjvssIP7xje+4T70oQ+5q666yl199dW+nsuTce+5557k66KTJt29APHTRMMWM7Ku1oUOu2Hfj1W/cjM6TWJaVCvTfh74TWAO76tV17dKBvCyE08YvpcAMPkK6CM/KxaMVQwAN9tgA7fstsH48pXPTV/zavfzyy5Nvg765NVXzZomKw+Bsa3a3kq7lTUt6iSyHapuizzSeKE6QQD4w6OPcj85+ZvO3X2bW7gg/QpnkvG7wf+9Ps38yV95n2YCk2HpOMn7wbi/98HewhvTh8DceJ33BrfkRn+eXa8ZwNuTeWoAOC7/J8Hfzju/1731rW91hx56qDvkkEPcxz/+cffBD37Qrbvuuu4973mP23HHHd173/te9zd/8zfuU5/6lHs6kxH8t3/7N/eJT3zCfec733HnnHOO23zzzd0uu+ySBIdrrbWWe/e7350ElfKV0kmT7l6A+GmiYYsZWVfrQofdsO/Hql+5VjpO034e+E1gDu+rVde3bAB49pFfSb4Cqu+X3XGbW3Wlldxqf/Zn7s9WWcUtHfdEzgoBoAR815z87Rn3+i34zmnuu4cf5r57xOHuwR9dOGN8SwJA26rtrbRbWdOiTiLboeq2yCONF0pgZNuWDALAHx91lLvtWyckH7g8c4Pct6fB2/XpXzX7Phwmf/20yUNgbkqyiIOvhC5wi+XpoNdf4y74/PxZXwGVJRgVAv7sZz9LMnRf/vKX3fbbb5942GGHufe9733uhz/8YTrWgCuvvDLJ8P3uqaeSzN4222zj3vSmN7lNN900CQxPPPFE96UvfcldeumlyfgnnXSiH/8/k9exkO5egPhpomGLGVnX7EUOu2Pfj1W/cq10nKb9PPCbwBzeV6uub9kAUO7xyz50RTJzajjctEIAWIeTDADlnj/ZP5ZF7wVs6nyu2t76iVppx9pCtkPVbZFHGi8URMIs47Gb+hCYo7/ufnLy8c7d8xO3cIE8yEXOwfAhL0WV/T7I/j3t/+rDYeRr1Yuuv8qd//kD3YNBACgUuQPw6aefdk/5oO7MM8903/72t5PXDzzwgJP7/H7zm98kf2Wc//qv/3LHHHNMMkwe9HL22We7o48+yu23337u4YcfToZJNvB///d/k3qPPvro5Kulv//95O/9U9LdCxA/TTRsMSPrmr3IYXfs+7HqV66VjtO0nwd+E5jD+2rV9S0bAM7ZKQ0Aw/eHHHEsTwGNDNkOVbdFHmm8UBAJ9Aa/AziD5GcgnLvgmK+7m085wS299yfudz5gW3iTZPDkXsCSJkHfgkEAeLMEhIMAcLH32a+ABvcAJk/sHB0ASnAnD2rZbLPNkoe3vPKVr3TveMc7kvv95KufW2yxhXvd617nDjroIPfd737XHXfsse5XTz6ZTCsPftlqqy2T6X/xi1+4yy67zN2hTyH1nHXWWe7UU0+N5icghHT3AsRPEw1bzMi6Zi9y2B37fqz6lWul4zTt54HfBObwvlp1fQkAiyvnlBWcjVMCwDMuuHb4Xh4KQwAYF7Idqm6LPNJ4oQTPftlSXiU/v7BskBG84Jij3C3fPt4tu9sHgHIPXxIAVlO+CqoPhJEAcHAPoDwFNPMQGJl1MvvRAaDcl7dgwQJ3ww03JF/9/NznPuduu+029+ijjybB3M0335yUS4ZPnvApGUAJGgV5SqgEeJIJvPKKK5Jy+ZqofD30Cv9eMobXXHON++1vf5uMHwPp7gWInyYatpiRdbUudNgN+36s+pVrpeM07eeB3wTm8L5adX0JAIsr55QVnBUx/Bpo2Z+AEJs6n6u2t36iVtqxtpDtUHVb5JHGCyUZBFuS9xM1AJSHwNz67W86d9dtydN3B/fwZbJ7RUz2uzwRVL4CKq8HD4VZPOMhMOFTQIXRAaD8xMNXv/pVd6OvXzJ28iAXCfgk23fJJZe4iy66yP3oRz9KypMM4HHHDQNAuddvgw02cG984xuTTOEb3vAGt+WWWybKMHkvD4KRemIh3b0A8dNEwxYzsq7Zixx2x74fq37lWuk41XkeaBuC7Wjtg3H6XW4OHycBYHFl31jBWRtWPS7GKfUOWoxyaNsVmhZ1Ej330re1kMYLJZBAaxBsaQbQpQHg4CEwPgCUh8As0Ae5yINgyin7fPD1T/kZCfk7eDqofDV00Q1XufMPOcA96OehDJZmdAAoP9x+7LHHJk//lGze17/+dffv//7vSVD49re/3b3+9a9Pvh662267Jff3SQAo9wAK8vCYT37yk0kWccnSpcnPPITKz0XID8tLRjAW0t0LED9NNGwxI+uavchhd+z7sepXrpWOU53nAedUe1bd1n6Xm8PHSQBYXNk3VnA2zlPOvjzZP6K833WPj/MV0MiQ7VB1W+SRxgtjeTa8ejYAHA7zQZAgAeDtJ2oAuCAJAGX/ydc3BwFcqn8//Ktl6bC8AFD+/v6mm5KHwPzgkH8dBoCyDBKEFvkhePmapjz1Ux7acsIJJ7iHHnooLZnJ6aef7j772c8mD4kR5CcfDjjggOR1Hl/5yleS3wSMhXT3AsRPEw1bzOj6YndNd2Uv8SvXSsdJtmPY0ZuLddaFo626rf0uN4ePkwCwuLJvrOBsnHLPX/hXAsKyXwNt6hyUegctRjm07QpNizqJbIeq2yKPNF4Yy9IkwJIQS4K9QcA3JA0AL/r6Ue4ODQBvuDEJABfe7AO8JIArZjK+PAFUpk2Ur4RKcChfD73ZB4BXu/M/7wPA9CugMmcJAJcUCACF+++/P/kpCPndvm233dbtuuuuyX2Ay9J1EOQJofIzD4OHuixLHvqyxhprJF//1K98qvLzEG9+85vdK17xCvfjH/84mX5Z8lCayZLuXoD4aaJhA4BqSEcpa1pUK3LOWx2+KtZZF4626rb2u9wcPk4CwOLKvrGCs3FKxk8CPg0AV1p51VnjjLOpc1DqHbQY5dC2KzQt6iSyHapuizzSeGEszwaAg3BrBmnw9F8+ALw9/Qro0wskYLtpeB9fUZMffpevevppn/EBn9Qhvye4yNe3ZIEPAK+7euY9gENGB11yb98mm2zi/uqv/srtv//+yUNf5EEu8ld+vuG3v/lNMvxlL3tZ8lVQCfqUc8891+20007JvYDXXnutu/rqq2d40003uT322CN5OEwspLsXIH6aaNgAoBrSUcqaFtWKnPNWh6+KddaFo626rf0uN4ePkwCwuLJvrOCsiBIEyj4SrfJxNnUOSr3SXpTFT9RKO9YWsh2qbos80nhhLEUCwB8dJQ+BOcEtu+tW95Tfb8lXOIOfdCiijCu/9ycPkMkGgEslALzWB4CfLf8zEAsXLky+8ikZwCfTn3cIkXv5fvnLXyblkhGUewYV/f3AUchDZuQewaVL/LYhAwhQnCYaNgCohnSUsqZFtSLnfNjRm4t11oWjrbqt/S43h4+TALC4sm+s4KysfAU0PmQ7VN0WeaTxQgE0yMoPAH94jPwQvPwO4K3utz9Z4J7yAaAEcpLNK6NM8/RNcv/f4K8cA2EAeKEEgLc/GwAuW7osCbwm9dXLGL7ymSXdvQDx00TDBgDVkI5S1rSoVuScz3b2qlpnXTjaqtva73Jz+Di3lQDw/rucu/0n7Xjnne73Z8/3Hpi8NsdpwnvumEgAKPtFXH6FFYdZwD33nW+OO8qmzkGp1y9TafxErbRjbSHboeq2yCONFwowKgCU98vcD4/+urvFB4DL7r/NB4A3uqduGfwMxDMllPEla/jbWxa433h/e4vcE3hd8rMSi31Z9iugy/ys5SGkS5cs9oHYs/fxTTvp7gWInyYaNgCohnSUsqZFtSLnvNXhq2KddeFoq25rv8vN4eN85w7/4lZc861uxb/8u1b8ozW2cW//+50Sl/OvrXEa0a/j//fnrze3QVFl31jBWZ4XXf+AO/zoU5LXhxxxbKXAT23qHJR6By1GObTtCk2LOolsh6rbIo80XiiIBIASZD2b8Uq+FrpMHpbi3IVHfc395NvHuyV33eR+veAat/AnksGTAE6+3jl42udAfa9f/Xx2mIz/u5tvcL/5iQ8AE33ZzdclwxfJvYHXXenO/+wBw4fASPJtyZLBl1OfXSpIdy9A/DTRsAFANaSjlDUtqhU5560OXxXrrAtHW3Vb+11uDsf6lH1jBWd5SgB4xgXXJq+rfO0ztKlzUOodtBjl0LYrNC3qJLIdqm6LPNJ4oQTPhlryb5JzWyb3yy11Fx0jvwN4nHN33+IW3Xi9e0YCO/9Xgrenb5IgTl5b7wcB3vC9D/jkyZ/yRNDf3yz1XJvUt+RG+SH4q3wA+JkZD4GR/GORn4GYJtLdCxA/TTRsAFAN6ShlTYtqRc55q8NXxTrrwtFW3dZ+l5vDsT5l31jBWZ4SAMp+seQewLiQ7VB1W+SRxgslGYRaw1xgEgAucRd9/avujpN8AHjHLc5dd61b5oO2pTde5wO3a8u54Fq3dIGfdsENyd9l/v2y5O8NgwDwoE+5B2+7VeacfP1TlmGxXxp5UA0MSHcvQPw00bABQDWko5Q1LaoVOeetDl8V66wLR1t1W/tdbg7H+pR9YwVnbdjUOSj1DlqMcmjbFZoWdRLZDlW3RR5pvFCSTACY3gN40Ve+4u444T/dslsWuKVXX+O92i296ooKXum9yivTi/La13fVtW7RpZe4S//tQPfIbcFTQBMI/kLS3QsQP000bABQDekoZU2LakXOeavDV8U668LRVt3Wfpebw7E+Zd9YwVkbNnUOSr2DFqMc2naFpkWdRLZD1W2RRxovlOTZADBBfvrAc+Wpp7qjPvLP7qRP7edO/vSn3bf23c+dst8nvPsWdJ/k78n77ee+vd8n3bc++anEb39yP/et/fzr/T7tTv74v/iyfdwvH34omacgP+GwNAlCQUl3L0D8NNGwAUA1pKOUNS2qFTnnrQ5fFeusC0dbdVv7XW4Ox/qUfWMFZ23Y1Dko9Q5ajHJo2xWaFnUS2Q5Vt0Ueabwwd5JHcYo+EJOAcIZ+eClH1JHU7/+S8BtJunsB4qeJhg0AqiEdpaxpUa3IOW91+KpYZ11te8z8A90Bu3/ILKvbOuZVdVv7XW4Ox/qUfWMFZ23Y1Dko9Q5ajHJo2xWaFnUS2Q5Vt0UeabwAPSPdvQDx00TDBgDVkI5S1rSoVuSctzp8VaxS16orrWQOb8JfXXu123bLLYbvV19ttRnlVb34+GPdSYcekvt+lFWXoep+87vcHI71KfvGCs7asM7zOVTqHbQY5dC2KzQt6iSyHapuizzSeAF6Rrp7AeKniYYNAKohHaWsaVGtyDlvdfiqWKWuvADQL1riIxf9OHkvWbP7zj8vGfbE1Ve65ebNS4bpOOHrbB1XnHTijPfiXju/d/hasnFh0CZ1a7lVnzgq4BtXl5Znl0GnL2LV/SbzsoZjfcq+sYKzNqzzfA6Vev2xUxo/USvtWFvIdqi6LfJI4wXoGenuBYifJho2AKiGdJSypkW1Iue81eGrYpW6rABQgiZ9rRkyCfDC7J1f9LGvs8NGZQDDoM2q762bb54EnvI6XD5xVABo1RWWzyUDKPVV0aoP61P2jRWctWGd53NoeryVxk/USjvWFrIdqm6LPNJ4AXpGunsB4qeJhg0AqiEdpaxpUa3IOW91+KpYpa5sAJgN0iRLJhk8CQA1kyf6RR/7OjusSgCoy1dHAKh11RUAWsNx8sq+sYKzNmzquJB6/bFcGj9RK+1YW8h2qLot8kjjBegZ6e4FiJ8mGjYAqIZ0lLKmRbUi57zV4atilbqsAHD9tdYavpcAUL/iWSYAlIAt/Oqn/J1rACivwzL17nPPmfEVznBZrboIAPut7BsrOGvDpo4Lqdcfy6XxE7XSjrWFbIeq2yKPNF6AnpHuXoD4aaJhA4BqSEcpa1pUK3LOWx2+KlapKxsA6jDJtj11w3VuxeWXT4ZVCQAlcJTgTIeF9YXjyOsiAaAMF8MAVQ2nyXttBYDhMpSxzv2G9Sr7xgrO2rCp40Lq9cdyafxErbRjbSHboeq2yCONF6BnpLsXIH6aaNgAoBrSUcqaFtWKnPNWh6+KddYVm35TDV9ng9FJ2Odt3XVl31jBWRs2dVxIvYMWoxzadoWmRZ1EtkPVbZFHGi9Az0h3L0D8NNGwAUA1pKOUNS2qFTnnrQ5fFeusKzY1Kymv/WabVd62fd7WXVf2jRWctWFTx4XUO2gxyqFtV2ha1ElkO1TdFnmk8QL0jHT3AsRPEw0bAFRDOkpZ06JakXPe6vBVsc66cLRs63iVfWMFZ23Y1HEh9aZNRinC9ktNizqJbIeq2yKPNF6AnpHuXoD4aaJhA4BqSEcpa1pUK3LOWx2+KtZZF46WbR2vsm+s4KwNmzoupN60yShF2H6paVEnke1QdVvkkcYL0DPS3QsQP000bABQDekoZU2LakXOeavDV8U668LRsq3jVa+lk9Japrkq9aZNRinC9ktNizqJbuP0bS2k8QL0jHT3AsRPEw0bAFRDOkpZ06JakXPe6vBVsc66cLRsa2zTqn2DsP1S06JOItuh6rbII40XSrAs+Ls0cFKEy6DLBunuBYifJho2AKiGdJSypkW1Iue81eGrYp114WjZ1timVfsGYfulpkWdRLZD1W2RRxovFECCqzDoW+JdnCqvM7QQiy31M1nq57/ULUqUdzAg3b0A8dNEwwYA1ZCOUta0qFbknLc6fFWssy4cLdsa27Rq3yBsv9S0qJPIdqi6LfJI44UKZDOAGiBmI79weFlTgpdZliX/hcsAQrp7AeKniYYNAKohHaWsaVGtyDlvdfiqWGddOFq2NbZp1b5B2H6paVEnke1QdVvkkcYLcyQM2iQcC99XJTN9WGWeMCTdvQDx00TDBgDVkI5S1rSoVuSctzp8VayzLhwt2xrbtGrfIGy/1LSok8h2qLot8kjjhTkj8dcgD7fMLfbK37nHZGF0p3NIyQ6WvzAk3b0A8dNEwwYA1ZCOUta0qFbknLc6fFWssy4cLdsa27Rq3yBsv9S0qJPIdqi6LfJI44UChBGXjcZig3vz6orJdJ5So95vqMNSMm9BDnWAjtBEwwYA1ZCOUta0qFbknLc6fFWssy4cLdsa27Rq3yBsv9S0qJPIdqi6LfJI44UxSPC1KFUDsKJodCZqWKivQ8Py2Qymkv+WJM4MBO1pppl09wLETxMNGwBUQzpKWdOiWpFz3urwVVHbEGxHax8gNqEcb2mTUYqw/VLTok6i5176thbSeGEMEphJ8PdM+tcIAmfEYWFZGNyp8l7q0Pdan7y2kdLBGIPwb/Dev15Wx1dN+0e6ewHip4mGDQCqIR2lrGlRrcg5b3X4EBHVqn2DsP1S06JO0kQ/KY0XxiAhloRdqgZxARrLLX02oFu2VP6OYkToZsxCCJckmZMfILNcOqKqaSTdvQDx00TDBgDVkI5S1rSoVuSctzp8iIhq1b5B2H6paVEnaaKflMYLY5H4Ki/GWrpkiVu2RO7Pk0jsGT+iZAoX+wBQhj07bVHdMv/vMj/tMh/mLfN1imnZUh9ULvURXzJeisSZ6SiQku5egPhpomEDgGpIRylrWlQrcs5bHT5ERLVq3yBsv9S0qJM00U9K44XKSDC2ZPEiH4Et8//7QNAHboNngMrfqkh+7/ep+rXTQYC5LAkIZV4za1+2WIJPokAl3b0A8dNEwwYA1ZCOUta0qFbknLc6fIiIatW+Qdh+qWlRJ2min5TGC3Nm8ZIlyf14gvxbPfgrhsxPAkG3TILDZwNEGJDuXoD4aaJhA4BqSEcpa1pUK3LOWx0+RES1at8gbL/UtKiTNNFPSuOFAmhYpz4bbEm+bpEPxn755K/d3fc/7G6772F3xwOPuLvu/5l//3PTu3JeD97/LBl2Z+qzZX74vQ+5Bx5+xP3umUXJ/X/yCJhlEgAuXejfyJKAkO5egPhpomEDgGpIRylrWlQrcs5bHT5ERLVq3yBsv9S0qJM00U9K44UxSLAnGTbNtg3u8UvCLx+E/V7iQc8ZF1zmvnj0We64M69x3/jeNe6o0690X//ule6oM/zfwOS9Hz4clh1Hyr57lX898Cjv0X74MWdc4Y457VJ36NdOdQ/+/NFnHwaTBH6yXOmCQKePc5gymmjYAKAa0lHKmhbVipzzVocPEVGt2jcI2y81LeokTfST0nhhDBJYabglzvy6pQwRTj33MnfelXe5h3+z1N3z+BJ352NL3B2/LOft6d87ZXr9671L/eUz7qjvXOru/ekjyTwHIZ/8Wy74WyYPksncM5i9rzBLWK6v5R7IkHF1tEW6ewHip4mGDQCqIR2lrGlRrcg5b3X4EBHVqn2DsP1S06JO0kQ/KY0X5oQ+k/O0H1zpzrv6Xvfgr52777Gl7r5HnbvX/73n8XLKNPf64PHux527+zGpY9mgHv/6tl8udl89/TJ374ODAHCAzL9A4OWDMw36xgWA+jo7TAO+5PWSwRNJQ8LxJ0m6ewHip4mGDQCqIR2lrGlRrcg5b3X4EBHVqn2DsP1S06JO0kQ/KY0X5oA883MQBM0MABf7AFACucU+cCvnvY8tSrzbB4N3Pz4I/u7z7+/xf2/1AeCRFQPAMIAbhYyn6vhh4Ccmr4O6hsOCaSZJunsB4qeJhg0AqiEdpaxpUa3IOW91+LBZ7z73HNmfZlmojHPFSSeaZauutJJ74uorzbI6vfj4Y91y8+aZZZZ5yyXrvP5aa80aXsS5TItzt2rfQNqtrGlRJ2min5TGC4WZHWq1FQBK2dI5ZQCXpE8ODYM4IQzYsmWKBnbJX/ndQ/96STqdjq/T6vtJku5egPhpomEDgGpIRylrWlQrcs5bHT5s1tVXW83tuM3W7qRDDzHLLffa+b0zxm8yAPSHhjm8iASA/bNq30DbrtC0qJM00U9K44XCSGgzM7zpRgAYZvA0kBtHlUye1j9p0t0LED9NNGwAUA3pKGVNi2pFznmrw4fN6je9+9W1V8/IrEmQs+2WW7gP77jDcLgGU8fMPzCZRtWyX15xWfLXqme/3XZNxj3+swcPx89m8u6/4AfDOm864/RkmL4XD9j9Q7OCrwuPOSopk7qsQC+7XDpOth6Zt4wjdekyqm/aZJNk+D++fdvkfTitbDcpC8fHZq3aN/ATtdKOtUUT/aQ0XihMVwNAixtuuMF9//vfd9/73vfcD3/4Q/eDH/zAnXXWWcnf+++/3y1ZvDjJGj722GPuwgsvTMY9++yzk79nnnlm8ve73/1uMkyme+ihh6LI/gnp7gWInyYaNgCohnSUsqZFtSLnvNXhw+aUr1RKgCav/S6YESDJ+/ArnxIgabmVAdSA7tyvHelWXH755LXWc/ph/568l9eivJZAMgykdBodT+el44th8KV1a9mnPrDb8LUaLlc4flhPNoiTaXTd5LUGhLJe8lenfeqG62ZMh+1YtW/gJ2qlHWuLJvpJabxQmK4GgIt9MCeB3j777OM++9nPunPOOcftvPPObqeddnKf/OQn3ete9zr393//9+4zn/mM23zzzZPxFi5cmEz7jW98w6299truve99r9tll13c+973PveRj3zEvf/970/ef2C33dxrX/tad9hhh7mnn346mWbSpLsXIH6aaNgAoBrSUcqaFtWKnPNWhw+bU77++chFP05eS1AnWTZ5HQZI6rgAUMtEvzuTv9l6wvlJAKXBmdT3txtu4D7wzncmSn0afGpdYljfW33HbNzXVq3lkvej6pEyCUbzAjydVuvKlmOzVu0b+Ilaacfaool+UhovFMYKteyngMYVAP72t791u/lAbd9993V77LFHEsAdeeSRSTD4T//0T+41r3mN+9u//Vu3//77uw996IPuc5/7nHvqqaeSaU888UR3xBFHJK+Vm2+6aXBPYcq5557rTjnlFPe73/0uHTJZ0t0LED9NNGwAUA3pKGVNi2pFznmrw4fNqAGOBl3v23bbGdmyNgPAUcGc1iVmA7e8h9Ko2eWS9zL/UfVoNjJcvtAwABw3f6zfqn0DP1Er7VhbNNFPSuOFwnQ1AHziiSfc/Pnz3S9/+Ut36aWXui984Qvu8cceS16fcMIJ7l3vepf78Ic/7E4//XR32WWXuZ/+9KdJ1lC+0imB3cc//vEkOHynbze39e3mK17xiiRg3H777d3uu+/uDjzwQPetb33L/eY3v0nnOFnS3QsQP000bABQDekoZU2LakXOeavDh80oX8HUr3+qfjfMCpDUJgNAa1lUrUsM65NlyJtGleUKgzRrubL1hMsSzlvVafMyhNisVfsGfqJW2rG2aKKflMYLhZkdanXjK6C//vWv3cEHHzwMAI8++ujkvj/5CqhkBuUroG9605vcrrvu6v75n//Z3Xzzzcl0i595JgkADzjggORro/I1zw022MD9xV/8hdt4443d8ccfnwSNX/3qV5Pxnvrtb5PpJk26ewHip4mGDQCqIR2lrGlRrcg5b3X4sBk1GxYO02BoXAAo9w76XZYMy5aJUiZ/iwaAokzzyjXWSLKR8lrrk9cynvUQGC2Tv1YwKMu1+Ws3nDWOVY8o48tfHa4Pr9n41esNh4fTlv1ZCpy7VfsGfqJW2rG2aKKflMYLhelqAPirX/8qudfv4osvdscdd5z78pe/nHytU4I/+Yrnjjvu6D760Y8mQZx8JVQe8iLIEz0lwNtvv/3cv/7rvyb3/f3oRz9yt99+u/vxj3/stttuO/epT33Kfe1rX3Pf+c53hl8bnTTp7gWInyYaNgCohnSUsqZFtSLnvNXhQ0RUq/YNwvZLTYs6SRP9pDReKExXA0AJzP5hh39wL3/5y92rXvUq95WvfMUdc8wxbq211nKbbLKJe/GLX5y83mijjdzf/M3fJEGeIPf5yVdEJVC86KKLkgBSnh560003JX8lCLz66quTewblYTEEgAAlaaJhA4BqSEcpa1pUK3LOWx0+RES1at8gbL/UtKiTNNFPSuOFwnQ1AJSvgB40/yD3v0884a666qokAyhfA5WfbxDk/eWXX568/va3vz0cLshXRt/ylrck9/xttdVWyVNC3/CGNyR/JViU4ZtuumnylFG5bzAG0t0LED9NNGwAUA3pKGVNi2pFznmrw4eIqFbtG4Ttl5oWdZIm+klpvFAYOwAcDAkDwHsfW+LuHRkALsp5PQgA5a8Ef6IEfoN65vYQmM/sv7976OGH3QUXXJA8AVS+AipB3J577pnczyc/A7HXXnu5rbfeOvltP0Wmve2229wzzzzj7r777uRBL1deeWXyXpAnf/785z9PXi8r+CPzTZPuXoD4aaJhA4BqSEcpa1pUK3LOWx0+RES1at8gbL/UtKiTNNFPSuOFAmSDmmff648hfOe8q9x5V93rfvor5+56XFzq7v6lD5oeX5T/d8brwV+Z7s5f+uDvMZcodQ2ygc7d/vhi97XTL3X3pQHg+NBvwJNPPpn85IMGb1//+tfd//zP/7jzzz8/+TH397znPcmTPiXzJxm/8Kuc5513XvLUUAkCP/axj7nrrrsueYCM3FP4wAMPJNnFww8/3F1zzTX8EDxAWZpo2ACgGtJRypoW1Yqc81aHDxFRrdo3CNsvNS3qJE30k9J4oQDZUGvwWv5dlLxy7ozzrnTnXzEIAO/4pfNB3FJ3jw/o7vGBXTF/nwSBMt3tfvokAHxUAsBl7q5fDjKCdz222B192rMBYFGSewD/YXAP4Ktf/erkSZ/y8w3y9E/5GudLXvIS98pXvtJtttlm7q832sh96EMfco/+4hdJcCc/HyE/C/HQQw+5T3ziE8kDYATJ+v33f/93EjTK/YFyH6CMFwPp7gWInyYaNgCohnSUsqZFtSLnvNXhQ0RUq/YNwvZLTYs6SRP9pDReKEA2szU7APzeeZe7C6+4xz385CD7d48P2O57tKTydU8fBN77+NPugUefcT/9xaLk9b2PL3T3SzD56GL3n6de6u7/abkAUH4I/qCDDkoe2iJP/fzKkUcmAZ08yOX66693H/zgB5Ms30033ugW+GH33Xef+/3vf++uuOIKd/LJJyd1SHAnPyIvTwpdsGBBogR/8rXRX/3qV8m9g/LwmBjuA0x3L0D8NNGwAUA1pKOUNS2qFT3vERFHmTYZpQjbLzUt6iRz2RZ5pPFCBZ4NADXcOdMHgD/yAeDPfQA4uJdvibv/F66cSRD4e3ff40/54O/37sFfDILBex5bmDwIJskAfmfmV0DlX/lP31nIzzn85te/Tl7L1zSf+t3vkteKBG/y1dAQGU8CR7nHT5DA7nOf/7zbYostkvsE5cEwb37zm91pp52WlMt4kmnkHkCAEjTRsAFANaSjlDUtAgDoBNk2TEyLOkn0AeC5PgC8fBAASrAmD26599H0YTBFlYfHyHSPL3IP/GJpEhDe5V/f+Utxmbv1l4vdkWdcmjwEZjDvpd5F/l/JQw6eRloIP/GSpUt8sDZ4aMvChQuTh7rIaw3gJGhUdJgEeY8++qj7xS9+kfjYY4+5RYs0BzqAABCgBASAAPEgHaWsaREAQCfItmFiWtRJJhsAZoOawXv599kA8Ar3wyvudT/zAaAEcs8+2VOe6pk1HJ59LS7xAaBLlIe/3OGDP7mv8NbHfQB4+uU+APzvZJ5LfNC3JHkMjZgfAC71QdmSxYtnPaVTX4fD5Lf/wuBPkPLEzHBBhss0SljXpEh3L0D8EAACxIN0lLKmRQAAnSDbholpUSeZXAAoAY0EPmFgM3gtQwc/huDcd8+9yl1w5b3uoeQroBK4LfGmT/ospXzt8xn30/9e5h08DGbwVNH0KaCnXenu/amPDEsgAZ0GcBoEWgphubDUB3fDcZIhA3SY1C0BoI4fA+nuBYgfAkCAeJCOUta0CACgE2TbMDEt6iSTCwAlzJM834zwJ/lX8l7yBUh5970LrnPnXX6/eyB5CIxzdz4mP+XgA7rHfCCY+zf72vvoM8mw+36xzCv1LHZ3+OFS362PLnbHnHGlu//hZwPAZUv8sgUZuDzGBWh55VbWL3bS3QsQPwSAAPEgHaWsaREAQCfItmFiWtRJJh8AhoHQIFiS4G9h8sq5U8+9yp1/1X3u4d8Mfgbiniecu+9/ynuv9+7/51/7Ou733uXruet/B8Pu+n9L3NdOu8Td88Dgh9cHy+GDv2XZAHW6SXcvQPwQAALEg3SUsqZFAACdINuGiWlRJ4kxAJShv/ev5d3JZ13mTjnvOrfgp4+5S297zF1+l//rI8EyXuK9+M7B3ytu/R93pfeSOx53l975uLvM/73kjkfdEd+62N3/0KPJ/JOknTf5mmYHM3VNke5egPghAASIB+koZU2LAAA6QbYNE9OiThJjACih3zPyJE3/+vLrbndHfetcd/z3fuj9kTvhzB+74757iTvujOIe68f/xvfk72Xum6df7k70Hn/Gxe64713kjv/uRe7o0y523zj9Evf4//7Gz1zu1Uv+DEyWCIR09wLEjzZsiDh5tbMUao2HiBirfW3H0m5TLaTxwhgktMpm1/Seu2W+ZKlb4kdZvHSpW/jMIvf0M88kf+fq71PDYU/L30WL3TLJ+C1+Opl/8j/fAJ1BunsB4sdq5BBxMoYdJtUaDxExVvvajqXdplpI44WSSKQlEZcEgYPHwCQPUJH/gyBMQsOqzIzlZF6DDKTUmNS65Bk/0tN+vMXJTzzMHB/S3QsAAFCcsMOkpkUAAJ0g24aJaRGkpPFCBSTwk1BskQ/EFnrlQSwySEM0H7AtDdNy8jerMrssKdW3aZApf+XVoFb593c+4FziFvl5LvLjJaNCQrp7AQAAihN2mNS0CACgE2TbMDEtgpQ0XqiAhlty/5+EZen7JBMor30QKDfmJeSFZjI8ryyL1DUIDAdTyP1/Ml//3g+QLCA8S7p7AQAAihN2mNS0CACgE2TbMDEtgpQ0XoCeke5eAACA4oQdJjUtAgDoBNk2TEyLICWNF6BnpLsXAACgOGGHSU2LAAA6QbYNE9MiSEnjBegZ6e4FAAAoTthhUtMiAIBOkG3DxLQIUtJ4AXpGunsBAACKE3aY1LQIAKATZNswMS2ClDRegJ6R7l4AAIDihB0mNS0CAOgE2TZMTIsgJY0XoGekuxcAAKA4YYdJTYsAADpBtg0T0yJISeMF6Bnp7gUAAChO2GFS0yIAgE6QbcPEtAgAAAAAQrKdJjEtAgDoBNk2TEyLAAAAACAk22lCROyDaRMHAAAAACHZThMiYh9MmzgAAAAACMl2mhAR+2DaxAEAAABASLbThIjYB9MmDgAAAABCsp0mRMQ+mDZxAAAAAAAAAAAAAAAAAAAAAAAAAAAAAAAAAAAAAAAAAAAAAAAAAAAAAAAAAAAAAAAAAAAAAAAAAAAAAAAAAAAAAAAAAAAAAAAAAAAAAAAAAAAAAAAAAAAAAAAAAAAAAAAAAABQK1/4whfO+uIXv+hC58+f/9y0GAAAAAAAAPqAD/ZOkIDv0EMP3SIdJMOSIDB9CwAAAAAAAH1AAr0vfOELN6dvE770pS+9JhsUAgAAAAAAQMdJA733p2+HpIHhUelbAAAAAAAA6DoS6HkPTd8OSYfflb4FAAAAAACArpMGejMe+iIZwXT4g+kgAAAAAAAA6DpHHHHEKhoEZs3eGwgAAAAAAAA9JA0Cj0jfAgAAAAAAQB+Rr4NKAHjooYeukQ4CAAAAAACAPvKFL3zhUQkA07cAAAAAAADQB3ywd8HnP//5teS1/O6ff/+kBH9f+tKXVktGAAAAAAAAgH7gg70HJeALXBg+ERQAAAAAAAAAAAAAAAAAAAAAAAAAAAAAAAAAAAAAAAAAAAAAAAAAAAAAAAAAAAAAAAAAAAAAAAAAAAAAAAAAAAAAAAAAAAAAAAAAAAAAAAAAAAAAAAAAAAAAAAAAAAAAAAAAAAAAAAAAAAAAAAAAAAAAAAAAAAAAAAAAAAAAAAAAAAAAAAAAAAAAAAAAAAAAAAAAAAAAAAAAAAAAAAAAAAAAAAAAAAAAAAAAAAAAAAAAAAAAAAAAAAAAAAAAAAAAAAAAAAAAAAAAAAAAAAAAAAAAAAAAAAAAAAAAAAAAAAAAAAAAAAAAAAAAAAAAAAAAAAAAAAAAAAAAAAAAAAAAAAAAAAAAAAAAAAAAAAAAAAAAppMjvE96L/CuJQOgMlukrpK86xayzAd5X5O8q4+m6gUAAAAAAAAAAAAAgJ5xgtcF1pFceNCr9V0jA6aEHb3htpREIBRjY2943OS50CvbuS6282bnURVJ0B3lDet6v3euNFUvAAAAAAAAAAAAAAD0nDD5Iq/nQpiskIRNF+/imiuSSH3u4CWMQY6P8PjLS/Lt4ZWycLzVvHPBSgCKRVnD+ynvo16rHrFKsq6pegEAAAAAAAAAAAAAYMqQx1aGCQZJ5FUhm1SR9wB5SBIvTOwd6h3HWV4dfy6JQEmyaT03B6/FIlziDaeRhJ0mL8PhZZN1TdULAAAAAAAAADDNbObVz1We8S5I/27kVYqMUyfP8Z7jlfnJz78AAAA0xt5evciJW3vLIHd0hQkd+W08gFGECb0yj069y6vTSR1lCRNtcpxLQk3fi0WQJKIk56w7PsO6yibrmqoXAAAAAAAAAKCL7OJ9wht+LmJ5q3cdr4V8zvKwV8aznkAlFBmnbuaSBHypV7fLjd4VvAAAACORRIxcOMQnvWUeaRkmVuTOqiJI4lCShTpdnrJc4x4rKo9QDKfZwitIsiRMTop5jzyVRGiR36WT31G0yFuGcUgiatSjH1XZJ0WTP3nLIn+lnrAsVLaVPHqzaeSRqeF8y/wWZTZhXfSRs+Gdh+FdhFWSgKMI66ozWddUvQAAAAAAAAAAsRHelSdfAh+V5HqLNxw3iybMRt3VV2ScuuFOQAAAaBVJ+oUJs1O9RQgfrSgWeUTjNd5wGkn0yeNDJXklyyHJKnk8ZDiOJMryEpPZpFeYWJM7x+QRp3IxFSVhGZJNKkm5LIvOSxJUujySQKsjCSh1Zx9DKcsryyfTyTaU5Ja8tn4fblyiNbssUofuW9nW8o0mGUfnEd6VJ4ZJsiYI963MqwzZx9cW+XaWbFcdP7v/SQICAAAAAAAAAMRDeJdb0eSYNc1u3vDzlKzymVKRccoiyT1JTMrjRLUe+XxS7moMySYB5b18OV/XQzzJa93hOCqBqGWa0LTqvdTLTzkBAEwhkjzTi4E4LtlQNiEjiaXwTrQiF/LwbsG8RGA26SUWecSkJMHCaco+BjWkaBJQtkGYbC2ynEqYOJRtkXcXnLU9ijyiNay/bHKuDJJI1flIJ6gsOq046hiVbR0mUK1xZVhY31wJ66ozWddUvQAAAAAAAAAAMaGJuae8z5MBBQiTYtm7Adu8E/AwryyD1BMm/Vb3yhfTw/rDZdZpPunVux4lkaiJu+w6FUkC5tUry6KPPp3r+gIAQAfJ3qU16o6w8PGZcrfdOMomAJXwd+Dkzr0s2aRXmUeShtPl3eVXhKJJwDApVWSbZQkTddYjDoTssuSNl0WWOZxuY28ThEnA7J15RQiXMS8hFh7Hcvzk3UVKEhAAAAAAAAAAIB40kVY1CZj9jby2koBlk5ejEnmKPhY1u1xFk4B59YbjFP3cEAAAekSYdMtL0kgCS8fJ+529EEko6fhz0bpzLpv0KpNglMd9hnfmifJeElVlkmBFkoBz+S08JXz8at7detllKfPognC6ppJNsn90HkWOnZDsumWXUbZ7uD/HrTtJQAAAAAAAAACAeNBkWpmEnHz5W+9uy34uONckYFh31jDhqMnLokm1Ism6vOWaaxJQ0O2cTZoCAMAUIHf/yUVAlcRTiDwzOiyXxMw4sr8dWFUrKVkkATcOuStQLozZ399T5XcM5fGneRRZhuw2qEL2ka3Wtp/L9ginayrZlF2HvLv0LLLT6p2qsv/CO1PltYwr6z7K7G9PhmVVkrRhXSQBAQAAAAAAAADKESbdiiSowqSXdRdel+8EbCoJGI7DnYAAAFOKJBrkQqBqAkySLeGdVkUTEtm74Op81GQdSUALWWZJOoZ1S3LJ+i2+IsuQ/Q3FKr9BGCat8h57GnsSMJtklh8nLkreo0RlHcM667CpR5VWoal6AQAAAAAAAABiI0xSiZd6X+0Nkc/ZvuLVcfKSWW0lAcNllnqs3wSUMn1qVZFk3VyTgLos+3g1mbqVV+qUsjKPXAUAgB5yqlcvGPKIUCFMikl5GcK77KokWPJoKgmoZJNWkojLUnQZwketyvYocxecLEeYgM3rIMSeBBSyvz1pJVazZB8pO+rOzKLIOoZ1zpWwLpKAAAAAAAAAAABzQ5N9C7zh5yPyGdsnvfI52CjaSgIqkoQ7xKuJNvFWrzxZLaSNJKCUyfswWSp1neRdxwsAAFOOJKjCxN0RwWsZXpZsffK6yB2B+qjOvN93q5r0kvGyF2CLbBLQqr/MMsjvGup4kgArktTZ2xvWP+q37rqQBBTkG1rh/EatU/YRtFUe1WlBEhAAAAAAAAAAAPpCkeQiAADAkOzdV+pc7sIKk4mhT3rlDsHwbsPQvORH1aRXNgEkyuM+dRnCu/ZEWb685FPZZZB5h3f1her8rXJJIOrv4OXRlSSgIIm/cJ6qPOpUtkGYNBbltxnL3D05juwxMFfCuurcfk3VCwAAAAAAAAAA/YEkIAAAlEZ+u04uGmqZpNIoJJkl9UliK5twk2SPJIHkDrhxj4rUOwVVSYIVRZKZkpSU+YXzF2WZ5G61Ir/dN5dlkKSOLIOsryQadf6yTPLIValvXOIvZC7LEk5X1912RZBllEeEZpN+ovwOYJ2/IRki6xiu81wJ66pz+zVVLwAAAAAAAAAAAAAAAAAAAAAAAAAAAAAAAAAA9AW5W1EfUzoXAQAAAAAAAAAAAAAAACASSAICAAAAAAAAAAAAAAAAAAAAAAAAAAAAAAAAAAAAAAAAAAAAAAAAAAAAAAAAAAAAAAAAAAAAAAAAAAAAAAAAAAAAAAAAAAAAAEA/mT9//hoHHnjgCf6vE9PBAAAAAABR4fusl0h/Nf27RToYAAAAAAAAAACEbNIvazoaAAAAAEBUaBIwK0lBAAAAAAAAAJhK5o9J+mVNJwMAAAAAiIq8JGBWkoIAAAAAAAAA0Evml0z6ZU2rAQAAAACIiqJJwKwkBQEAAAAAAACgk8yfY9Iva1otAAAAAEBUVE0CZiUpCAAAAAAAAABRMr/mpF/WdDYAAAAAAFFRVxIwK0lBAAAAAAAAAJgI8xtO+iEiIiIi4rOSFAQAAAAAAACARphP0g8RERERMRpJCgIAAAAAAABAJeaT9ENERERE7IwkBQEAAAAAAADAZD5JP0RERETE3khSEAAAAAAAAGBKmU/SDxERERFxaiQpCAAAAAAAANBTfMBP0g8RsWb/9V//1b3iFa9wvpmd5Z//+Z+79dZbz334wx82p8261157uec+97nJtGuttdZw+Kh5WM6bN8994hOfGFtvGcet5zve8Q5zus985jNu5ZVXdn/4h3/o/umf/skcR9RlzC67KPN+61vf6l7wghfMmOcb3/hGt//++88YFxERi0tSEAAAAAAAAKCj+ICepB8iYsNqcsxKcmnyqkgCTpNlkgRbd911k/G33357c1yxaHKtbL15jlrPnXfeOanXKptrEnDbbbdN6pbhYTJVlmezzTarnNRERMTZkhQEAAAAAAAAiBQfsJP0Q0Rs2VHJsdBNNtlkZCJQyyVBVyRxVjS5VrbePMetp87n9a9//Yzhc00C5tWLiIjNS1IQAAAAAAAAYEL4gJykHyLihC2aBByVDNt1111nJQh1mDwC03rkZZHkWpV68xy1nlpnNoEnzjUJqNNL/eL666+fjBtOi4iI7UhSEAAAAAAAAKAhfMBN0g8RMTLnmgTU4VYCbdRdcOOSa1XrzVPXU6bLU37/MJtYHLec6qjfBFQ/8pGPuDXWWGM4P6mzyqNNERGxHkkKAgAAAAAAAMwRH1i/3wfYD4YBNyIixmHRJKB1t1yYWHv+85/vNtxwwxm+5jWvGSa7snWPSq7Npd48x62nLo/UGybmim6fIknA0HB+PCoUEXGy+ljlSf/3IO8qvl0GAAAAAAAAgKr44JqkICJiJBZJcmmCyzfhMxJk2267bTIs73cCxbxHbY5KAs6l3jzHrWeYeMwm5XR5Rj2CtMrdifxeICLiZCTpBwAAAAAAANASPvgmKYiIOCHD5Nef//mfu9VXXz1REl4yTJXfsgunK3Pnmya7wqReXhJwrvXmmbeeoq6jmJeQk6SjJkLDOvS9rEf20Z5h8tSaRuRxoIiIzUvSDwAAAAAAACASfHBOUhAREREREStJ0g8AAAAAAACgI/jgnaQgIiIiIiKakvQDAAAAAAAA6Ak+uCcpiIiIiIg4pZL0AwAAAAAAAJgSfPBPUhARERERsaeS9AMAAAAAAACAhPkkBREREREROytJPwAAAAAAAAAoxHySgoiIiIiI0UrSDwAAAAAAAABqYf6EkoLp7AEAAAAAosL3jS+x+q9NSdIPAAAAAAAAAFphfktJwXR2AAAAAABR0XQSkKQfAAAAAAAAAETB/IaSgmn1AAAAAABRUXcSkKQfAAAAAAAAAHSC+TUlBdPqAAAAAACiYq5JQJJ+AAAAAAAAANAL5ldMCqaTAwAAAABERdkkIEk/AAAAAAAAAJgK5hdMCqajAwAAAABExbgkIEk/AAAAAAAAAADP/JykYFoMAAAAABAV2SQgST8AAAAAAAAAgALMT5OC6VsAAAAAgKjwfdWzSPoBAAAAAAAAAAAAAAAAAAAAAAAAAAAAAAAAAAAAAAAAAAAAAAAAAAAAAAAAAAAAAAAAAAAAAAAAAAAAAAAAAAAAAAAAAAAAAAAAAAAAAAAAAAAAAAAAAAAAAAAAAAAAAAAAAAAAAAAAAAAAAAAAAAAAAAAAAACAyctev5NDRERERERERESci+lHTQAAAAAQC1anDRERERERp8+X/u0/uOX+eNXkr1WOiIg4yvSjJgAAAACIBTptAFEj52NWAAAAgCZ4rvdRr/Q35K+8BwAAMOHzJAAAAIAOQKcNIGo08RcKAAAAUDdhAlAlEQgAALnweRIAAABAB6DTBhA14QdxKgAAAECdWAlAlUQgAACY8HlSdDzHe45X9sNBMgAAAACAThtA3OgHcKEAAAAAdTEqAaiSCAQAgFn05PMkSZzt4b3KG177nvFe6t3O2xXmkgSUab/ile2wjwwAAACAntCTThtAXwmDEBUAAACgDookAFUSgQAAMIOOf560m1evcbd6s8m+F3gP8eo4T3mf542ZuSQB5Rqv035OBgAAAEBP6HinDaDvaMARCgAAADBXyiQAVRKBAAAwpKOfJ4WJsqKJvcO8Mr7cHbiRDIiUuSQBAQAAoK90tNMGMC3I+ZgVAAAAYK7Io8/kA8JQq9+RHUemAwAA6OrnSZt5ZTnLJPTkCzAPe2W6s2RASph0O8D7RPo661yShzLvS7xWvWLe8pzkzZvOWp5RCUQtk+ne5R21PNlpAQAAYNJ0tNMGMC1kO9ScnwAAANAU9DsAAKAwHf08SR8DWubxnmGC7EbvCl4hHJ6X6KsyP+WlXk0s7igDMsj8z/DqfOeyPOG0eUnAUfWGy0oiEAAAICY62mkDmBbkfMwKAAAA0AT0OwAAoDAd/TxprknAvDvv8hJfmhwLk2dyd58k764yPM6rSUZ9DGmYeBxF1eURiiYBRyX4yi4vAAAAtEFHO20AfUEeo3GXd63k3WzkfMwKAAAA0AT0OwAAoDAd/Typyh1r+ghRMbwjby5JtyKQBAQAAIC509FOG0DXkaTfQq+cb6HXeMOEYLZcBAAAAGgC+h0AAFCYDn+epHcDiuMSgaPGbToJmJd8VGT+h3i1rI0kYN56jFtWAAAAmBQd7rQBdJU9vNo5HuUFxjCxDVb3fsWr35AU5Y7FT3rHEQZJ4aNSAAAAIG70+h0KAABg0vHPkySxJTFv9rpnGT6iM2QuSbei6PTZZVLDZWsjCXiKN295qq4jAAAANEnHO20AXWY1r9z5l+04j7NJ9Nt7VTvv8vgPmXZfr9RDEhAAAKA7hP0NFQAAwITPk6aGIslFAAAAiBU6bQBRII8ALZoQPMG7irdu9BuBVZ7fLz9s/rBXf1xdk4kkAQEAALpDts8hAgAAmPB50tRAEhAAAKDL0GkDiA5JCMqjN/XDt1HWmRDUx3h+ziuPLF2Qvhfl7r68R6BYyUOSgAAAAN1Dr/uhAAAAJnyeNDWQBAQAAOgydNoAokY/gCvioV65I68q8ihPqedcbzbZp3f6SXn4I9+a7MsGAiQBAQAAuodcu7MCAACY8HkSAAAAQAeg0wYQNeGHcGXcwlsWTQLmfbNP7xTUxF74+4FXZQx/KFze/9hb9hGjAAAA0C567Q4FAAAw4fMkAAAAgA5Apw0gasIP4VRha++j3mzZQq88TrQKmtTT3/ULCR//Ed4JmAd3AgIAAHQP7U+EAgAAmPB5EgAAAEAHoNMGEDXhh3Bqlu28T3ovSd7NDU3eqXIXn76WO/6KJAAFkoAAAADdQ6/5oQAAACZ8ngQAAADQAei0AURN+CGcCgAAANAE9DsAAKAwfJ4EAAAA0AHotAFETfghnAoAAADQBPQ7AACgMHyeBAAAANAB6LQBRE34IZwKAAAA0AT0OwAAoDB8ngQAAADQAei0AURN+CGcCgAAANAE9DsAAKAwfJ4EAAAA0AHotAFETfghnAoAAADQBPQ7AACgMHyeBAAAANAB6LQBRMPG3i0yhh/CqdlxRAAAAIC5YvU7AAAATPg8CQAAAKAD0GkDiIbVvAu94QdvRXyNFwAAAGCuWP0MAAAAEz5PAgAAAOgAdNoAoqJsIpAEIAAAANSF1dcAAAAw4fMkAAAAgA5Apw0gOoomAkkAAgAAQJ1Y/Q0AAAATPk8CAAAA6AB02gCiZFwikAQgAAAA1I3V5wAAADDh8yQAAACADkCnDSBa8hKBJAABAACgCbJ9DhEAAMCEz5MAAAAAOgCdNoCoySYCSQACAABAU2h/IxQAAMCEz5MAAAAAOkDfOm3W+iAiYlymTTYAAMSFJv5CAQAATOjnAwAAAHSAvnXadB3ueWwZIiJGZh+uMwAAPUYTf6EAAAAm2rcPTYsAAAAAIBb61mnTdbA+fEZExMnah+sMAECP0cRfKAAAgIn27UPTIgAAAACIhb512nQdrA+fERFxsvbhOgMA0GM08RcKAABgon370LQIAAAAAGKhb502XQfrw2dERJysfbjOAAD0GE38hQIAAJho3z40LQIAAACAWOhbp03XwfrwGRERJ2sfrjMAAD1GE3+hAAAAJtq3D02LAAAAACAW+tZp03WwPnxGRMTJ2ofrDABAj9HEXyhAKfRaj5g1PUSgR7CfAQAAADpA3zptug7Wh8+IiDhZ+3CdAQDoMdI+ZwUohV7rH/3FLxAT6f/1F923oWkRAAAAAMRC3zptug7Wh8+IiDhZ+3CdAQDoMdI+ZwUohV7rrWQQTqf0//qL7tvQtAgAAAAAYqFvnTZdB+vDZ0REnKx9uM4AAPQYaZ+zApRCr/VWMginU/p//UX3bWhaBAAAAACx0LdOm66D9eEzIiJO1j5cZwAAeoy0z1kBSqHXeisZhNMp/b/+ovs2NC0CAAAAgFjoW6dN18H68BkRESdrH64zAAA9RtrnrACl0Gu9lQzC6ZT+X3/RfRuaFgEAAABALPSt06brYH34jIiIk7UP1xkAgB4j7XNWgFLotd5KBuF0Sv+vv+i+DU2LAAAAACAW+tZp03WwPnzuihtt+nr90AURsVFXWnkVsx1qyj5cZwAAesys64QXoBR6rbeSQTid0v/rL7pvQ9MiAAAAAIiFvnXadB2sD5+74vs+uFfyocuGG2/pDv3a9ybqB/c+OFmWVf/s+WZ528qyiPsdfJRZ3qYve/k6ybK8a5c9zfI2fcPf/UM0x4zsm5iOGVmOWI4Z2T+yLLK/rPI2leNWluVVr36t2Q41ZR+uMwAAPSa5NmQEKIVe661kEE6n9P/6i+7b0LQIAAAAAGKhb502XQfrw+euuOe+85MPXd741h3cedc8OlElWSDL8hcvWN0sb1tZFvG4M683y9t03Q02TZZl7wP+wyxv0/d8YJ9ojhnZNzEdM7IcsRwzsn9kWWR/WeVtKsetLMtGm25htkNN2YfrDABAj0muDRkBSqHXeisZhNMp/b/+ovs2NC0CAAAAgFjoW6dN18H68LkrkgTMV5ZFJAk4U5KA+ZIEtCUJCAAABsm1ISNAKfRabyWDcDql/9dfdN+GpkUAAAAAEAt967TpOlgfPndFkoD5yrKIJAFnShIwX5KAtiQBAQDAILk2ZAQohV7rrWQQTqf0//qL7tvQtAgAAAAAYqFvnTZdB+vD565IEjBfWRaRJOBMSQLmSxLQliQgAAAYJNeGjACl0Gu9lQzC6ZT+X3/RfRuaFgEAAABALPSt06brYH34HIsrrbyKfqiCiNio666/CUlAAAAoyoxrSCpAKfRabyWDcDql/9dfdN+GpkUAAAAAEAt967TpOlgfPseifOjuF5U7yDJyB1m+Md5BJndCWuVtqseMaJW3rR4zcgetVd6m444ZkoAAAGCQXBsyApRCr/VWMginU/p//UX3bWhaBAAAAACx0LdOm66D9eFzLJIEtCUJmC9JQFuSgPmSBAQAgAok14aMAKXQa72VDMLplP5ff9F9G5oWAQAAAEAs9K3TputgffgciyQBbUkC5ksS0JYkYL4kAQEAoALJtSEjQCn0Wm8lg3A6pf/XX3TfhqZFAAAAABALfeu06TpYHz7HIklAW5KA+ZIEtCUJmC9JQAAAqEBybcgIUAq91lvJIJxO6f/1F923oWkRAAAAAMRC3zptug7Wh8+xSBLQliRgviQBbUkC5ksSEAAAKpBcGzIClEKv9VYyCKdT+n/9RfdtaFoEAAAAALHQt06broP14XMskgS0JQmYL0lAW5KA+ZIEBACACiTXhowApdBrvZUMwumU/l9/0X0bmhYBAAAAQCz0rdOm62B9+Ny0b9xmO7fRpq93//jBvdye+87P9UWrr5F8qLLx5lsnH9A34eZvfLtbd/1N3Bv+7h/MclXGkWV52cvXMcvrcJt3vC+Zz7j13XaHDybLsuIfr2SW1+G7dtkzWRbRKg+V5ZDlkeWyyutwg423TJZl3Dxk/8iyFFnuqsqxIvWPO2ZkP8qyPP8Fq5vldSjbQ5al6DEjWuV1KcsiyvFjlat6zIzbhnNRtoksyyc/d4yZ3FNJAgIAQAWSa0NGgFLotd5KBpXx5z/7mfviF77g1ltvveHxuOaaa7rPfOYz7qcPPGBOg3FK/6+/6L4NTYsAAAAAIBb61mnTdbA+fG7alVf50yQ4bTIBUNQ2kkZFbSNpVNS2kkZFbSNpVFQ5VmI5ZmR7xHLMiHrMNJkQLqpsE1mW937wE2ZyTyUJCAAAFUiuDRkBSqHXeisZVNTDDz88Of5WWGEFd+kllwyHS2LwYx/9qNt6661njN+Eu+++e7IMRx11lFmOxaX/119034amRQAAAAAQC33rtOk6WB8+N63e4deFRwG2KY+PzDemx0fKsRLLMSPbI5ZjRtRjJoZHw8o2kWWR88oqV0kCAgBABZJrQ0aAUui13koGFVUTcPvss49ZrmqyMC8peN2117qVV17ZrbvuusO7B29csMBtscXg5xnUTTbZZJhs1Dots8tj1fWud71rRuJS1OWQ5dREpryX8efNm+eO/MpXhuPK67yyop5x+ukzlkvq2WnHHc07KGUdPrDbbsN5inLHZZX55kn/r7/ovg1NiwAAAAAgFvrWadN1sD58blqSgLYkAfMlCWhLEjDfsknAIn7rzIvNNq0J+3CdAQDoMbOuEV6AUui13koGFfWhBx90L3rRi4bHoSSwrr/uulnjSULtzW96UzJO9o49LZME2Pk/+EEyrMzdfaPG1eXL3qkonnrKKcl0YeJRk4AyXJbnhOOPH46v81HD5JsmJMO6RhnOJ5vEk+Xaa6+9hu/DbZxNbkoSUeup405I+n/9RfdtaFoEAAAAALHQt06broP14XPTkgS0jSkJiN2QJGC+ZZOA3AkIAAAlSK4NGQFKodd6KxlUxSsuv9xtuumg/yNKEi1MTGniSxJyt99223C4JtDCBJcOyybiLEclAbVM7iDceeedZynLEyYfrTsS1TChGC6/aCUy8xyVEM1aZNy87VpF+n/9RfdtaFoEAAAAALHQt06broP14XPTkgS0JQmIZSUJmC9JQAAAaJDk2pARoBR6rbeSQXM17+61s7///WSYPhZ0VNJNlMTiFsHjMtdee+1Zia68JGCZZJvaZhKwrnFHLVdZ6f/1F923oWkRAAAAAMRC3zptug7Wh89NSxLQliQglpUkYL4kAQEAYA5c4r3Lu1bybjbJtSEjQCn0Wm8lg+pQk3PZR1jq8COOOKJwMkzMS9BpfVaib9xvEWZtIwko6jIXWa5x45Zdx1HS/+svum9D0yIAAAAAiIW+ddp0HawPn5uWJKAtSUAsK0nAfEkCAgBABSTpt9CbtP2B13jDhGC2XAQohV7rrWRQETVh5qtKXHPNNd3rXvva8Jg0E3PhXYLWOOEdfHLnnzy2Ux8zaiXZ9O5CLZdlsh4tKsoy6qNA11tvvWRYmPBrKwkofuyjH52x3OG2yyb0wnUQZdxw22cTrVWl/9dfdN+GpkUAAAAAEAt967TpOlgfPjctSUBbkoBYVpKA+ZIEBACAkuzhTdr8MV5gDBOb5C1enc+t3mNSn/De6F3Bm8dLvTKeTn+WFyJAr/VWMqhp67x7DeuT/l9/0X0bmhYBAAAAQCz0rdOm62B9+Ny0JAFtSQJiWUkC5qtJwKKSBAQAgJTVvHLn34zrRAGb4Dnec7xS/44yoCSbeWVaSfyFryEC9FpvJYOaVO/cs+62w8lK/6+/6L4NTYsAAAAAIBb61mnTdbA+fG5akoC2JAGxrCQB89UkIHcCAgDAHJBHgBZNCJ7gXcVbJ5q4Oyh5V47dvDKtJg9JAkaGXuutZBBOp/T/+ovu29C0CAAAAABioW+dNl0H68PnpiUJaEsSMN9vfv/GYVLnOfPmucOPO98cr4xnXvaQe95fPPt7KB8/8EhzvJglCZgvSUAAAKgZSQje5U2uC2OsKyF4mDes91KvPAb0+GBY9nGgevfgM96NZEAKScDI0Gu9lQzC6ZT+X3/RfRuaFgEAAABALPSt06brYH343LQkAW0nlQT80tFnJ/NV85JhZ1/5c7fdTrsPxxuVjKs7wbbXZ2b+GP/Gm29tjlfG4753nfvjP3n2B/1jOAbKShIwX5KAAADQIMm1oaCHep/rrYImAfPuBNS7/TSxJ/N52PuU93kyIIAkYGTotd5KBuF0Sv+vv+i+DU2LAAAAACAW+tZp03WwPnxuWpKAtpNKAmYTds9dfgV38gW3zxovmywU//KV67rvXfLTWeOGSbu8+iZtHUnAMCk6ifUkCZgvSUAAAGiQ5NpQwS28Zcgm+bJkyzXRV8TsHYTQMnqtt5JBOJ3S/+svum9D0yIAAAAAiIW+ddp0HawPn5uWJKDtpJKAYvZOu/0OPmpGudwFuNFmb54xTt642aSitW2PPu0Kt8FfbzGjnv/zkjXd+z/8GTOpGCbs5A7EA//9pFnjWHVmDRN1VhJQ1vPd7/vYjOFbbfMu9/WTL50xrzD5Z1nXI0vHSRIwX5KAAADQIMm1IaOwtfdRb7ZsoVceJ1oWfbSn1CGJPk3ayfCPemW4ddefBXcCRoZe661kEE6n9P/6i+7b0LQIAAAAAGKhb502XQfrw+emJQloO8kkYDbJl73DL7wLUMq22W6X3HFH3QU4LnmmZqfL3oUYJh6zybxRjkoCjjN8BClJQFtdf5KAc7cP1xkAgB6TXBsyZtnO+6T3kuTd3Fjde6FX5yW/93eSdx1vUUgCRoZe661kEFb3umuvdSuvvLJbd9113U8feMAcJ1bp//UX3behaREAAAAAxELfOm26DtaHz02rSUCsTyt5Uda8RFs2QSjDswm0vHHDxEqYHMx7jGiYXAuTbmWWTacRw3lmf0cwuw7WMoXTW4m9Nh8HqvPBcpIEBACABhheZwIBSqHXeisZ1Bd3333QVz7qqKPM8iYkCQgxovs2NC0CAAAAgFjoW6dN18H68LlpuRPQdpJ3Aop5dwOGybIwURYmwHR49o5BHTdbdxHD6UfdCRguxxp/ufbw0Z3f/P6NIx9Lmk0CWsdAON9JJwEtuRMw37J3Ao5zpZVXMduzpuzDdQYAoMfMuk54AUqh13orGRSbmljbeuut3c9/9jP3xS98IXnvV8PN833k+QceOGP8ww+f+VMDofvss49Z5wd22y0pl/rO/8EPZtR344IFSbnOU1xzzTXdkV/5yozxRJKAECO6b0PTIgAAAACIhb512nQdrA+fm5YkoO2kk4CilWwLE11h8i2bRPv4gUfm3pWXl2DU8nGOSgJmf4PQ0tq/JAHrV7dFF5OA79jhH923zrx4ll897rtu/4MPd0ccc6rZnjVlH64zAAA9ZnjNCwQohV7rrWRQbGpizS92kqQLk2+nnnJKMnyFFVZwt99224zpRt0JmK0zm/gTH3rwQfeiFw36+Zo8VM84/fTh9GH9JAEhRnTfhqZFAAAAABALfeu06TpYHz43LUlA2xiSgGKY2Aq1Endlxs0m8uSuvSNP+q8Z4xx92hXube/+gFv1z54/I+GWlwQME4Blf4ev7iSgKIlQGX7SubeUSnJWlSRgvmWTgHvuO99sryZlH64zAAA9ZnjNCwQohV7rrWRQbI5LrOUl+4okAfPqlLsD3/ymN+VOL2odYQKSJCDEiO7b0LQIAAAAAGKhb502XQfrw+emJQloG0sSMJscU8O776qMK0rSTpMzo8wm3EbdCZi3DFmzddaRBMy7C7FsQrKqJAHzJQkIAAANMrzmBQKUQq/1VjIoNieZBMy7S1DUOwVJAkLs6L4NTYsAAAAAIBb61mnTdbA+fG5akoC2sSQBu+Ren3n290asxJvckRc+hnQSj+xsUpKA+ZIEBACABhle8wIBSqHXeisZFJuTSAKKOr38bqBVrr89GJaTBIQY0X0bmhYBAAAAQCz0rdOm62B9+Ny0JAFtSQKWN0wCFjGG/VynJAHzJQkIAGD3X3Hu+k07S2s8rK7fpr1H19VKBsVm1STg2d///vAckTv6pA79bb+iyTpN9Kmve+1rk+n0ffa3AkkCQozovg1NiwAAAAAgFvrWadN1sD58blqSgLYkAav7+SPPcBv89RazHgv6f16ypttqm3e5r598qTld1yUJmK8mAYu60aavN9urSdmH6wwATJ5J9vcQqzhN1z9dVysZhNPpNB3/04bu29C0CAAAAABioW+dNl0HK/huWpKAtiQBsawkAfPVJOChXz7ebIditw/XGQCYPJPs7yFWcZquf7quVjIIp9NpOv6nDd23oWkRAAAAAMRC3zptug5W8N20JAFtSQJiWUkC5ksSEACAJCB2z2m6/um6WskgnE6n6fifNnTfhqZFAAAAABALfeu06TpYwXfTkgS0JQmIZSUJmC9JQAAAkoDYPafp+qfraiWDcDqdpuN/2tB9G5oWAQAAAEAs9K3TputgBd9NSxLQliQglpUkYL4kAQEASAJi95ym65+uq5UMwul0mo7/aUP3bWhaBAAAAACx0LdOm66DFXw3LUlAW5KAWFaSgPmSBAQAIAmI3XOarn+6rlYyCKfTaTr+pw3dt6FpEQAAAADEQt86bboOVvDdtCQBbWNKAkoSR5ZFtMrb9i9esHo0x4wcK7EcMyQB8yUJCABAEhC75zRd/3RdrWQQTqfTdPxPG7pvQ9MiAAAAAIiFvnXadB2s4LtpV17lT2XbuTf83T8kiZRJ+rKXr5Msy7rrb2KWt+nGm2+dLMvzX7C6Wd6m2+7wwWRZRKu8bVf845WiOWbkWInlmJHtEcsxI+oxI8ePVd6msk1kWT6230FmOxS7fbjOAHSEF3j38C7wajt2l3cf7yhW917o1WnES73reKNhkv09xCpO0/VP19VKBuF0Ok3H/7Sh+zY0LQIAAACAWOhbp03XwQq+m/aN22znNtr09e4fP7iX23Pf+RP1796+Q7Is79jhH83yNt3xfbsny/KGrd9ulrfpB/f8ZLIsolXetn+75VuiOWbkWInlmJHtEcsxI+oxI8ePVd6msk1kWY445lSzHYrdPlxnADrAZt5bva9O3j3Lbl45/8QdZUDAc70Pe6VsFxmQ8hzvYV4ZfqN3Be/EmWR/D7GK03T903W1kkE4nU7T8T9t6L4NTYsAAAAAIBb61mnTdbCCb0REnKx9uM6E6Prg9JoeCl1BEnrneGW5D5IBKeHwbHJQ0URgON3E0O1vtTOIMdrRNqMSuq5WMgin02k6/qcN3behaREAAAAAxELfOm26DlbwjYiIk7UP15kQXZ/f37QAp8yOHssv9T7hfca7kQxI0bsAn/I+TwYYyN2Fsr5R3A2o299qZxBjtKNtRiV0Xa1kEE6n03T8Txu6b0PTIgAAAACIhb512nQdrOAbEREnax+uMyG6PlaSCPttB49lTeJZiT5NDpIERGzIDrYZldF1tZJBOJ1O0/E/bei+DU2LAAAAACAW+tZp03Wwgu+Y/c+Tz3P7H3y4++px33XfOvPiiSrLIMvyucP+0yxv0+O+c2GyLKJV3rbzv/DVZFmO/tY5ZnmbfvHIbybLcvjRp5jlbRrTMSPGdMzINonlmJFjRZZF2ptsG9SWfbjOhOj6WEki7LcdOpY1wSfLmvcoT70TMHuHYIj+nuBZybsJo9vfamcQY7RDbcac0XW1kkE4nU7T8T9t6L4NTYsAAAAAIBb61mnTdbCC75hdZ70NZbu7//OSNd26G2w6UWUZZFlW/JOVzfI2feWrBttFtMrbdrnl/ihZlpe9fB2zvE1X/bPnJ8vyFy9Y3Sxv05iOGTGmY0a2SSzHjBwrsizS3ljtUBv24ToToutjJYmw33bgWNbEnixjkd/x09/8s5J8RZKEraLb32pnEGO0A21Gbei6WskgnE6n6fifNnTfhqZFAAAAABALfeu06TpYwXfMvnOH98t2d3sf8B/uvGsenaiyDLIskjSwytv0uDOvT5ZFtMrbVpMoh37te2Z5m77xrTsky/KeD+xjlrdpTMeMGNMxI9sklmNGjhVZFmlvrHaoDftwnQnR9bGSRNhvIz+W9a498S7vVYaXerMJvXA6SfjJePp+1KNCW0e3v9XOIMZo5G1Grei6WskgnE6n6fifNnTfhqZFAAAAABALfeu06TpYwXfMkgS0JQmYL0nAfGM6ZkgCzrQP15kQXR8rSYT9tm/HctfQ7W+1M4gxOk1thq6rlQzC6XSajv9pQ/dtaFoEAAAAALHQt06broMVfMcsSUBbkoD5kgTMN6ZjhiTgTPtwnQnR9bGSRNhv+3Ysdw3d/lY7gxij09Rm6LpaySCcTqfp+J82dN+GpkUAAAAAEAt967TpOljBd8ySBLQlCZgvScB8YzpmSALOtA/XmRBdHytJhP22b8dy19Dtb7UziDE6TW2GrquVDMLpdJqO/2lD921oWgQAAAAAsdC3TpuugxV8xyxJQFuSgPmSBMw3pmOGJOBM+3CdCdH1sZJE2G87fCyv5j1o8LK76Pa32hnEGO1wm1EaXVcrGYTT6TQd/9OG7tvQtAgAAAAAYqFvnTZdByv4npR+sRARW/GDex9sJgBFkoD1o+tjJYmw33bwWN7Ru9A7bC+8W3s7iW5/q51BjNEOthmV0XVFzJoeItAj2M8AAAAAHaBvnTZdByv4npR+sRLlrjbrg/k21buSYrjjUBMSckebVd6mcpeWLIvc6WeVt21Mx4zecRjTXaoxHDNdvEuVJGD96PpYSSLstx06llfx3uVNzn/DB70yTqfQ7W+1M4gx2qE2AwCgMNq2haZFAAAAABALfeu06TpYwfek9IuVSBJwpiQB843pmCEJaEsSsJp9uM6E6PpYSSLstx08lrfwJm1Ajkd4J4UkImUZzvK+RgaMQ7e/1c4gxmgH2wwAgLFo2xaaFgEAAABALPSt06brYAXfk9IvViJJwJmSBMw3pmOGJKAtScBq9uE6E6LrYyWJsN92+Fg+ypu0BYbyuNCNvW2jScCsuUlB3f5WO9NlTzn7crfSyqsOt8HL1lzLrf+6TWcMmzdvOXfGBdea01dx1z0+ntR7+NGnmOVtGctyNGWH2wwAgFy0bQtNiwAAAAAgFvrWadN1sILvSekXK5Ek4ExJAuYb0zFDEtCWJGA1+3CdCdH1sZJE2G9lv6/6klcN2wFsxWFSUM89q53ponc+ssht9ea3Jev5xm22M8cRb334affCF704GW/Pfeeb45SVJGA76jHr1xEAoDdo2xaaFgEAAABALPSt06brYAXfk9IvViJJwJmSBMw3pmOGJKAtScBq9uE6E6LrYyWJsN/KficJODn13LPamS56yBHHJus1KgGoXnT9A8mdgdk7AnX4Outu4G558KkZ04RJRk2ynX7+NW6HXT7k1llvw2T4Rpu8PnkvHv2tc2bUueWb/n44vcxXpxGz82tiOfqgHrN+HQEAeoO2baFpEQAAAADEQt86bboOVvDdhPsffHjygQUiYhtayT2RJOBk0PWxkkTYb2W/kwRs3Ue9e3ufq+ee1c50zTAxVuTuPiuRJpZNvqmj7sDLSziqVvKyieXog3rM+nUEAOgN2raFpkUAAAAAEAt967TpOljBdxN+68yLkw8suINsttxBZtvFO8jaUo8ZSVZZ5W2qx4zcPWuVt2mRY4Yk4GTQ9bGSRNhv+3Yse9bwSpItaScML/A2Rd5vAg6Tft4Z6Pa32pkuqgmwIklAfSToXO8EVIskAa06w/LlV1jRXXPH42OnIQnIh+MA0C+0bQtNiwAAAAAgFvrWadN1sILvJiQJmC9JQFuSgPmSBLQlCRgvuj5Wkgj7bd+O5YA9vElbkeP7vXWjScDcpF8W3f5WO9NFTzn78mT7hsm0PPXuu2ySbRJJQF3usJwkoG2P2wwAmGK0bQtNiwAAAAAgFvrWadN1sILvJiQJmC9JQFuSgPmSBLQlCRgvuj5Wkgj7bd+OZQO58y9pM1IXeptIAFZCt7/VznRVTe6J/7z3Z2Yl0E787n8lyTUpH5dgC+8ovPSmh5M7B7XubJJt1O8RakJPyuXOw6+dcOaw7LhTLxiWhXU2sRx9cAraDACYQrRtC02LAAAAACAW+tZp03Wwgu8mJAmYL0lAW5KA+ZIEtCUJGC+6PlaSaC4+dcN17q2bb57sr+XmzXNXnHSiOd6vrr3arb7aam7F5Zd3j1z0Y3OcSXr3uee4VVdaya2/1lruiauvHA6/+PjBh/2j1i12+3Ys57CW9xKvPCo0KnT7W+1M15Vk2S4f+OgwwSZKAm6jTV4/IwmXZ5icE7ffabckYahJNutOu3AamZeOE97Vd+N9v3K7f+zTw3plvC8deeKsutQ6l6MPTkmbAQBThrZtoWkRAAAAAMRC3zptug5W8N2EJAHzJQloSxIwX5KAtiQB40XXx0oSzUVNAkqSbIO1107220mHHjJrvK4mAftg347lrqHb32pnsD7HPQ4Ui0ubAQB9RNu20LQIAAAAAGKhb502XQcr+G5CkoD5kgS0JQmYL0lAW5KA8aLrYyWJ5mKYBLz0hOOHdwUesPuHZow3Lgl4/wU/cB/ecYckESfTi69cYw13/GcPnjWuJuy23XKLZP5H7v/p4XSyHF/4l71nTTPOvCTguOFVlkHW9U2bbDJcT/E9b/07d9MZp5vjz9W+HctdQ7e/1c5gfZIErE/aDADoI9q2haZFAAAAABALfeu06TpYwXcZ3/WeDyQfICIiNu0f/uFzzKSdShIwXnR9rCTRXAyTgPK4TH3vZ5kkyHS8vCSgDpfxs4nDC485aphYC+8u1AScDJf5honCc792ZDK87B2HVZOAZZYh3AbZhJ9O08SdiH07lruGbn+rnUGMUdoMAOgj2raFpkUAAAAAEAt967TpOljBdxkP/fLxyQeHXbkLqE25c8w2pjvHxJiOGdkmsRwzmgiL4a5Q2R6yLOPuJCYJGC+6PlaSaC5mk4A6fK+d35vsQ00EWknAMGFoPUJU1GRbOF1eYk7VeefVaVk1CVhmGXTY3264gfvAO985S6kvux3rsG/HctfQ7W+1M4gxSpsBAH1E27bQtAgAAAAAYqFvnTZdByv4LiNJwHxJAtqSBMyXJKBtlSRgEfO2M0nA+tH1sZJEczEvCSgeM//AZD9KouwXl1yUmwQclfiykodlE3A6vgwLDadvOglYJOHZlH07lruGbn+rnUGMUdoMAOgj2raFpkUAAAAAEAt967TpOljBdxlJAuYbUxIQuyFJQNsqSUCrXOROwMmg62MliebiuESeJgLl9/0kaRYm80RNloWPDg3V6cPysgm4IjadBBStdWnDvh3LXUO3v9XOIMYobQYA9BFt20LTIgAAAACIhb512nQdrOC7jCQB8yUJiGUlCWhLErD76PpYSaK5WORuvouPP3Z4XGSTgKImx9SNX71ekmDT99nfCuxqElAM11USo/oo0A3WXjsZllffXOzbsdw1dPtb7QxW86LrH3AbbbrF8Fzafqfd3C0PPlW4HEdLmwEAfUTbttC0CAAAAABioW+dNl0HK/guI0nAfEkCYllJAtqSBOw+uj5Wkgj7bd+O5a6h299qZ/rgnY8sclu9+W1Jm/2yNddy679u08SVVl41GSa+cZvtzGmreMgRgy8V5NU5rhzHO8c24/2pAABRoW1baFoEAAAAALHQt06broMVfJeRJGC+JAGxrCQBbUkCdh9dHytJhP22b8dy19Dtb7UzfVCTgPPmLefOuOBas8xvBrfnvvNnlFV11z0+PrK+ceU43pJthiT8HvQm2z31IC8AQFRo2xaaFgEAAABALPSt06brYAXfZSQJmC9JQCwrSUBbkoDdR9fHShJhv+3bsdw1dPtb7UwfLJoEPPzoU2aUySM75W7BddbdYNajOq3pTj//GrfDLh9y66y3YTL8FWuvm7x/764fcedddtvYcqnjlLMvH96h+Pfv2Ckp18eGZpdfl2/LN/39cFnkTkf5m12XvjmmzbCSfllJAgJAdGjbFpoWAQAAAEAs9K3TputgBd9lJAmYL0lALCtJQFtNApbRqkckCTgZdH2sJBH2274dy11Dt7/VzvTBMGGniTVxsy3fkgyTZFw2OSiWTQKqVe8E1MeEWtNZiUxdPmsZ+m6mzSiS9EPE6l7ihRbQti00LQIAAACAWOhbp03XwQq+y0gSMF+SgFhWkoC2mgTkTsDuoutjJYmw3/btWO4auv2tdqYPWgk09dKbHh4m87LJvjaTgGF9o7SSgNby9d2gzVjDe0K4jRCxdkkCtoS2baFpEQAAAADEQt86bboOVvBdRpKA+ZIExLKSBLRtIgn4wb0PTuq1fMPf/UMyzpu2eYfZ7rVhH64zIbo+VpII+23fjuWuodvfamf64KgkoGol5iaVBCx6Vx9JQLPNKJoU5HGgADZbeLPnC0nAltC2LTQtAgAAAIBY6FunTdfBCr7LSBIw3y4mAc++8uduu512H27Hv3zluu57l/zUHBfrlySgrWwPWZY6k4BrrfOa5LeYLOV3l1ZaeRX3t1u+xWz32rAP15kQXR8rSYT9tiPH8gu8e3gXeLUducu7j3cUq3sv9Oo04qXedbxRoNvfamf64KgkoJQd8PkvJ/slWx4m5sKEndw9+MIXvXi4P+t6HGj4eM8vHXnijDJR5nvgoUcO35MELNRm5CUFSQIC2JAEnCDatoWmRQAAAAAQC33rtOk6WMF3GUkC5tvVJOBGm715uB37mAQMk5zPXX4Fd/IFt5vjTUKSgLZNJAG/debFZpsWi324zoTo+lhJIuy3HTiWN/Pe6n118u5ZdvNqm7KjDAh4rvdhr5TtIgNSnuM9zCvDb/Su4J0ouv2tdqYPhsm8rJL4e/u7d3HnXXabOa143KkXDJNz4vY77ZYk3fQ3/OpKAqoXXHnn8PcK1fVft6nb94BDZyT7SAJWajM0KUgSEMCGJOAE0bYtNC0CAAAAgFjoW6dN18EKvstIEjDfPiYBv/n9G93z/uJFwzJJoMmwt737A8NpxK22eZf7+smXzqjbml7qPuncW9y73/cx98d/svJw+letv8nY6cX9Dj5q1jhfOvrsYbkk+bSeMPln+Zx589zhx50/q742JQloSxKw++j6WEki7LcdPpYloXeOV5Y9TCqEw7PJQUUTgRNPRuj2t9oZxBjtcJsBEDskASeItm2haREAAAAAxELfOm26DlbwXUaSgPn2MQl43Peum5GsG+fGm289o/6y02fv1MtOPy4JGCb2SAKWkyTgZO3DdSZE18dKEvXBp264zh25/6fdqiutNDwGX7nGGu74zx48a9y7zz0nGW/bLbdIpvvwjjsk4y/n26ArTjpx1vhdt8PH8ku9T3if8W4kA1L0LsCnvM+TAQZyd6Gs88TvBtTtb7UziDHa4TYDIHZIAk4QbdtC0yIAAAAAiIW+ddp0Hazgu4yaBMT2tBIbdVk2CZgtF/f6zOHD8mxircj0YRJPDBOJc0kCqpN6HKjOE6u76p8939y2KknAeNH1sZJEXffi4491r1pzTXfTGafPGu5X3a24/PLukYt+PByuSUAp62viL7Sjx7Im8axEnyYHSQIiNmBH2wyALkAScIJo2xaaFgEAAABALPSt06brYAXfZeROwHyn4U5AuVssnF4clYQrMn12GcJEXZeTgEXkTkBb7gTsPro+VpKor8pdfm/dfPNZiT5NAq6/1lruiauvnDFNH+3YsawJPlnevEd56p2A2TsEQ/T3BM9K3k0Q3f5WO4MYox1rMwC6BEnACaJtW2haBAAAAACx0LdOm66DFXyXkSRgviQBqyUBz7zsoRm/+xcuw1znL5IELGbXk4Dj3P/gw802LRb7cJ0J0fWxkkRdN3ykpyVJwE4cy5rYk+Us8jt++pt/VpKvSJKwNXT7W+0MYox2pM0A6CIkASeItm2haREAAAAAxELfOm26DlbwXUaSgPmSBByfBBTX+Mu13ddPvjS3PLzbL5sglPoP+OIJSdk3v3/jjGXX8lFJQPHjBx6ZDD/p3FtmPZq0bUkC2lZJAlrtVZfsw3UmRNfHShJ12by7/UaVkQSMDr1rT7zLe5Xhpd5sQi+cThJ+Mp6+H/Wo0FbR7W+1M4gx2oE2A6CrkAScINq2haZFAAAAABALfeu06TpYwXcZSQLmSxJwfBJw7XVfNyvpp8pdepocDM0mArPu8P69hutgJQHzprfGbVuSgLYkAbuPro+VJOq6x8w/cHjc7bD1W9wH3vlOt8Haaw+HkQTs17HcNXT7W+1MF73zkUVuqze/zS2/worumjseN8eZBg85YvCbo4cffYpZ3mVpMwAagyTgBNG2LTQtAgAAAIBY6FunTdfBCr7LSBIw3y4mAZu2SBJxmiUJaEsSsPvo+lhJIuy3fTuWu4Zuf6ud6aK77vFxN2/ecu6MC66dMVyTg36VE1+25lpunfU2HL5/4zbbmePKeOu/btPElVZedTj+Outu4G558KkZ88iqiThxVFIyu2zW8lvKuuo0Yjbhp+V9SwTSZgA0BknACaJtW2haBAAAAACx0LdOm66DFXyXkSRgviQBZ0sScLQkAW1JAnYfXR8rSYT9tm/HctfQ7W+1M11Tk2577jt/VpkmxKyyrJqUy0vGaV1h4jDrKWdfPhwnfG2NG87vsKNOTpKN4+5k1HX9570/M0wgZpN9tz78tHvhi17cu7siaTMAGoMk4ATRti00LQIAAACAWOhbp03XwQq+y0gSMF+SgLPNPopTf48PB5IEtCUJ2H10fawkEfbbjh/Lq3kPGrzsJrr9rXamS2rCKy9xp0mzInfZFU0C5iUUreTbqGmy8xuXNAzLw7sIrTv+RiVGu2rH2wyAmCEJOEG0bQtNiwAAAAAgFvrWadN1sILvMpIEzJckIJaVJKCtJgHLaLVXXbIP15kQXR8rSYT9tqPH8o7ehd6wXdna2zl0+1vtTJfUxNiox3SGCTP17e/exZ132W1jxwt9xdrrzpom1HoM56gkpZV0zEsaXnT9A8mdgrqe45KARbZL1+xomwHQBUgCThBt20LTIgAAAACIhb512nQdrOC7jCQB8yUJiGUlCWirScAXrb6G2Q710T5cZ0J0fawkEfbbjh3Lq3jv8iZtjuGDXhmnM+j2t9qZLlkl2XXpTQ+7jTbdIpkuTMBZSTnxuFMvmDVuVr3zzrqLL28ZrflZyT3rDsNxSUBNGvbpkaAdazMAugRJwAmibVtoWgQAAAAAsdC3TpuugxV8l5EkYL4kAbGsJAFtSQJ2H10fK0mE/bbCsfx+ryTbZJpJPYrT+qA09AhvJ9Dtb7UzXXIud7xl77rLSwKKmlQbVSZ1jTNMEubNL7x78LRzrzSTfeOSgNwJCAAlIAk4QbRtC02LAAAAACAW+tZp03Wwgu8ykgTMlyQglpUkoC1JwO6j62MlibDfFjiWw6Rf1kn/Ht9RXmu5RHlc6MbeqNHtb7UzXXLU4zYlOffnz1/NfenIE2clwqzfChyVBBStxNq4ZJyqyxmON2p+Oi81+3jQcfPlNwEBoAQkASeItm2haREAAAAAxELfOm26DlbwXUaSgPmSBMSykgS0JQnYfXR9rCQR9lvjWB6V9MOa1e1vtTNdc1TC68qf/Lfb/WOfduust+Fw3SXpNuo3AfOSgKLePah39I16DGhWTezpIzrHzW9U3aOSgNbjQ/ug0WYAQD2QBJwg2raFpkUAAAAAEAt967TpOljBdxlJAuYbUxJQEjmyLJLYscrbdO8D/iOaY0aM6ZghCWhLErD76PpYSSLsty/+623dc567YnIOY/vquWe1M12zSPJumtRE5ag7E7uoHrN+3QCgXkgCThBt20LTIgAAAACIhb512nQdrOC7jCQB8yUJaEsSMF+SgLYkAbuPro+VJMJ+mzmW1/Ce4E3OaWxe3f5WO9NFNRHYt7vfyqp3D/YtAShm2gwAqA+SgBNE27bQtAgAAAAAYqFvnTZdByv4LuO73vOBMIhARGzMP3zOc8x2qI/24ToToutjJYmw3445lsclBSf9m4B5yHI/6rWWWbzAGwW6/a12BjFGx7QZAFAdkoATRNu20LQIAAAAAGKhb502XQcr+EZExMnah+tMiK6PlSTCflvyWM4mBWNNAip7eHVZLeX3DyeKbn+rnUGM0ZJtBgAUhyTgBNG2LTQtAgAAAIBY6FunTdfBCr4REXGy9uE6E6LrYyWJsN/27VjOQe78k3VUF3onngAUdPtb7QxijE5JmwEwCUgCThBt20LTIgAAAACIhb512nQdrOAbEREnax+uMyG6PlaSCPtt347lEazllQ9T5W7GaNDtb7UziDE6RW0GQNuQBJwg2raFpkUAAAAAEAt967TpOljBNyIiTtY+XGdCdH2sJBH2274dy11Dt7/VziDGKG0GQGOQBJwg2raFpkUAAAAAEAt967TpOljBNyIiTtY+XGdCdH2sJBH2274dy11Dt7/VziDGKG0GQGOQBJwg2raFpkUAAAAAEAt967TpOljBNyIiTtY+XGdCdH2sJBH2274dy11Dt7/VziDGKG0GQGOQBJwg2raFpkUAAAAAEAt967TpOljBN2IMXnT9A26jTbcYBqnb77Sbu+XBpwqXt+GdjyxyW735bW75FVZ019zxuDnONHjIEccm++Dwo08xy7G8fbjOhOj6WEki7Ld9O5a7hm5/q51BjFHaDIDGIAk4QbRtC02LAAAAACAW+tZp03Wwgm8spiaA5s1bzp1xwbXmODG66x4fT4K+MgkbXVeZ7mVrruXWf92miSutvGoyTHzjNtuZ01ZRk0p5dY4rb0vZltb+D7eXKNtsnfU2HL4Pl7vItl1n3Q3GJjh1m4ijkpLZZSt6/Opxo2aPnyrHFebbh+tMiK6PlSTCftu3Y7lr6Pa32hnEGKXNAGgMkoATRNu20LQIAAAAAGKhb502XQcr+MZiTmMScFzCa899588oq6ouY15948rbUJNu1jKUWb5xx5HWNSrhecrZlw/HCV9b44bzO+yok5Nk47g7GXVd/3nvzwz3dfb4ufXhp90LX/Tiqb8rsi77cJ0J0fWxkkTYb/t2LHcN3f5WO4MYo7QZAI1BEnCCaNsWmhYBAAAAQCz0rdOm62AF31jMvOSNPKZSEiubbfmW4eMqZZzwzq5sckin2fJNfz9Mssg04d1j2bvBdBrrLrEwMafJmtPPv8btsMuHhnVutMnrk/fi0d86Z8b0WUclqqx5qXNdxlesvW7y/r27fsSdd9ltY8ulDkmC6bb++3fslJSH+8HaV+F2l7vx5O+oJKkmvKztIWrSLK88dNS2FcclFK3k26hpsvMblzQMy0fta3FUYhTL2YfrTIiuD06v6aEALaPb32pnEGOUNgOgMUgCThBt20LTIgAAAACIhb512nQdrOAbi5mXvNHEkpXUqTKNqMmVMFFTNsGmaoJoVJIra1ifJtZESXTKMEnGWcs912XMSybllY9KQlnbXpfPWoZRamLMWi81XD/17e/eZZisHDVeqGzb7DSh1v4claS0tkPe9szuv1H7TCyyXbCYfbjOAMDkob+HXZPrH0BjkAScINq2haZFAAAAABALfeu06TpYwTcW00qmiKMSX6KVtBk3jZaHd3uNmmZUssaa/zjz1lW89KaHh/PKLstcl7FMEjCsb5RWEjBvu+dZJdkl28m6IzFv2x536gWzxs1qJYfVvGW05mftC+sOw1H7TLSOU6xmH64zADB56O9h1+T6B9AYJAEniLZtoWkRAAAAAMRC3zptug5W8I3FzEvejEssVUkCWgmduSbYrCROnnnrGmol5ua6jFWTgEXXbdx2z3Mud7xll33UttXlG1UmdY0zTBLmzS+8e/C0c680t+W4bcydgPXZh+sMAEwe+nvYNbn+ATQGScAJom1baFoEAAAAALHQt06broMVfGMx85Ip4xJLVhIuTOhIfV874cxhmdwRpmV5CZkwGSZ3nEkyR4ZnpxFH3T2W56hElZQd8PkvJ3Vmy6suY5UkoBhuxy8deeKMMlHme+ChRw7fj9tXeY563KbU+efPXy2Zf7ZO3fbhdKO2rWgl1sLtaiXjVF3OcLxR89N5qdntO26+ox7HiuXsw3UGACYP/T3smlz/ABqDJOAE0bYtNC0CAAAAgFjoW6dN18EKvrGYecmUuSQBZZob7/uV2/1jn9bALKnfSmipYZJQ3H6n3ZL5akLGStaE00j9oxJJYpj8ySrTW791F1p2GasmAdULrrxz+HuF6vqv29Tte8ChM/ZJ1SSgOCrhdeVP/jvZh+ust+Fw/nnbaVRSTtX11cStzrtIIlcTe/qIznHzG1X3qCSg9fhQrG4frjMAMHno72HX5PoH0BgkASeItm2haREAAAAAxELfOm26Dlbwje07l2QUTsYiybtp0kpuY3X7cJ0BgMlDfw+7Jtc/gMYgCThBtG0LTYsAAAAAIBb61mnTdbCCb2xfkoDdVBOB037326i7TrGafbjOAMDkob+HXZPrH0BjkAScINq2haZFAAAAABALfeu06TpYwTciIk7WPlxnAGDy0N/Drsn1D6AxSAJOEG3bQtMiAAAAAIiFvnXadB2s4BsRESdrH64zADB56O9h1+T6B9AYJAEniLZtoWkRAAAAAMRC3zptug5W8I2IiJO1D9cZAJg82pZgfa76klfN0hoP52Z6CANAfZAEnCC0cwAAAAAdoG+dNl0H68NnREScrH24zgAA9BT98DwUACB2SAJOEO3bh6ZFAAAAABALfeu06TpYHz4jIuJk7cN1BgCgp+iH56EAALFDEnCCaN8+NC0CAAAAgFjoW6dN18H68BkRESdrH64zAAA9RT88DwUAiB2SgBNE+/ahaREAAAAAxELfOm26DtaHz4iIOFn7cJ0BAOgw8sH4Xd61kncz0Q/PQwEAYock4ATRvn1oWgQAAAAAsdC3Tpuug/XhMyIiTtY+XGcAADqIJP0WevUDcvUaryYEs2Vim2zlvdAbzv9S73ZeAIA8SAJOEO3bh6ZFAAAAABALfeu06TpYHz4jIuJk7cN1BgCgY+zh1Q/Gy9oGL/U+4X3Ku44MCHiLV5ZDyp4nAwAAMpAEnCDatw9NiwAAAAAgFvrWadN1sD58RkTEydqH6wwAQEdZzSt3/umH5EVsg828Mq+zknczCROEJAEBwIIk4ATRvn1oWgQAAAAAsdC3Tpuug/XhMyIiTtY+XGcAAHqAPAK0aELwBO8q3iaRRKAk+2R+J3k39J6Tvj/Ou4IXAMCCJOAE0b59aFoEAAAAALHQt06btT6I2Jxr/M325nDEUaZNNgAATB5JCN7l1Q/PR9lUQvA53kO8Mo9nvAvS1yJJQAAYBUnACUI/HwAAAKAD0GkDiJowmFVjYm+vLJP8BQAAgO6S7W+M81Dvc71z5TCv1Gc9DlTqf9gr5TvKAACADCQBJwifJwEAAAB0ADptAFETBrNqLGgCUCURCAAA0F3Ca7r6qDHMUj6Er4Im+eTuv41kgMFuXpmHlSQEACAJOEH4PAkAAACgA9BpA4iaMJhVYyCbAFRJBAIAAHQT67qubO21EoILvfI40bnwUq/+HqAkA0/xHuO9MB0myiNBAQAsSAJOED5PAgAAAOgAdNoAoiYMZtVJk5cAVEkEQm/wB7RDRERExLgddNuGkgRsCT5PAgAAAOgAdNoAoiYMZtVJMi4BqJIIhF7gD2bzgyZEREREjMdBt20oScCW4PMkAAAAgA5Apw0gasJgVp0URROAKolA6Dz+QDY/aEJERETEeBx024aSBGwJPk8CAAAA6AB02gCiJgxm1UlQNgGokgiETuMPYvODJkRERESMx0G3bShJwJbg8yQAAACADkCnDSBqwmBWjYU5L5vV/uB0mB4C0eMX1PygKTQdFQCgq9zslbYsz0e9z/UCAEwE3xCZfbDQwWhDSQK2RJf7+QAAAABTA502gKgJg1k1Fua8bNrm/P6mBTgldu064xfU/KApNB0VAKDL5CUCSQACwMTxjZHZBwsdjDaUJGBLaN8+NC0CAAAAgFig0wYQNWEwq8bCnJdN2xwrWYT9tGvXGb+g5gdNoemoAABdJ5sIJAEIAFEg/a1xDkYbShKwJbRvH5oWAQAAAEAs0GkDiJowmFVjYc7Lpm2OlSzCftq164xfUPODptB0VACAPqCJQBKAABANYb8rz8FoQ0kCtoT27UPTIgAAAACIBTptAFETBrNqLMx52bTNsZJF2E+7dp3xC2p+0BSajtoJdPsjIiIizsW0a9EKYb8rz8FoQ0kCtsSkjw0AAAAAKACdNoCoCYNZNRbmvGza5ljJIuynXbvO+AU1P2gKTUftBJxziIiIOBcn0ZcL+115DkYbShKwJfR4CE2LAAAAACAW6LQBRE0YzKqxMOdl0zbH+oAB+2nXrjN+Qc0PmkLTUTsB5xwiIiLOxUn05cJ+V56D0YaSBGwJPR5C0yIAAAAAiAU6bQBREwazaizMedm0zbE+YMB+2rXrjF9Q84Om0HTUTsA5h4iIiHNxAn251cJ+V55+vFCSgC2hx0NoWgQAAAAAsUCnDSBqwmBWjYU5L5u2OdYHDNhPu3ad8QtqftAUmo7aCTjnEBERcS623Jf7lNfsf2WV8QInkQR8gXcP7wKvLsdd3n28o1jde6E3XP5Lvet4o0ePh9C0CAAAAABigU4bQNSEwaAaC3NeNm1zrA8YsJ927TrjF9T8oCk0HbUTcM4hIiLiXGypL/dc781emY/Z/8qq46a2nQTczHur99XJu2fZzavLtKMMCJB1fNgrZbvIgJTneA/zyvAbvSt4o0WPh9C0CAAAAABigU4bQNTI+Zg1Fua8bNrmWB8wYD/t2nXGL6j5QVNoOmon4JxDRETEudhiX+793ie9Zv8rq4wXGMvjQCWhd45XlukgGZASDs8mBxVNBIbTRYceD6FpEQAAAADEAp02gKiR8zFrLMx52bTNsT5gmIRP3XCde+vmmyfrsty8ee6Kk040x/vVtVe71Vdbza24/PLukYt+bI4jdR25/6fdBmuvPdw+r1xjDfe5j33UPXH1leY04t3nnuNWXWmlZPxtt9zCHCdr1XlNwq5dZ/yCmh80haajdoLYzjlERETslpPoy4X9rjwHow2NJQn4Uu8T3me8G8mAFL0L8Cnv82SAgdxdKOsS9d2AejyEpkUAAAAAEAt02gCiRgPZ0FiY87Jpm2N9wDAJNQkoCUBNqJ106CGzxhuVBAyTeP/49m1nJOGk/sP3+0RSdsDuH5oxnRjWu+M2W+fOX53LvCZl164zfkHND5pC01E7QWznHCIiInbLSfTlwn5XnoPRZviod2vvpNAknpXo0+QgSUAAAAAAaB46bQBRI+dj1liY87Jpm2N9wDAJwyTgpSccP7wrMJtEy0sCalJu1F2Eo9xr5/cm85PEn84jr665zmtSdu064xfU/KApNB21E8R2ziEiImK3nERfLux35TkYLde7vBt720ATfDLfvEd56p2A2TsEQ/T3BM9K3kWKHg+haRHA/9/em8DLVdR5+//POx98B30Hhxn1ZXzVcVxGkEXEFRUGGECQddxwQdRxEFQQdBBHBcKaBZCwJ4GwhxD2nYQlC0nIvt/seyCEhH3Ldrffv37VVZ26fatv35t0V5/T93n4PLnd51T3qT59lur6UucAAABAVqDRBpBpdH8sNSvE6rZdxjoY6mEYAmqw5p9rHcNLc5YLAX2Itz0j78bcPLTTcvy0z+++e6fLeu7Isupp3s4zpqLRjqZQVzQX+PUf+24QERERK1mPtlzY7ipnoVi3rFUg6IM9XUZ37uPn7/kXC/m6ExJmAr89hLpZAAAAAJAVaLQBZBrdH0vNCrG6bZexDoZ6WBoC+uk+cPMBXSwEDAPDngZz5UJFNRb27ciy6m3ezjOmotGOplBXNBf49R/7bhARERErWY+2XNjuKmehWFG9FGjptNDJRg3aqoUftadqyPhcxHHG0kAvfJ0GflrOP+/qUqGZwW8PoW4WAAAAAGQFGm0Amcb/CAzNCrG6bZexDoZ6WC4EVIf0Oc/WVUflrRs7usuRgOFovkqGgd5en/qU/OLb3+7gSccea+dVCibzYt7OM6ai0Y6mUFc0F/j1H/tuEBEREStZj7Zc2O4qZ6FY0bFG5e+NtxjDef9jhCrht4dQNwsAAAAAsgKNNoBME/5g9TYM/pgT62Coh12FgKoPAj/z8Y/b+/GVhoB+RJ+W6Sqc0/v5Xfzb0+1j/55dlfeXBQ2Xtz3LyoJ5O8+YikY7mkJd0VyQtX0OERER82U92nJhu6uchWJFfQgYspvx44WHUC389hDqZgEAAABAVqDRBpBpwh+z3obBH3NiHQz1sFIIqPpATo1dvlP1wZ5XQ8Ovfm6f4nMd8aev04AuFibGLDfyr7vLCl9TT/N2njEVjXY0hbqiuSBr+xwiIiLmy3q05cJ2VzkLxYrGQkCoAX57CHWzAAAAACAr0GgDyDThj1lvw+CPObEOBmxM83aeMRWNdjSFuqK5IIv7nK8TYqMa2+4REfOqP7a5pkUSwnZXOQvFihICJiI839Vj2wAAAACAbkCjDSDThD9mvQ2DP+bEOhiwMc3becZUNNrRFOqK5oIs7nNZrBNiNWTbRsRG1B/bXNMiCWG7q5yFYkUJARPht4dQNwsAAAAAsgKNNoBME/6Y9TYM/pgT62DAxjRv5xlT0WhHU6grmguyuM9lsU6I1ZBtGxEbUX9sc02LJITtrnIWihUlBEyE3x5C3SwAAAAAyAo02gAyTfhj1tsw+GNOrIMBG9O8nWdMRaMdTaGuaC7I4j6XxTohVkO2bURsRP2xzTUtkhC2u8pZKFaUEDARfnsIdbMAAAAAICvQaAPINOGPWW/D4I85sQ4GbEzzdp4xFY12NIW6orkgi/tcFuuEWA3ZthGxEfXHNte0SELY7ipnoVhRQsBE+O0h1M0CAAAAgKxAow0g04Q/Zr0Ngz/mxDoYsDHN23nGVDTa0RTqiuaCLO5zWawTYjVk20bERtQf21zTIglhu6uchWJFCQET4beHUDcLAAAAALICjTaATBP+mPU2DP6YE+tgwMY0b+cZU9FoR1OoK5oLsrjPZbFOiNWQbRsRG1F/bHNNiySE7a5yFooVJQRMhN8eQt0sAAAAAMgKNNoAMk34Y9bbMPhjTqyDARvTvJ1nTEWjHU2hrmguyOI+l8U6ZcHFjz4iu+6yi5xzyi+j8zH7sm0jYiPqj22uaZGEsN1VzkKxooSAifDbQ6ibBQAAAABZgUYbQKYJf8x6GwZ/zIl1MGBjmrfzjKlotKMp1BXNBVnc57JYpyxICJh/2bYRsRH1xzbXtEhC2O4qZ6FYUULARPjtIdTNAgAAAICsQKMNINOEP2a9DYM/5sQ6GLAxzdt5xlQ02tEU6ormgizuc1msUxbsTgh4xok/lmMPPqj4/M0pk+Sju+0m79t5Z1k7+mk7bczNQ3Ub7fQ+vuznd99dXp800U7zywzfc0if8+zrb+/Xt8O09+y0k+y3xx6ElF3Ito2Ijag/ttmGRSK0vVXJQrGihICJ8NtDqJsFAAAAAFmBRhtApgl/zHobBn/MiXUwYGOat/OMqWi0oynUFc0FWdznslinLLi9IwFjoV8syNMAMQwLfSgYBoDlyvoQcMLtt3Uqi9tk20bERtQf22zDIhHa3qpkoVhRQsBE+O0h1M0CAAAAgKxAow0g04Q/Zr0NQ+z4g71DtwlkHlPRaEdTqCuaC/z6j3Xq1css1ikLdjcE9AFfqeHr3p0+VY468MBikOeDwjAUjI0CLCchYPdk20bERtQf28x5JBlmYdE2WGihWFFCwET47SHUzQIAAACArECjDSDThD9mvQCQCLPDRTuaQl3RXODP87FOvXqZxTplwUohYLmRe5Uu/3nY/vtHX1caFIbzSiUE7J5s24jYiPpjW6FlkQbf5urKQrGihICJ8NtDqJsFAAAAAFmBRhtApgl/zHoBIBFmh4t2NIW6ornAn+djnXrV9J8//GG58fw+0XmlpqpT3vQhoPnaOukDPB/s+eka4C174jE7LRYe+oCwq6Cv9D3V0sCQELB7sm0jYiPqj23m/JAMs7BoGyy0UKwoIWAi/PYQ6mYBAAAAQFag0QaQacIfs14ASITZ4aIdTaGuaC7w5/lYp141NYvqYFehYKo64bZLh4aXAcXaybaNiI2oP7aZ80kyzMKibbDQQrGihICJ8NtDqJsFAAAAAFmBRhtApgl/zHoBIBFmh4t2NIW6ornAn+djnXrV1CyqS8NQMFWdert+FGB37vmH1ZFtGxEbUX9sM+eUZJiFRdtgoYViRQkBE+G3h1A3CwAAAACyAo02gEwT/pj1AkAizA4X7WgKdUVzgTvHZ8q/2+0T8rGvHBvtaETMs75dHZuHiJhX69FnYBYWbYOFFooVJQRMhN8eQt0sAAAAAMgKNNoAMk34Y9YLAIkwO1y0oynUFc0F/jwf69SrpmZRZf3JscfIksceKZZNVSfE1LJtI2Ij6o9t5pyeDLOwaBsstFCsKCFgIvz2EOpmAQAAAEBWoNEGkGnCH7NeAEiE2eGiHU2hrmgu8Of5WKdeNTWLKloa+pWaqk6IqWXbRuyZfp/prcbWSRb19dV2RSrMwqJtsNBCsaKEgIkIt+F6bBsAAAAA0A1otAFkmvDHrBcAEmF2uGhHU6grmgv8eT7WqVdNuwr9Sk1VJ0yvvw/h7f36Ruc3umzbiD3T7zNL1rf3KvN2rPD1LbQs0uDbXF1ZKFaUEDARfnsIdbMAAAAAICvQaAPINOGPWS8AJMLscNGOplBXNBf483ysU69eZrFOvcE3p0ySj+62mxx78EHR+dWQEJBtG7En+n0mFpQ1snk7Vvj6FloWafBtrq4sFCtKCJgIvz2EulkAAAAAkBVotAFkmvDHrBcAEmF2uGhHU6grmgv8eT7WqVcvs1inlL47faocdeCBuh0VPeeUX3Yqd8aJP+5Q5n077yxrRz/docyQPufJe3baSSbcfluH8qVlS9/L65er76OvWfbEYzYo1Hmf3313eX3SxLLvEasPIWDv3rYRe6rfZ2JBWSObt2OFr685vifDLCzaBgstFCtKCJgIvz2EulkAAAAAkBVotAFkmvDHrBcAEmF2uGhHU6grmgv8eT7WqVcvs1inVGqQ5kO72Hy1XJnYSD4N78zX3ClEjIVxXY0E9O8Tm9eT+hAC9t5tG3F79PtMLChrZPN2rPD1Ncf3ZJiFRdtgoYViRQkBE+G3h1A3CwAAAACyAo02gEwT/pj1AkAizA4X7WgKdUVzgT/Pxzr16mUW65TC7lyOs1KZ0kDOh3elodviRx+RXXfZpUM4WCkE7G7QF1paH0LA3rltI26vfp+JBWWNbN6OFb6+tmGRCG1vVbJQrCghYCL89hDqZgEAAABAVqDRBpBpwh+zXgBIhNnhoh1Noa5oLvDn+VinXr3MYp1S6AO10sts9qSMhm7hZThThYDdrQ8hYO/cthG3V7/PxIKyRjZvxwpfX9uwSIS2typZKFaUEDARfnsIdbMAAAAAICvQaAPINOGPWS8AJMLscNGOplBXNBf483ysU69eZrFOqfThXBiq+XsE+uCsqzKl9+HrSQhY7j3UciGg2pP6EAL23m0bcXv0+0wsKGtk83as8PW1DYtEaHurkoViRQkBE+G3h1A3CwAAAACyAo02gEwT/pj1AkAizA4X7WgKdUVzgT/Pxzr16mUW64RYDdm2EXum32diQVkjm7djha+va1okIWx3lbNQrCghYCL89hDqZgEAAABAVqDRBpBpwh+zXgBIhNnhoh1Noa5oLvDn+VinXr3MYp0QqyHbNmLP9PtMLChrZPN2rPD1dU2LJITtrnIWihUlBEyE3x5C3SwAAAAAyAo02gAyTfhj1gsAiTA7XLSjKdQVzQX+PB/r1KuXWawTYjVk20bsmX6fiQVljWzejhW+vq5pkYSw3VXOQrGihICJ8NtDqJsFAAAAAFmBRhtApgl/zHoBIBFmh4t2NIW6ornAn+djnXr1Mot1QqyGbNuIPdPvM7GgrJHN27HC19c1LZIQtrvKWShWlBAwEX57CHWzAAAAACAr0GgDyDThj1kvACTC7HDRjqZQVzQX+PN8rFOvXmaxTojVkG0bsWf6fSYWlDWyeTtW+Pq6pkUSwnZXOQvFihICJsJvD6FuFgAAAABkBRptAJkm/DHrBYBEmB0u2tEU6ormAn+ej3Xq1cuw/YHYiMa2e0TsrN9nYkFZI5u3Y4Wvr2taJCFsd5WzUKwoIWAi/PYQ6mYBAAAAQFag0QaQacIfs14ASITZ4aIdTaGuaC7w5/lYpx42vmYTsMbmISLWW3+OigVljWzezs2+vrZhkQhtb1WyUKwoIWAi/PYQ6mYBAAAAQFag0QaQGY43hj9eu+uZRgCoAWYHi3Y0hbqiucCf52Odetj4mk3AGpuHiFhv/TkqFpTVyr4DhxaPjeXc+b3vk8kLNkRfXw3zdm729TXrJhlmYdE2WGihWFFCwET47SHUzQIAAACArECjDSBT9DQIJAAEqCFmJ4t2NIW6ornAn+djnXrY+JpNwBqbh4hYb/05KhaU1cJ5azbJh//fx+S0s/pE56cyb+dmX1/bsEiEtrcqWShWlBAwEX57CHWzAAAAACAr0GgDyBzdDQIJAAFqjNnRoh1Noa5oLvDn+VinHja+ZhOwxuYh9tT/+P7vZJ9vnCSP3jJCHrxhmDw4pLEcMWi4rL3/SpFnLhJ58hL79wXzXKfHyufdR2+6S269Yqjs/IlvRb/vFPpzVCwoq5XDHx5vj4tXDB4enZ/CvJ2bfX21XZEKs7BoGyy0UKwoIWAi/PYQ6mYBAAAAQFag0QaQSSoFgQSAAAkwO1u0oynUFc0F/jwf69TDxtdsAtbYPMSeetx3z5RDj/61yMJ5snV2vEyunTNXNj59k7z74Hny7sMXmb/nysZnbrbTo+VzrjTNkefHjJP3/+sx0fkp9OeoWFBWC/1IQH9sLCeXA+2or69ZN8kwC4u2wUILxYoSAibCbw+hbhYAAAAAZAUabQCZpVwQSAAIkAizw0U7mkJd0Vzgz/OxTj1sfM0mYI3NQ+yphICNZW8MAbNi3s7Nvr62YZEIbW9VslCsKCFgIvz2EOpmAQAAAEBWoNEGkGlKg0ACQICEmJ0u2tEU6ormAn+ej3XqYeNrNgFrbB5iTyUEbCx7ewj481N/XzxGelPdKzBv52ZfX7OOkmEWFm2DhRaKFSUETITfHkLdLAAAAADICjTaADKPDwIJAAESY3a8aEdTqCuaC/x5Ptaph42v2QSssXmIPZUQsLHsrSGghn877fQeuXfklE7z/P0Cax0G5u3c7Our7YpUmIVF22ChhWJFCQET4beHUDcLAAAAALICjbbGJvb9ImJ63S4JOcN8cdGOplBXNBf47THWqYeNr9kErLF5iD2VELCx7M33BOwq5Os7cCj3BCzR19c2LBKh7a1KFooVJQRMhN8eQt0sAAAAAMgKNNoaG/+dxn7AIWLt5biab8wXF+1oCnVFcwHnhN6t2QSssXmIPZUQsLHszSMB9bh4xeDhneb5kYCHHnl8p3nVNG/nZl9fs26SYRYWbYOFFooVJQRMhN8eQt0sAAAAAMgKNNoaG/+dxn7AIWLt5biab8wXF+1oCnVFcwHnhN6t2QSssXmIPZUQsLHs7fcE1BF//hjp3XPv/WTOqnej5atp3s7Nvr5mHSXDLCzaBgstFCtKCJgIvz2EulkAAAAAkBVotDU2/juN/YBDxNrLcTXfmC8u2tEU6ormgiyeE3ydsPb+0+f+3Rqbh7Uztt03goSAjWVvDwHrad6OFb6+rmmRhLDdVc5CsaKEgInw20OomwUAAAAAWYFGW2Pjv9PYDzhErL0cV/ON+eKiHU2hrmguyOI5IYt1QqyGjb5tEwI2lr0lBNTLf+6003vk3pFTivcENKfHLuWegB319TXrJhlmYdE2WGihWFFCwET47SHUzQIAAACArECjrbHx32nsBxwi1l6Oq/nGfHHRjqZQVzQXZPGckMU6IVbDRt+2CQEbS0YC1s+8HSt8fV3TIglhu6uchWJFCQET4beHUDcLAAAAALICjbbGxn+nsR9wiFh7Oa7mG/PFRTuaQl3RXJDFc0IW64RYDRt92yYErK5t8+aILGja5vx50jJnVocy7U1zO5Zx5bbOntmh3PbYW0NAHRl46JHHR+epOr/W9wbM27HC19c1LZIQtrvKWShWlBAwEX57CHWzAAAAACAr0GhrbPx3GvsBh4i1l+NqvjFfXLSjKdQVzQVZPCdksU6I1bDRt+1ahYAaaDXPnS3TRgyX2/v1lRsvON/YR+6/8gpZO/ppG3xpGXXi7bfJbX0vLpbRv7f1u0ReeOYp+x6x9++2iUJADfqa58yUE48+Wv73e3aSD+y6q+y6yy7yQfP39z89SV6Z8Ky0m8/89tQp8q0DDpD37ryz/OPf/718wKjlPrf7Z6Tpwfvteom9f3ftTSHg6GkrZJf376rn725JCNhRX1+zbpJhFhZtg4UWihUlBEyE3x5C3SwAAAAAyAo02hob/53GfsAhYu3luJpvzBcX7WgKdUVzQRbPCVmsE2I1bPRtu1YhoIZiOirup8cdK5/9xCdk9VOj5JXJz8mTNwyx4ddX9tlbNs2cbkfFHfylL8lhX9tfXhzzjGx4dqwNCdeNHS3vTJtiQ8LY+3fbRCFg69zZstl8niMO+IYN+WTFUpFVy0WWL5VjDvo3+eA/7Go/67vTpsren/60/OYHJ4isLMyXZYtFFi+UZrPO9D1i799dGQkYn5/CvB0rfH1d0yIJYburnIViRQkBE+G3h1A3CwAAAACyAo22xsZ/p7EfcIhYezmu5hvzxUU7mkJd0VyQxXNCFuuEWA0bfdtOEQJ+cc89C5fAXL1CZMUy+fl/HC//573vlTcnP2cvg3nIl78sR3zj6/LqxPHyxqTn7Ki5t6ZMjr5vj00cAn7rgG/Iv33xi/LmlEny5tTJcs/ll8nfvud/y8nf/Y7IogXytpn21X32kX/+8IftqMEfHfUt+eGRR8r9Vw6UdrMuYu/dE7knYP3M27HC19c1LZIQtrvKWShWlBAwEX57CHWzAAAAACAr0GhrbPx3GvsBh4i1l+NqvjFfXLSjKdQVzQVZPCfUok6LH33EXibPfOQOvm/nne1IodhrdkTttP/obrvJsQcf1GnekD7n2WWfc8ovi9N6Wj6r+vWc1bp2tZ5TmMX9rZrWOgQ85XvftfvCP7z//fJ3732vfOT//l/5yykny2vPTZC2+fPs6Lcjvv512evTn5Irzv6DXPnHs+3fp2+8QVp29FKgauIQUEf97f4v/2I/x0DjE4Ovl00zptnLfOr6eMtszzoS8Nc6EnCVhqJLRZYutmHojo4CVHtrCNh34NDiOSJmrS8FqubtWOHra9ZPMszCom2w0EKxooSAifDbQ6ibBQAAAABZgUZbY+O/09gPOESsvRxX84354qIdTaGuaC7I4jmhFnUqF075UOjzu+8ur0+a2GHejtjTsKne4VS1JATs2izub9U0xUjAL3z2szYkk6WLbNilwZ8vo4/1cqDHHXKQLe/DMrV5Ry8FqiYOAY884Bty2P772+f+c3rDEPDUE74vsmyJyBKzThYtMOt/vl0fW7gcaI+dt2aTfPj/fUyuGDzcPl+4tlkOOfwYOe2sPsUyGhJyT8CO+vq6pkUSwnZXOQvFihICJsJvD6FuFgAAAABkBRptjY3/TmM/4BCx9nJczTfmi4t2NIW6orkgi+eEWtSpXDj17vSpctSBB3YYEXjGiT/uEBL54Kh01KCO0HvPTjvJfnvsUTZcjIVNY24ujDK5vV/f4rTtLR+Gl/6zaJ0m3H5bsawfSaj6esY+t+rXU1gP//pKy9f1VrqcmLHX6rRPfexjxXrX6vP5942t566+z2qZxf2tmtYyBNRLgH7/m4fLp812opfBbJ3XcWSfllEP/epX7bag29O//vM/yyc/+lHZ4xOfkEeuudreKy98TY9NFAJqYNk8Z6Zc/NvT5aLTT7OjGEvvZ6ifVbfzPr861d438PCv7W/8mv173MEHy/QRd0nbwvkdXtNTe2MIWC702/m975PJCzZEn9fCvB0rfH3NvpcMs7BoGyy0UKwoIWAi/PYQ6mYBAAAAQFag0dbY+O809gMOEWsvx9V8Y764aEdTqCuaC7J4TqhFnWIhoA+ESkOlmD6IC1/vQ6PYa7sKm3Y0BPQBV7nRixrGheFXLMRTS9dJV3UI37Or5VcaCVip7t0ps72fT+1OCFhpW9gRs7i/VdNahYCqjozTEE8vdxmb77VlVi7vbNPcHb9EZqIQMCv21suBjp62QnZ5/67F0YDq8IfH2+OMyuVAO+vra9ZPMszCom2w0EKxooSAifDbQ6ibBQAAAABZgUZbY+O/09gPOESsvRxX84354qIdTaGuaC7I4jmhFnWqFE6V6oOlUrMQAnZVVtWQLKxXd0My/7zc+3r98rcnBKxUd7VWn0/t6r0JAXfcWoaAmZAQMLl+n4kFZbXy56f+vsuRfowE7KyvrzkWJ8MsLNoGCy0UK0oImAi/PYS6WQAAAACQFWi0NTb+O439gEPE2stxNd+YLy7a0RTqiuaCLJ4TalGn7oaA5UKiLI0EVEuDMG/sfbobkvkReKWX0IxZbvk6vXQ9lVrutaG1+HxqV+uZEHDHJQRsLHtzCPiNg79p7w2ox5bSkX+EgJ319TXrKxlmYdE2WGihWFFCwET47SHUzQIAAACArECjrbHx32nsBxwi1l6Oq/nGfHHRjqZQVzQXZPGcUIs6dTcEVH1QZFaPVUOxZU88Zqd1NwRUS9/Hh1SxUG97yvvQzpdXy4VbsdeXWyel9Sj3vv71voy+j39tpfUcW0bpa1J9Pv86QsAdlxCwsezNIeChRx5ffD5vzaYOgeA5l1xFCFiir69ZR8kwC4u2wUILxYoSAibCbw+hblbmEADIDW63BQCAapGnRhv0HP+dxn7AIWLt5biab8wX16mTqVRXNBdk8ZyQxTohVsNG37YJARtLQsDO8/z9AgkBO+rr65oWSQjbXeUsFCtKCJgIvz2EulmZw2ULAJAD3G4LAADVIk+NNug5/juN/YBDxNrLcTXfmC+uUydTqa5oLsjiOSGLdUKsho2+bRMCNpa9NQTMgnk7Vvj6uqZFEsJ2VzkLxYoSAibCbw+hblbmcNkCAOQAt9sCAEC1yFOjDXqO/05jP+AQsfZyXM035ovr1MlUqiuaC7J4TshinRCrYaNv24SAjWVvCQF15N9OO71H7h05pcOlP7uSkYAd9fU16yYZZmHRNlhooVhRQsBE+O0h1M3KHC5bAIAc4HZbAACoFnlqtEHP8d9p7AdcKmP3+fF+5uMflx8d9S2Zde890dfi9uvvK1Xrex5116zVJ5UcV/ON+eI6dTKV6oqmZDfj+ca/t896QBbOCaVmsU6I1bDRt21CwMaSkYD1M2/HCl9f17RIQtjuKmehWFFCwET47SHUzcocLlsAgBzgdlsAAKgWeWq0Qc/x32nsB1wqfQgYC3903jV//pPsussu9gfbsQcf1GE+du0ZJ/7Yrrfb+/WNzk9t1uqTBTmu5hvzxXXqZCrVFU3Jx426XO8bxm6Fglk4J5SaxTohVsNG37YJARtL7glYfv6ee+8nc1a9G51fDet9rPjJscfY9sTf/93fyTmn/FLWPzs2Ws7r61toWaTBLCzaBgstFCtKCJgIvz2EulmZw2ULAJAD3G4LAADVIk+NNug5/juN/YBLZVchYKgPkGJB4PKRj8th++9v53t3ZATho9ddI/vtsUeH93p90kQZ0uc8+zwMsRY/+ogNKT+/++62TPg+4SjH0uCrNOBUdeTjzRdd2KGc6pehn730dbre+v/uzA7lfT1j6o/38D1L6+3Xc0z/Wm93P8OO1Mer3/Gvf3BCxWWpPV1f9ZTjar4xX1ynTqZSXdGUlIaApW42DjTqiMEOZOGcUGoW69Sb9KO0+Z83qm+jb9vHfOcM+ephvxJZsli2zp0nW+Y0mE2LZOMztwQh4DmycfStdnq0fM6VhQtl9djnZKePHxX9vlPo95lYUFZNR09bIbu8f9fSc2dZe0sIWGq5UNDX15RJhllYtA0WWihWlBAwEX57CHWzMofLFgAgB7jdFgAAqkWeGm3Qc/x3Gv5wS60PyiqFgG9OmSQf3W23DuX8tPftvHOnwE+DPPMRy4ZKMX14pK8LwyUNoA784hfsdHVHQ0DtVN3rU5/qVGff2aqfZ+3op4vTw3rp5w/r5j9n6WvUrkbeVQrdvLH1rvb0M6jbUx+/fH1daQg5asig4nqJfSc6vSfrqx4Gx1XMoeafisZelzGLoWAWzgmlZrFOvUlCwNqZctu+8fw+pft9zT3pR6fJqtv/KM2PnGdHyTWcDxgfuqAQAHr1uU6PlW8A5Ynz5ar/PkW+/83Dbbs4tX6fiQVltbLSSMAU6mfe+e8/FF0nKfy///iP0X28VB8Kfvzr37F1jpWpleafipa8hhAwEX6/DXWzMofLFgAgB7jdFgAAqkWeGm3Qc/x3GuswSuWOhIA+VDrgC/vJL7797U5qEFTpfUO7CqnKBXrbEwKWs9y6qBTYlav3joaAvvO3UlAY2tX32dP6dGf9+deFod72rq96GBxXMYeafyoae10GnW08PgvnhFKzWKdG0R8LvbH/OYIQsHam3LZ9CKgjemLza+Fpp/xFlt/6R2l+tI+8+2Ajel48BNTp0fI596HzREZeIFf87pfy1A1D6qLfZ2JBWSOrn/mfPvfv0XWSwsO/9rUO54qY//zhD9vjjO77/nuKlauV5p+KlryGEDARfnsIdbMyh8sWACAHuN0WAACqRZ4abdBz/Hda2nGT0q5Co9DSEWY9Ddh8MKTlQ31QVOn9ys3vKnAq9xqdrpe29HUoNQshoL+EZ7n7MPb0M6jbGwJ2tW2Eo0FzHgIehPnTfHGdOplKjb2uxv7AqMvtShv6GTuQhXNCqVmsU97VY2DsuOqPp+FxnxCwdqbctusRAh77nTPlgCN+JbJ4oWydM1u2zG4w5y6QjU/fLB3vCXiLnR4tn3NlwXxZM2aC7PzJo6Pfdwr9PhMLympl34GFY2BX7vze98nkBRuir6+GKY8VMWOXAw1Dv1J9fU25WBulJpqFRdtgoSWv2dcICfDbQ6iblTlctgAAOcDttgAAUC3y1GiDnuO/09gPuFR2J+jxoY6pcoeOyEpBVU/t6v30kqD+spRhHXzdYiMowktZ+td09XnLzdveUGt7QkBfh3KvC8v05DOo21Mf/5py33HsO9ve9VUPOa7mG/PFdepkKtUVTUnsnoCrjD8zdkkWzgmlZrFOeTYW9IXq8TE8fhMC1s6U23Y9QsDjvnumHHr0r0UWzpOts+Nlcu2cubLx6ZtKQsCb7fRo+ZwrTXPk+THj5P3/mm4bKtXvM7GgrBbOW7NJPvz/PianndUnOj+VKY8VMfW40VXoV6qvr21YJMIsLNoGC3VFITF+ewh1szKHyxYAIAe43RYAAKpFnhpt0HP8dxr7AZfKMHT6zMc/Ll/93D7W/fbYw07z/vS4Y6Ov9yGQf72/FKh/fbkgqJw+IPLv598nfFzaGRrWQTtPfTkNBv1oufA1YfkTjvhmh/qq1QoBfeetf099D39fvdh7ht+FlvffhVe/A1+2p59B7Wl9vOGyVK2LlvXPS+8VSAgIqTBfXKdOplJd0ZRoCNit0K+ULJwTSs1infKsDwG7Oj6G/1MLIWDtTLltEwLWQELA5Pp9JhaU1crhD4+3+84Vg4dH56cw5bGiGvr6arsiFWZh0TZYqCsKifHbQ6iblTlctgAAOcDttgAAUC3y1GiDnuO/09gPOOxod0bIIfZUjqv5xnxxnTqZSnVFc0EWzwlZrFPe7ep/Aikd1U4IWDtTbtuEgDWQEDC5fp+JBWW10I8E1H2nKxv9cqA91dfXrJtkmIVF22Chrigkxm8PoW5W5nDZAgDkALfbAgBAtchTow16jv9OYz/gsKOEgFgLOa7mG/PFdepkKtUVzQVZPCdksU6I1TDltk0IWAMJAZPr95lYUNbIpjxWVENf30LLIg2+zdWVrigkxm8PoW5W5nDZQnLajW3GFmOz+6vPt80pp8735oB2U882U2/VPPafrtX97fQpcvTRID1utwUAgGqRp0Yb9Bz/ncZ+wCFi7eW4mm/MF9epk6lUVzQXZPGckMU6IVbDlNs2IWANJARMrt9nYkFZLf35qb+3+085GQnYUV9fs26SYRYWbYOFuqKQGL89hLpZmcNlC9XBB1hdBFk6WQMwDf62GrcYN9u/7dLS1ibtrS2m0LZIsNHQz7/FfLSNRv3bGq4vo2aGqn0OUILbbQEAoFrkqdEGPcd/p7EfcIhYezmu5hvzxXXqZCrVFc0FWTwnZLFOiNUw5bZNCFgDCQGT6/eZWFBWCxeubZZDDj9GDj3y+A7PTzurj33uLxfqn9fKlMeKaujrW2hZpMG3ubrSFYXE+O0h1M3KHC5bqBE+zeqYaumjNvOPxnz6t72lXdqbjW7U3DsvrZclY5+VcTfdIo9ddZU8cf21MmrIYHly8A3y1KAbZNR1Q2TkdYPkyet12vUyqpPXOWPz1EHO0sed1fdXnxp0vTxtlmcdNMTWQ+szcohx8GDjIHliyCB5/IYh8ugNQ+XRITfKE2b6qOuukaeuu0rG3XqjzB/3tLz96ss2+Gs2H9587ALmb2tLq7HZrAONRzUm9TMBtuF2WwAAqBZ5arRBz/HfaewHHCLWXo6r+cZ8cZ06mUp1RXNBFs8JWawTYjVMuW0TAtZAQsDk+n0mFpTVQh/yXTF4eHGajgr0oaA6/OHxjAQs0de30LJIg29zdaUrConx20Oom5U5XLZQAzTi0zBLR/X5i18GaMblZ2vutck8cI9fmDVfnhl4ndx35h9kfN8B8vw998u6Bx6SNcPvlzV3PSir73pIVt1lHg8fYZ7fKWtGDOuh/jV3lDyPqO+vDjcOM8tT7zQOv9tMv9vURR0hq0cMl9X3DJdV946QFffeIyuNLz58n5l+m0wdeIncffav5P7LL5DVpn1QoE1aWjdLS8sWG/y1t281bjJTNxo3mdWj4yRL1hn0etxuCwAA1SJPjTboOf47jf2AQ8Tay3E135gvrlMnU6muaC7I4jkhi3VCrIYpt21CwBpICJhcv8/EgrJaqaHfnnvvJ3NWvWufj562QnZ5/652f/KGoWAtTHmsqIa+vmbdJMMsLNoGC3VFITF+ewh1szKHyxaqhCZ73jAE9EbCQB0K2GKmN2sSWGD13Lny1HXXyiPnnyvz77xN2ubPEVm8QNpnTJf2aebYPMs8n22cNUtk5nTzd5pRp6v6PGYwb6Z57F+nf4vvoX9L38M/17Lq1ILF8sbZ5rGxfc40aZs7XVrnzDB/Z4osmictsyfLmoeHy8gB58hDV/aVVQtMvS2FFLStrcUGga1tm8yzTWYtbTR/N5u5uj60DMA23G4LAADVIk+NNug5/juN/YBDxNrLcTXfmC+uUydTqa5oLsjiOcHXCbFRjW331ZYQsAYSAibX7zOxoKyRTXmsqIa+voWWRRp8m6srXVFIjN8eQt2szOGyhSrhA8BCwFUc2mctEwLasmaavQym0i5r5s+Vp4deLw/1O1/mjrhZNjdNk9aFs2TT7CnmfFPY5zbPnC5bVLcPbp05yzjTTDPP7V+vPtf55rEtO3NbWfs6fV7yOHiPwjSdN12aZ04tOGuqbJ01TTY7t1in2r+bTdlNs8z7m+VI01xpnvacrLr3Tnn8knPlwYEDZPWCJvc5DeajF+4B2G7WQKuxxUzygamuJ103ANtwuy0AAFSLPDXaoOf479Q3GBExrRxX84354jp1MpXqiuYCzgm9W7MJWGPzMN82XAg4c7q0zJ0tsmiBef/5Bd3jtnlziuVatczihdvKOG2ZoMN0u0wQAm6dPVOajU/dOEQu+M2v5c+/PFn+fPJ/yRVn/0GaHnpAZL6u25nS0jRX7ht4RaGMme/t86tTZcWoJ6Q1WCfba2++HKg/NpaTy4F21NfXrJtkmIVF22Chrigkxm8PoW5W5nDZQg0IRwL68K+9+F9HNAnTcoXHq82xd+QN18jdF50j04YPlXeaJsuWRTPk3XlTZcuC2eacM0s2zdQgUMO8WdKszphd0D7XvyUW55WUjT4u1b0ucKuZvsVaWoe50jJ9nrQZZc5CaZ48TVbdNUKe6HO+PHjpZbJ6vjkne/SKn5p96urRVULmBxVwuy0AAFSLPDXaoOf47zT2Aw4Ray/H1XxjvrhOnUyluqK5gHNC79ZsAtbYPMy3jRYCyrIlcmf//vYzHXfIwfL7n/1UvvfNw+X9/+fv5N++9EV5deJ4kaWLZUif82yZE444Qn7305/K6T/+kfzXd74jD151pbQtWhB9726bIARsmTNLmo36vX3985+Xl8ePk+amudL04P3yiY98RL6w52fl5Qnms65eKV/b93Py5b32kpaF82Xj9GnyzrQp8u70qYURIpH37qmMBOys3g9Qt6/wnoG1MG/nZl9fs26SYRYWbYOFuqKQGL89hLpZmcNlCzVCUy0fBurfcoQhoDm8N82TUYOvkwcuPlfmjrjFHOPN8XjJXNk8S4/vOtpuuh1xt22kXhqbi5aEgDNmSouxdfos4xxpnTZX2qc1icxeJM2Tp8uau++Rpy66WB7960BZs2Ch+5QGv1rM33bz1+eA1c4Ct2zZImvWrJGpU6fKrFmz5K233nJzttHa2mrLzJ07V5YvXy6vv/66tLRs+066iy7rxRdflIULF9r3eeONN6StravvfhubNm2SOXPmyF133SW33367TJgwQV5++eVuv7434HZbAACoFnlqtEHP8d9p7AccItZejqv5xnxxnTqZSnVFcwHnhN6t2QSssXmYbxsuBFy6WIYP6C/v/7u/k/G33yqilxRbtlhm3nu37PaBD8ig884RWblcbrygj/zD+98vy554XGTt8zY8lCWL7Oi52Pv2yIQh4InHHC0Hf+UrhdGP+jnM5/3OYYfJpz72MVk3drQNAb+x3+dln3/9V1k9doz5vI/JokcflpfGjY2+7/ZICBi378ChjAQs0ddX2xWpMAuLtsFCXVFIjN8eQt2szOGyhRoRxlpdRFs6q3Vb0LOmaZ48Neh6eeiC82TesJukZd50kUVzpHnGVGmeNl2ap880j/USnXoZzimy2Vi4JKdenlMvy7lNGxzax4V528r6x76cf+zL+ffwl/ucZpY33aqj6jfPnGmDyM2zzDTzWnuZ0BmmjKlX84xZ0maUufOkecokWX33MBl58bny0BV6OdBgJGCAfnqN3Py4yS7WVpfopUVVzzvvvCNjx46VPn36yLe//W35yU9+Itddd50sWbKkQ7m3335brr/+ejnjjDPk7rvvtoFgNAQsef9S1q1bJw8//LD0799fbrzxRhsGasCo6OteeOEFefTRR6Vfv37ypz/9Sc477zw599xz5XzTZjvrrLPkxz/+kRx99NFy8skny80332zruXnzZmlr25G10ji43RYAAKpFnhpt0HP8dxr7AYeItZfjar4xX1ynTqZSXdFcwDmhd2s2AWtsHubbRgwB7778Mvnb9/xv+ebXvyb/+e1vy8Ff+pLsussu8psf/KBQZvFCubXvxfZzf2DXXeXDH/qQfOgf/1G+tu++8tK4MR0uG7pdJgwBTz3h+/I3/+t/yT994APyIfNZPveZz8j1555jR/rppUB1ffzbF78gu//Lv8ijQwbZkY4PXDVQZt93jw08qxF6cjnQ8p52Vp/o66tl3s7Nvr5m3STDLCzaBgt1RSExfnsIdbMyh8sW0qN5Tmgw2mt1U5OMGjxIHrioj8y982Zpnj9T2pfMs4Hblhnm2D6jcAnOzWbf2zR7qmyaYzTzrLOnxfXzTFl9H/+4ON8/LnkPLWvv/aePrVrOv65QduvsKYUg0IaB06Rl5gxpM8q82dI8dYKsvud2GXnxX+ThK/p1uieg1VK4TGqbc0fRAG/x4sVyyy232KDt8ssvl8cff1yeeeYZGTx4sFx22WXyxBNPyOuvvyZvvvmGDebOP/98GwSuXLnSvUt52lpb5dVXX5Vnn31W/vKXv8jxxx1nw7vDDjtMvvzlL8tee+0l++23nxx88MHyH//xHzZc1DrccMMNNuw74ogj5NRTT5WhQ4dar7zyKhv66WjF5mZ/f8gCGiK2trZ0GT72FtxuCwAA1SJPjTboOf47jf2AQ8Tay3E135gvrlMnU6muaC7gnNC7NZuANTYP822jjgT8+112kRn3jBBZs8qO8NP7/WlwpqGXLGySG8zn1mCw6cEHRJYvlfamuTse/nkThoD6vR34xS/K21Mn23BT73Xogz37Wc362H/fz8nX991X5PnVdj3Y0ZFGfY/S990eGQlYP/N2bvb11XZFKszCom2wUFcUEuO3h1A3K3O4bKE+hCFYGALOb5JRQwbJ/Rf1kTnDb5Xm+bOkfUmTbNSAbsZM2TzDHONnzpJNZt/zQZx97J9rOa+dr49Ly/rHOi98HHsPFwDaUYIa/nUMHXXUoA8BdXSijhZsNUrTbGmeNkFW39u9ELCj24eGf/Pnz5fbbrtN+vbtK4MGDbLB2rvvvutKFMroNB2pd/nll8kpp5wi+5pz6Yc+9CH5p3/6J/nUpz4le+65p/Wzn/2sde+995YjjzxSrrjiClm0aJE0m/fQS39u2LBBZs+eLc+OG2dHHD700EM27Dv99NPlj3/8o9x6660yZswYmTFjhsybN88Gkb/97W9ljz32sEHh1772Nfn6178u3/jGN+SAAw6Qr3zlK7LPPvvYeccee6xceeWV9nW6LNDDOgAAVJU8Ndqg5/jvNPYDDhFrL8fVfGO+uE6dTKW6ormAc0Lv1mwC1tg8zLeNGAIO69dX/vZv/1bG3nqzDbvC+T4EHGI+t46g6/e7M+XeKwfK8EsHyK2XXCzP3XG7NJsyOzRCLlEIqJcA/eFR35Kv7LOPvD5pog0ywzL2sy5bIod+9av2O7ajBf/hH+WDOvrxgx+Uh66+qtP62R4JAetn3s7Nvr5me0yGWVi0DRbqikJi/PYQ6mZlDpct1JgKwZbOCkLANU1N8tSgQfLQBX1k3h23Ssu8Wfb8tlUvtzndXw5U79On93/Vy3huuxyov7xnZ/28bZcDLTz287ddDnTbNP9cl6OXAtVLkBbU+xFqEGnvCWjqUQj/1Bn2voGtRj2HNE97TlbfW/lyoB5dC+r2xIBvvfW2DfeuueYa+clPTrQj8j7xiU/IRz/6UfnIRz5iAz79++lPf9oGbQceeKD84Ac/kJNOOkl+85vfyH333Sdr1661I/z0Xnz6V+/pp6GfXiJUQ8Vrr71Wpk6ZIu+8/ba9V5+Giy+99JKsWrXKqpf/1Pv56ei/j33sY1Zdll6KVEcM6khDVS9J+txzz9nX6yVELzVtleOOO04uvPBCO10vR/raa6/Z+dtzb8JGxe22AABQLfLUaIOe47/T2A84RKy9HFfzjfniOnUyleqK5gLOCb1bswlYY/Mw3zZaCLhl9kx7KcxXJjwrm2Zop2SkzKxCmQ3jx8mLY0fL2jHPyIvW0fLqxPGR8j00QQjotSP7Fi+IzrPqKItFCwr3PCzRjny0ncOR1/VALgfafat9j8C8nZt9fc26SIZZWLQNFuqKQmL89hDqZmUOly3UAJvsBXYRBOrkDvcE9CGg3hPwZmlpmmmO9/MKx/Xp02XrdL3vnoZxPnirtYV7ARYCwMKlSDUE3Gz+qoWQUM/L7txs5mkQKE1zpXnaJFl973AZeUkfeWighoDBSMAAv3bCtdVT9HKZGsyV8uKLL8qDDz5oLwGqYd7rr79uy82ZM8degvOxxx7rdAnOkDfffNOO8tMAUC/nqaP6Nm7caO83qJcX1QDxkEMOkSOPPEIOOugg2X///eWEE06w5fWSpMpbb71lRwHqvQmvvvpqO92He1u3NstNNw2Vn/70JLn++utsmOjvIwgdcbstAABUizw12qDn+O+09McbIqaR42q+MV9cp06mUl3RXMA5oXdrNgFrbB7m24YLAbNgwhAwC/bWkYDDHx4vO+30Hrl35JQezaumeTs3+/pquyIVZmHRNlioKwqJ8dtDqJuVOVy2UGVsqmfUkEfDJf2rz8tFW2Z6+7bRXqua5smoIdfLffZyoLdI84IZ0r50rryrl+GcOV02z9QR7RrEmf0vhbN0eR1H0dv7EarmXK+XCN0WAhb+B5St5m/hcqATiyMBH7yif/xyoHa1hE/shO1i8+bNMm3aNBvuDRgwQC6++GI7Au9nP/uZHHPMMfLDH/5QzjnnHHuZzfvvv1/mzp0rkyZNsqPzdBSellfPPfdc+3oto/f9e+SRR+Q6U2bojTfa8hoMKhrkvfLKK+49rpPf/OZX8r3vfU9++tOf2suNatj3wgsv2BBRA0S9R6GGiGHoqIHiVVddJcea9pqONtTLmeo06IzbbQEAoFrkqdEGPcd/p2EjDhHTyXE135gvrlMnU6muaC7gnNC7NZuANTYP8y0hYA0kBEyuP0fFgrJa6EcCnnZWn+h8te/AoVUf+Vdq3s7Nvr7arkiFWVi0DRbqikJi/PYQ6mZlDpct1AANsnRUmoZ/nce3+bnFqe3bRn6tamqSkTYEPE9m33mzbJ0/Q9qWaAg4TTbOnG6cKZttCJjWrWZf13BPg77wvoKlIaCOGGw1yrzZ0jw1vCdgJAT0K2HbivAPtgu9fKZeTlNH4Wn4p/ff0wDwqKOOsvfe++Y3vymnnnqqXHDBBXLTTTfZwPDpp5+2z/U+fr/73e/kzDPPtGX+53/+x17ac/To0TYE1PsLDh06VCZPnlwMARUdWThhwgQb5J199tk2TBw+fLgNADXM08t6Ll++XFasWGEvL6qjEHXUoldH/Wnw99RTT8mCBQvsa3S6J3zc23G7LQAAVIs8Ndqg5/jvNPYDDhFrL8fVfGO+uE6dTKW6ormAc0Lv1mwC1tg8zLeEgDWQEDC5/hwVC8pq5ehpK2SX9+9aPD7GvGLw8Ohrq2Xezs2+vmbdJMMsLNoGC3VFITF+ewh1szKHyxZqhA+0vAX0kR8n6McItrVrClZgdVOTjBoySO6/sI/MHXZL4XKgi+fZwE1HAm6qSwhYuAehXh5Uwz4bAJp9f9Ps6bLZ1Eun+UuHNtsQ0NR53lxpnqojAcuEgGEAWKUQcOvWrTZ803Bv5cqVNlDTy4HqpTj1Mpx63z+9359eylPv9adlNJjTEYRbtmyxf736XEfsbdiwQcaNG2fv4zdkyBCZMmWKvbxnyOrVq+XOO+8sjjz8wx/+IGeccYb86tRT5de/+pX89vTTbSCplw495ZRTbMioj9Vf6XwzT8PH//7v/7ZBo34G/SzQEbfbAgBAtchTow16jv9OYz/gELH2clzNN+aL69TJVKormgs4J/RuzSZgjc3DfEsIWAMJAZPrz1GxoKyRzdu52ddX2xWpMAuLtsFCXVFIjN8eQt2szOGyhRrTMdjSR2EIaOO/IARcM8/dE/DCPjJv2K3SMm+WOa82yRYN4GwQp/fc02BO79FX0F+60z8vtVzZco87lA329eJlQGfNNM5yj6cXRgO6+m22dTTnkPlzpHm6uxzoJefIgwNLQsAoOxYCbtq0SUaOHCnnn3++vaTnbbfdJk8++aSMGDFC/vrXvxYvx6lB20knnSSXXHKJnf6jH/1IjjzySHvJ0GOOPto+1st66shALaP3E9RyOjJw+vTpnULAhx9+2N4XUO8HeNZZZ8nll19uRwaqV6pXXlnUT7/mmmusGk7qdA0PDzvsMHspUR0VWLoM0MM6AABUlTw12qDn+O80bMwhYjo5ruYb88V16mQq1RXNBVk8J/g6ITaqse2+2hIC1kBCwOT6fSYWlNXS0tGAfuRfdy4XWg1THiuqoa+vtitSYRYWbYOFuqKQGL89hLpZmcNlCzXCB1odgy19pJGfv1CopW1bCKgjAZ8eNEgeMefx+bffKq1zCiGgHWk3Y7o0zyiEgDakc/tgMbQL9svQcmXLPY6VVbfdC3CWUx8XLgtasBAQ6j0EpWmuNE97TlbdN0we73uuPHhlf1llPofHrxG/Lgrro939t33opTM1PNPgT+/99/vf/14GDhwot956qw3errjiCjsaUENAfT516lRZtmyZjB8/3gZvzzzzjL38p14idMyYMXbUnz7X+/n96U9/suGeXg5URxJ69PKeGjzqZUc1fNRRgduD1ltDQb2c6MSJEwkBI7jdFgAAqkWeGm3Qc/x3GjbuEDGdHFfzjfniOnUyleqK5oIsnhOyWCfEaphy2yYErIGEgMn1+0wsKKuFC9c2yyGHHyN77r2fzFn1bjH0Cy//yT0BO+vrW2hZpMG3ubrSFYXE+O0h1M3KHC5bqAo+3FMLIZb+G9oFQQi4pqlJnhk0SB7r00cW3BaGgNNl6/SZ0jxjVmEkoNn3NrsATi/HqaPx/D36rPrY6+cZY2XLvU7v8Rfu65uLIwBVfVwIAbe9rw8BZ5tzSJM0T5tUNgT060rdNjKy3Tze/hDQs2TJEnv5Tg0CBwwYYEfbaUDnQzwN6vQefWvWrLGXA+2K9evX23v86ajAvn372pGAOuLQo5cMfeyxx+SEE06Q//zP/5SHHnrIfPQme6lRXYaGjEuXLrXq41C9V6Cq9dHQUe8pqGGjhpJaL+4H2BG32wIAQLXIU6MNek7s+0XE9LpdEnKG+eI6dTKV6ormAr89hj/w620W64RYDVNu24SANZAQMLl+n4kFZbWwNPQjBOyevr6FlkUafJurK11RSIzfHkLdrMzhsoWqoHGNjmTzo9kKU3y8pX+7CHSCEPD5eU0y+rpB8qiGgDoScK4LAWdMly3TZ5q/hRBQA7dCCFhrdT/XewLq6MOCne8X6EcN+vptCwH1cqBPXHKuvRzoqpLLgfq1tE3/X8/REXmvvPKKvR+gXp5TR/xpIDds2DDpY9alXt7zgAMOkK9+9avyxS9+0V668zvf+Y4d5af3DVS2btki69atsyME9bUa/mlwePrpp9t7+d10002ydu1au6wC5vs2j3UE4cEHHyy77rqrfOYzn5EvfOEL8uUvf9n6pS99qaxf+cpXbH20Lnvvvbd88IMflGOPPdbew/Dtt992yzBLaTfrhECQYzoAQLXJU6MNAAAgJdqpVElXNBf483ysU69eZrFOiNUw5bZNCFgDCQGT6/eZWFBWK33wp/tPzFoHgGrKY0U19PU16ycZZmHRNlioKwqJ8dtDqJuVOVy2UBU0oqlGCOhHAj58QR9pGnaLtDTNFFnUZPe1jTMLI/E2F0fiFUbj2UDQaEfmVVF9z61ODR69W2fOli1W81gvTzrDzLfOlJYZs6RtxmyRuU3SPGWSrL57mIy8+Fx5+IqSewL6VdRhtXSa0G10RJ6OttP7/p122mly4okn2vv+nXfeeTYU1ICwEjrCb968eTbsO/PMM+176Oi+iy66yI7282FhSEtLi8ydO1fuuOMOe1nQ1157zc3pGZs3b7YjAPVSpjqCcNPGjdJutgsb/hEAWtxuCwAA1SJPjTYAAICUaKdSJV3RXODP86UdevU0i3VCrIYpt21CwBpICJhcv8/EgrJGNuWxohr6+hZaFmnwba6udEUhMX57CHWzMofLFqpGIf7zQZba8xBwddM8GTX4ennggvNk7rCbpXneDGldNFfemTVN3p49Xd6ZM1M2zp4lm+0ovMLIvOaZep9AHZFXXQvvWzL6z4WQXj8SsHMIOE+aJz8nq0fcIaMu/Is8cnk/WT0/HgK2t7ZJW2urDb2ggB3950NAsLjdFgAAqkWeGm0AAAAp0U6lSrqiucCf52OdevUyi3VCrIYpt21CwBpICJhcv8/EgrJq+/NTf2/3GTU22q/S/Gqa8lhRDX19zbpJhllYtA0W6opCYvz2EOpmZQ6XLVSRINmybs9IwHny1JDr5cGL+8jc4bdK8/yZIivmy6YFs+TdebPknbnmrwsBCwFgbfUB4CazTF3uO/p3TsGNs2fa0YJ670B7z0IbBs6UthmzRObp5UAny+r7hsuoS86VR0pHAuoq0Y+tmlWjQWBrS4u0tbZIezthIHTG7bYAAFAt8tRoAwAASIl2KlXSFc0F/jwf69Srl1msE2I1TLlt1yME/I/v/U6+cfjJsmbcs7L8qWdk2ZON5ZKnxsm6h6+X1+87V167/wL798WHB9npsfJ5d83osTLl3kdkl08fHf2+U+j3mVhQVi395T8PPfL4TtN0H1JTXAI0NOWxohr6+mq7IhVmYdE2WKgrConx20Oom5U5XLZQRcIAUIMsTbp82hULAdulvd3Mb2suPl89b56MGnSd3H/heTJn2C3SPH+6tC6ZI2/NniJvzppWGAk4V0O5GbJp5nTZbJ3h9M9LDeeFZcs9Lqjvr26cNV3eMct7a65zjnOujkycJptnTTXlpxbKzyqMIJR5c6V56kRZfc8d8sRF58hDf43cE9CsltaWdmlr1fWgtkmbkdFvEMPttgAAUC3y1GgDAABIiXYqVdIVzQX+PB/r1KuXWawTYjVMuW3XIwRErLZ+n4kFZdVy9LQV8oEP7Sb3jpzSYfrwh8fLTju9p9P0FKY8VlRDX99CyyINvs3Vla4oJMZvD6FuVuZw2UKNCAPBjqGWPtNYsBANmmftOlqwgB0JOPh6eejC82TesJultWm6tC+eLRtnTZKNM6bI5lnTZcucmbJ5tt4PcLpsmj3NPJ7h1MfTI+o8/VtaNva442s3zZkmG60zrO/O3ebGuYX5m2dPMccCdZpsNXVqmTVTZP48aZ4+SVbfd6eMvKTzPQF90Ndm/rQat62PggCluN0WAACqRWmDTXWzAAAAejXaqVRJVzQX+PN8rFOvXmaxTojVMOW2TQiIjaDfZ2JBWbXUEHCX9+9q95fuyuVAO+rra9ZNMszCom2wUFcUEuO3h1A3K3O4bKFG+DirY6ylj3zgVQwB7UhAndMiLzTNlbFDBsnjF54n828bKq2zpogsnCMye5q0z5gmbcaWmdOkecZU2TpjimyZOVk2z5ziDB+XU0ft6d/uvm6yXYYuL2aLqUPLjMnSOl2dajR1NMrc2dI8ZbysGnGrPH7B/8iDl14sq+bPM5/R4VaL/tGxkhqDNps10mJss1MBOuJ2WwAAqBZ5arQBAACkRDuVKumK5gJ/no916tXLLNYJsRqm3LYJAbER9PtMLChrZFMeK6qhr2+hZZEG3+bqSlcUEuO3h1A3K3O4bKHGuLTLoY/CUW8WvSRo4YGsnjNbnrnmanmizzmy9K7bRRbNFVm6QGTmNOMMkdmzbcAmc2aZvzMLznH656WG88Ky5R6XltVlmXptc47T1aNYzjyfrdNNnRctFDHHh3UP3C2jLz5PHr+snx3l6LFXQdWPHeR9hfhPDSYCONxuCwAA1SJPjTYAAICUaKdSJV3RXODP87FOvXqZxTohVsOU2zYhIDaCfp+JBWWNbMpjRTX09S20LNLg21xd6YpCYvz2EOpmZQ6XLdQYDbS2hVr6qFMI2OpDQJEXmppk5MCBctPJ/yV3nv5rGX1pX3n2isvk2QEDZPyl5m//S+XZvv1lfL++xktq5MVO/9zUoV8/Y3/ngEB97ufpc1M/40St5/nny6Nn/FaG/fIX8tiAfrJ24QL3KQ3bPrK9NGhbm94LsMNaAeiA220BAKBa5KnRBgAAkBLtVKqkK5oL/Hk+1qlXL7NYJ8RqmHLbJgTERtDvM7GgrJFNeayohr6+hZZFGnybqytdUUiM3x5C3azM4bKF5HSKuez98YztbbLlrbdkw9KlsnTyZJk3dow0PTtWFjz7rCwcP944QRY+a/6O88/1bwp1Wd3R1M9r6zlWFo4dK0ufmyjrFi+WzW+/U/i8SrASNAT0ApTD7bYAAFAt8tRoAwAASIl2KlXSFc0F/jwf69Srl1msE2I1TLltEwJiI+j3mVhQ1simPFZUQ1/fQssiDb7N1ZWuKCTGbw+hblbmcNlCdtAQjCAMIIrbbQEAoFrkqdEGAACQEu1UqqQrmgv8eT7WqVcvU9Vp8aOPyK677KLfVyc/v/vu8vqkidHX5cE3p0ySj+62mxx78EE9mjekz3n2859zyi87zaulY24eapd7e7++2zW/krHP1dV6qJUp9zdCQGwE/T4TC8oa2ZTHimro62uOOckwC4u2wUJdUUiM3x5C3azM4bIFAMgBbrcFAIBqkadGGwAAQEq0U6mSrmgu8Of5WKdevUxVJx8Cpg68Uri9IWC9rHUIGJMQEDH7+n0mFpQ1simPFdXQ11fbFakwC4u2wUJdUUiM3x5C3azM4bIFAMgBbrcFAIBqkadGGwAAQEq0U6mSrmgu8Of5WKdevUxVp+6GgD4sCkcHvjt9qhx14IHynp12kgm331YsqyPOdNp+e+zR6X19kKX6ef6937fzzvKDI48oBlL+/XX62tFPF9/jjBN/3CG0Cl8flusq4OpqXixs86PownqXq59/fezzheVK3Z4QcHvqFb6+q/VQK12bOqmEgJhn/fkgFpQ1sqnOg9XS19ccc5JhFhZtg4W6opAYvz2EulmZw2ULAJAD3G4LAADVIk+NNgAAgJRop1IlXdFc4M/zsU69epmqTl1dDrQ0VCp3eVAN5cLAyYeAYTDoLRd0VZru61LOWLlahICl9SsNUcutq3KfL7RSmR2plxp7fb1CwKztb4hZ1u8zsaCskc3bscLX1xxnk2EWFm2DhbqikBi/PYS6WZnDZQsAkAPcbgsAANUiT402AACAlGinUiVd0Vzgz/OxTr16mapO3RkJWCko0hAwDP1ShIDhCLjQeoeAaunr/bIq3WOx3Droaj4hIGLj6/eZWFDWyObtWOHra46zyTALi7bBQl1RSIzfHkLdrMzhsgUAyAFutwUAgGqRp0YbAABASrRTqZKuaC7w5/lYp169TFWn7oSAamnQ542FSLUMAcuFVqXluipbaV6sLt0N2/z7VlqfMf1rY2FhuRGGhICIja/fZ2JBWSObt2OFr685zibDLCzaBgt1RSExfnsIdbMyh8sWACAHuN0WAACqRZ4abQAAACnRTqVKuqK5wJ/nY5169TJVnbobAqo+iDKrrGgsPKplCKj64MrXQS9FuuyJx6LhW2nZWABWOm9HQkBftjSs6yrgK7W0Xmq51+1oCKh2tY5qYRb3N8Qs6/eZWFDWyObtWOHra46jyTALi7bBQl1RSIzfHkLdrMzhsgUAyAFutwUAgGqRp0YbAABASrRTqZKuaC7w5/lYp169zGKdsLLlQjm13GjK3ibbNmLP9PtMLChrZPN2rPD1LbQs0uDbXF3pikJi/PYQ6mZlDpctAEAOcLstAABUizw12gAAAFKinUqVdEVzgT/Pxzr16mUW64TdMzaST631CLu8yLaN2DP9PhMLyhrZvB0rfH3N8T4ZZmHRNlioKwqJ8dtDqJuVOVy2AAA5wO22AABQLfLUaAMAAEiJdipV0hXNBf48H+vUq5dZrBNiNWTbRuyZfp+JBWWNbN6OFb6+rmmRhLDdVU5XFBLjt4dQNytzuGwBAHKA220BAKBa5KnRBgAAkBLtVKqkK5oL/Hk+1qlXL7NYJ8RqyLaN2DP9PtNbja2TLOrr65oWSQjbXeV0RSEx4TZcj22jJ7hsAQBygNttAQCgWuSp0QYAAJAS7VSqpCuaC/x5PtapVy+zWCfEasi2jYiNqD+2uaZFEsJ2VzldUUiM3x5C3azM4bKFxLSXsTcSWw8qQGfcbgsAANUiT402AACAlGinUiVd0Vzgz/OxTr16mcU6IVZDtm1EbET9sc01LZIQtrvK6YpCYvz2EOpmZQ6XLVSJWJjVZmyNPI+p8yvQjSJZp7Am9L9WY0vwN1TXE0BH3G4LAADVIk+NNgAAgJRop1IlXdFc4M/zsU69epnFOiFWQ7ZtRGxE/bHNNS2SELa7yumKQmL89hDqZmUOly3UCB/8hWrY1xJRp2vwFZZtbPQTttn/Wop2XBcAHXG7LQAAVIs8NdoAAABSop1KlXRFc4E/z8c69eplFuuEWA3ZthGxEfXHNte0SELY7iqnKwqJ8dtDqJuVOVy2UCfCwK8ryxErm8qAyCSAWuB2WwAAqBZ5arQBAACkRDuVKumK5gJ/no916tXLLNYJsRqybSNiI+qPba5pkYSw3VVOVxQS47eHUDcrc7hsIQMUkrRy/+kFM9uKzwr/pcenfV0YmdQtdeBfOBASIILbbQEAoFrkqdEGAACQEu1UqqQrmgv8eT7WqVcvs1gnxGrIto2Ijag/trmmRRLCdlc5XVFIjN8eQt2szOGyhUxRmotp+OfvnBdmZdnA1zastb/HoRrWNHxcQvgWXRSD3o3bbQEAoFrkqdEGAACQEu1UqqQrmgv8eT7WqVcvs1gnxGrIto2Ijag/trmmRRLCdlc5XVFIjN8eQt2szOGyhSqgyVVpAKbqNE/P0q0wE4vp/y2wbeq2x6XzPeG87jzuCfoaH1XG1odfJ/79SwUoj9ttAQCgWuSp0QYAAJAS7VSqpCuaC/x5PtapVy/D9gdiIxrb7hER86o/trmmRRLCdlc5XVFITHi+q8e20RNctrCDaHilwVaLsdm4NVCfh8FXNfHL1ff3IZo+j1la1j/288M6+mn+effQktv0/7UV/+s4jnFbifBVAF3hdlsAAKgWeWq0AQAApEQ7lSrpiuYCf56PdeohIiIiVrIefQZhu6ucrigkxm8PoW5W5nDZQhXQcEuDNB8EevW5GgZ1JWGXf6p//dv44hb/msKErsOz0uleJXzcMZDrOC98HBAWK1OklPDjqH6paot5vVqcbh63d+M9offidlsAAKgWeWq0AQAApEQ7lSrpiuYCf56PdeohIiIiVrIefQZhu6ucrigkxm8PoW5W5nDZQtXwAV3nkM4bp73dvMKnYLao/m0VaW2R9pZm89iPKGyVttZmaTPT9DWKLV5DLfpA61eqraczQJ9ZzXSvD/rsy8IyRvMxRT9mmxYCKIPbbQEAoFrkqdEGAACQEu1UqqQrmgv8eT7WqYeIiIhYyXr0GYTtrnK6opAYvz2EulmZw2ULVSMMtrpLe3ubDfVam7dKm4Z+5rkUxsoZNQD0ownDkYWp0zJdni5/izO83KmvUzjWT4M/87nM57G26bzy6EfWzNO+RUmgCOBxuy0AAFSLPDXaAAAAUqKdSpV0RXOBP8/HOvUQERERK1mPPoOw3VVOVxQS47eHUDcrc7hsoW7oCLnW1lZpa2uzj+1z87i1rVVa21W9m15xDKC0WAuj6tJFZbokXaIuublEndZqNbV2+jsAbrsLoP0M5rO06Gdt9bU3FtO/Qql287nbdVigTgcowe22AABQLfLUaAMAAEiJdipV0hXNBf48H+vUQ0RERKxkPfoMwnZXOV1RSIzfHkLdrMzhsoVEuODL2hmNwra2tUlLA4+EazWfraW1rXDZT/s59VPraEId8bjVqY/tkEAjwDbcbgsAANUiT402AACAlGinUiVd0Vzgz/OxTj1ERETEStajzyBsd5XTFYXE+O0h1M3KHC5bqAIaWGmyVRiz11F/uczwkpmFgEtzsGbzdKv5q1PUDa+/KRNmNMkdD4yS6297WAbf+YQMHv6kDLn7abnxntFyg/k75K4n5Ya7npIhI56SwUZ9bJ+XsbSsTtPHfr5/HH2PEU+a+U/KIFNm0IinOzn4Lq2Puq0eN2j9ho+SwXc8JoNuf1huuftxeXriDFn/6hv2c+taaDYftrA22qWtvcW4xawAVdcTIwGhM263BQCAapGnRhsAAEBKtFOpkq5oLvDn+VinHiIiImIl69FnELa7yumKQmL89hDqZmUOly3sIBrd+QBQAyw3sq2ov39eGATqa9wrzT9aqjBFZNnqF2T4I2Pkrzc9JLc/MlUmzt8gkxe/Js/Oe9k6du4GGT1ngzwzb4M8bfR//eOY4bzulvPP/bTRgWO8WhenPvaOnbteJi16RcbNXSf3PDVXBt7yuAy9a6QsW/WC/Yz6WX3Up487XzzUr40q01645GphFGL9sXWBbuN2WwAAqBZ5arQBAACkRDuVKumK5gJ/no916iEiIiJWsh59BmG7q5yuKCTGbw+hblbmcNlClSjEWZXtjMZeniWr1sqIxyfKoBFjZNTU5fL8OyIvbhZZ+brIKvU189i4wjxWl6tv1FC3HF2+apdrplv9c6cvoz6/UWTpG23yzPyXZPB9E+Wme5+RpSvXuk9ZuiYqr6Me4YO+kpCtva1N2lpa7N9y+HszluKnlwvuwun62N/n0eNfa6drPZzl8OXD9+jtuN0WAACqRZ4abQAAACnRTqVKuqK5wJ/nY516iIiIiJWsR59B2O4qpysKifHbQ6iblTlctlBHNOBps/95fAh4/V3PyGOTlsry11pl1Vsii9c3y7L1LbLspbaC61tlqXm+JIG6nGXrt5q/zfb54g1txnZTp4JL17fZMoX6tBrbbYA4b0OLPDFnrVxzz7MyVENA89ni6HoI3TFs2NbaKq3GTkHbdoRqpYGcfX8X4vlpSrfK6DRTr1gQGb7e46eVTu+NuN0WAACqRZ4abQAAACnRTqVKuqK5wJ/nY516iFjed6dPlWeG3iCPX39ddH45Fz/6iOy6yy7y+d13l9cnTYyWyZvbuy664/asr3qt40b8bhG7Yz36DMJ2VzldUUiM3x5C3azM4bKFOqLBTvdCwCV1DQF12ZEQ0AWBS41an2V2vtomy98UaXq5EAJemzAEtIGZC966G56FZbrzGp0fCwC7CgZj00Ji5fS9NMhUS8v3RtxuCwAA1SJPjTYAAICUaKdSJV3RXODP87FOPcRGc0if83T/tL5v551l7eino+W644Tbb7WBz16f+lSn9znjxB/bZdzer2+H6Wpeg6KuPlNX62JHJQREzL716DMwC4u2wUJdUUiM3x5C3azM4bKFmqGxjcZ75eObQon8h4CF+mj9Cq+pTwioQZmOsrMj7TQ0c8GZD+fUUnzw5vWjB0un27LuPfzzUnzZTq/X50bzpDjf09bWebRiuIzwfXo7brcFAIBqkadGGwAAQEq0U6mSrmgu8Of5WKceYiM55uahum/KsQcf1OFxrOyO2ttCwFpKCIiYfevRZ2AWFm2DhbqikBi/PYS6WZnDZQs1Q2MbjXfKxzeFEoSAuh5Ct49yQVm1QzQ/Oi/FCD1f91ovJw+43RYAAKpFnhptAAAAKdFOpUq6ornAn+djnXqIjeKbUybJR3fbrcPoPx9qnXPKLzuV92HOtw44QI468EBb7jMf/7j960OwWOCjI+J+8e1vy3577GHLHvCF/exz9YGrBnZ4nY6aO/CLX7Dl3rPTTnaaPlZL6+Rfc9j++xdfo/UJX3PzRRcW61rp/VQNQn2ZE474pq1jWJ8Jt99my/XkM8XCr3D0pb7vVz+3T/F5d0LYcuvL10ctXW5X9Qk/t6r1CZ/H6tTdzxBbrl4q1X8vPz3u2GJZxEayHn0GZmHRNlioKwqJ8dtDqJuVOVy2UDM0tiEETB8C6l8N6FpaWqx+dN+rr74qI0eOlP/6r/+SPUw74jOf+Yzsvffe1n322Uf23Xdf6+c+9zn7XKdrmc9+9rNy5JFHyhVXXCELFiyQ5ubmYjD31ltvySOPPCI/+tGPZM8995TdTRtA1ffX1/m//v31vfX57m76XnvtZf30pz8tnzJtnaOPPlpuueUWWbFiha27hxBQD+sAAFBV8tRoAwAASIl2KlXSFc0F/jwf69RDbBRjo9h8MBgGXl4f5pS+JlYmFjR1ZyRgbLk+MCqd19Vruqpruc/oQ61YOFiuDtszutEvZ0dGXHb12dXYMra3Pn5++LqefIbS5fp1tiOfHzEP1qPPwCws2gYLdUUhMX57CHWzMofLFmqGxjaEgOlCwE2bNsnDDz9sQ76vfOUr8slPftKGa/vtt58cf/zx8uc//1kGDRok/fr1k/POO0/uu+8+aWpqknHjxslf//pXOemkk+TEE0+UPn36yKOPPiqzZs2SJ554Qs4991wz/cf27+TJk+Xdd991SxRZv369De1OOOEE+eMf/yhTpkyRdevWySuvvCIbNmyQl156yT5/4YUXbLC3atUqO01fZ+e9+KK89uqrsmjRIhk8eLBdxs033yyzZ8/usBzQwzoAAFSVPDXaAAAAUqKdSpV0RXOBP8/HOvUQG8GuQhx/WdDSsKhciBTaVZntCcy8sdd29ZrYKEdvLNALR6Z15Y6GgOXCxJ5aaX35+eHn3976lK7Lnn4Gv9xwlGYsaEVsNOvRZ2AWFm2DhbqikBi/PYS6WZnDZQs1oxDxVYq12k2ZbSUIAbteW13x5ptv2gDtrLP+IIMHD7FB2pIlS2zYd9ZZZ8nZZ58td48YIWNGj5YR5u+1115rQ7ef//zncuihh9qwUEfqfeMb35Af/OAH8oc//EH6mXbPpZdeKldddZU88MADsnjxYtm8ebNbYiEEHDZsmA0eL7roIhsojhkzRu6//3673Mcff9wGiRoU/uXPf7YB41133SUPPvig3HPPPXLvvffKY489JqNGjZIbb7zRhpHDhw+XuXPmEAKW4HZbAACoFnlqtAEAAKREO5Uq6YrmAn+ej3XqIeZdH8qYTb2i3RlJFtpVmbyEgLH6lXN7Q8CeLqfUSusrFuRub33860pDwO5+htLl+gA69t0gNpL16DMwC4u2wUJdUUiM3x5C3azM4bKFmqFxFiMBU4aAb8gdd9wh559/vg3gNKDTy3WOHTvWjv677rrrZPGiRbJ27Vp7WdChQ4faaZdffrn85je/kW9961tyxBFHyM9+9jMb1unlP3XkoAaGOgJQ3y+8D2BrS4sd5XfnnXfKL3/5SxsaapCn76ePdWThv/3bv8lHPvIR+Zu/+RvdD6y7mXbbt446Sk477TT57W9/K3/5y1+kf//+NkTs27evDDOfYfasWfL222/b5ShcDlQP6wAAUFXy1GgDAABIiTkhdupkKtUVzQX+PB/r1EPMs90NcHyIFparFDxVKtPV6MNK713rEFD176fL0XsJhq9Rl498XK78n7M7TNuez+QDuthyRg0ZJKf9qPKxJ6yrfo57/np5cZ6+h5/XnfXV1ed+9Lpr7LzSddWTzxBbbrh9MSoQG9V69BmYhUXbYKGuKCTGbw+hblbmcNlCzdDYhhAwXQiogZ8GchdccIENAfVymzo6UEfm6Wg+Hfk3YcIE+/eggw6SQw45RH7xi1/Ir3/9a/ne974nX/va1+RLX/qSvf+fjuzTYFDv9XfMMcfIqaeeakfshffpa2lulg3r19uQ8OSTT7Zhnh/hd8MNN9hRfRdeeKENBDXw0/f73e9+Z8tdOmCAXHnllXL1VVfZ1+t9BTVA1OBRn+tlSjdu3OiWZNYKISDHdACAapOnRhsAAEBKtFOpkq5oLvDn+VinHmKe7cm93HzQ44O0ciFSaKUyPlTS99VgqbsBY4oQ0Dv3gfvksP33t8vzfvVz+8jFvz29qp9JX7ffHnsUl6GXyyy3jFL9e+v3qJ/n7P/8efF9tA79f3dm2deUq4+Gd6Wf+4Av7Cez7r2nU1lvdz5DV8v122O5OiHm2Xr0GZiFRdtgoa4oJMZvD6FuVuZw2ULN0NiGEDBdCKgj54bdOUx+/oufy3e/+107Ek9H9enjH//4x/aSnlOnTpUhQ4bYoE+Dv3POOccGdaeccoocfvjhNhzUS4H+6U9/kksuuUTOPPNM+clPfiJnnHGGvaxnc3OzW5r55tra7OhADR41TPzv//5veznSq6++2t4fUEcT6iVEX3zxRfeKAs8//7zceuutdhSgvr+GgTqC8frrr7fBob6f3o/wnXfeca8Axe22AABQLfLUaAMAAEiJdipV0hXNBf48H+vUQ0RERKxkPfoMwnZXOV1RSIzfHkLdrMzhsoWaUYj4uoq1CiUIAX34590+NDQbftdwO+JO1cuCapCn4Zw+13Bu0qRJMnjwYDn++ONtQKgjBC+77DIbyOmIv6OPPlp+9atfyYABA+x0DQP1Up/6HjoSMLwfoIaAr732mg3+dBThJz/5SfnmN78pJ554oh1JqPca1EDxuOOOs6GjetRRR9llayipwaH32GOPlT333FMOPvhgGThwoMybN0+2bNnilgSK220BAKBa5KnRBgAAkBLtVKqkK5oL/Hm+tEMPERERsTvWo88gbHeV0xWFxPjtIdTNyhwuW6gZhYivq1irUIIQ0Id/3u1DL/156y23yDl/+Yvcf//98vobb8jWrVtl/PjxNtTTEFAvB6ohoAZvOvpO5ytTpkyx9w28+OKL7Yi/TZs22ekrVqywl+nU0YJ6yc7SYE6DQL0MqZabPXu2HWmoQaPeQ1DfU9XHqs5T/TQt99xzz9m/qs5btGiRvPLKK7LZLF/vOdgW3IOwt+N2WwAAqBZ5arQBAACkRDuVKumK5gJ/no916iEiIiJWsh59BmG7q5yuKCTGbw+hblbmcNlCXdF4Z1sEKLJ01Ysy4rHn5Prho+Wx57aFgIvXt8qS9e3OtkLYtqHZuLXw2D+3QZ3TztfHpWX9Y50XPi59D/e+xsUb1FYX/Gl9nBtUVx9bR/3bJiveEGkyrxk524WA99Q+BNRReRrsaWCnl+HUMO3dd9+VcePG2RBQL7c5ffp0e7/A73//+7LvvvvKPvvsI3vttZcdxbfbbrvJhz70IfnYxz4mu+++u+y99952/r//+7/Ln//8Z5kydYpbUkc01NN7/ely9fGcOXPk9ttvt89vueUWmThxoowaNcpeHlRHFGrdXnjhheL9BTX400uA6n0E9f6FWm+Cv8643RYAAKpFnhptAAAAKdFOpUq6ornAn+djnXqIiIiIlaxHn0HY7iqnKwqJ8dtDqJuVOVy2UCW6E2J1nq8BYCEKKrBs1Ytyz2PPyeDhY+TxiUtl2attsvJNkYUbjC97dSResyx+eWvBDc7wsX/up3VVttPjLc6tsujlFru8BWa5840LNPQLQsBF5rn15XZjm3msIwRFVtg6t8iTs16QQXePk5vufcp8to4hYHfWWE/QewIOHz7c3r/vD3/4g72s5rXXXmvv+6eX+NRQbuTIkfLMM8/IPffcIyNGjJCHH35Y7r77bjvvhz/8oXz729+29+nT0YIaFj744IO2rAZ3Tz/9tCxYsKDDvfoWLlxo7zGolx59/PHH5Y033pBVq1bJTTfdZAM/vcefXtpT0UuJaiB5zTVXy7Bhd9j30uByw4YN9n00OOzbt6+9vKjeE9CPRoQCbrcFAIBqkadGGwAAQEq0U6mSrmgu8Of5WKceIiIiYiXr0WcQtrvK6YpCYvz2EOpmZQ6XLVSJSpFW5/n6SAPAZvuswPJVa+W+xybIDcOekZETlsiKV1pl1RsiC9e3y8INBTVo01F3S90lQWulHdWnYeOGFrPMgvpYL/+5fF2bLDMWRgluCxG1/NINps6viyx+qUVGz1grQ+4aJ7fc/ZQsX1luJGB10BBQw7fvfve7cvjhh9tAT+/Jp/fh03v1/frXv7aB3ZVXXimnnnqqvSTo6aefLqeccoq9J9+XvvQl+cIXvmBfe9JJJ8mvTBmd91+m3G9Nucsvv1xGjx4tr736ql2WXv6zf//+csEFF9jLe+qlQnV037Jly2TQoEFy9tln20uJ6qVCY7z++us2tNQA8rbbbpMlS5bYS5dedNFF9l6FOipQA8LW1lb3it6N220BAKBa5KnRBgAAkBLtVKqkK5oL/Hk+1qmHiIiIWMl69BmE7a5yuqKQGL89hLpZmcNlC1WiXPjniYeAGu+EIwE1BLz/sfFy47Cn5ckJS2TVK63y/Bt6T8BW0UuCqvYefC+Zsutq7Evt7l5/W2TZhk3Gd2X5+o2yct1mWbVui3XF+s1m+kZZYly63pQxZZevb5Y1r5s6uxDwhhHj5NYEIaCGcDrqbvyzz8riRYtsULdx40ZZs2aNTJo8WWbMnGnvE6j38dOwrrm52QZsWkbDPQ3z9LKfOvJv3bp1dr6Wa3F/tay+VtX7Dy5dutSGf01NTfY9PBru6SjCn//853LIIYfYgFEDRw0eTz75ZOMv7V8NKw899FA599xz7UhAvQSo1lnfz98f8NVXXyUEdLjdFgAAqkWeGm0AAAAp0U6lSrqiuSB2zkdERETsqa5pkYSw3VVOVxQSU+9toye4bKFKVCcEXLFqrTzw2HgZOuxpeWrCEln9Squ88IYUR+d5NZzTkC4a3lXJZS+1uRBwqyzdoEHgZlm+fousXNciq9a1yYp1GkjqSMFtlw+1lyndYOr2psj8DS0yavYLct09nS8Hqp+7YKu0OdudldfljtHWZpbaapbl7runod5LL71k7+U3c+ZMWblypQ31Su/Lp899CFjunn1+uoZ3EyZOlFtvu82OINQRg5dddpl9rOo9Cq+++mq5//77bZio7wld43ZbAACoFnlqtAEAAKREO5Uq6YoCAAAAQA0obXvFdEUhMXnqT3LZQpXQ8Mcbo/N8fdQpBFy5Vh54dLwMveNpeWr8thBwmQ3+toWA9lKdL6mt7m8ltVxYttzjQL+cohoItsuKdSIrNSh8SWTpS3p50jZ330Cvmf6WyLyXW+SJ2WvlmnuflRvvfVqWuhBQP3ez+bdF2szfFvNfs1kPOqUwtXCnxG3rqTv4NWtDOjdiT1wgp8Gcta3wt63dB3nlwzzFv86+py3f8f1K8WVj8ypR+p7+uX+/cF5vxe22AABQLfLUaAMAAEiJdipV0hUFAAAAgBpQ2vaK6YpCYvLUn+SyhSqhIU1ojI7z9FGnewKuXCv3PzpRbhw2WkZNWCorX2mVNfZyoHofwHY7yk7vy1dQR92lsXCvv2ZZ/lKrrHyxXTTPW/mijhYUWbxeZNEGkYWBy94UaTJ1HDnrRbn27oky9J6xslSTQ0dhTWz7b9u68fYMDcnCy3W261/zvLWlxf6NhWg+XCs1RJ/bUFHfw7ynnxaWs2VcWOefW4NpIWE5X2d9bC89aoy9BvSwDgAAVSVPjTYAAICUaKdSJV1RAAAAAKgBpW2vmK4oJCZP/UkuW9hBNLDRcMhf4LJ7l3XUV2lpDQC36gTH8lUvyn2PTZIb7hwjT0xcKstebpNVbxSCNh+26ci7jiFgGAr6x6Xzuypb7rF/vlWWGDUE1NGIK9a1i6mmDQGXvmTqs15HA6q+fuZzmDrPN2WfnPmiXH/3RLn53nGybNW2ELCIrgi7Cs0//vEOoAFaGMh59Hmppei0MJSLUTpdy2vQWK58d9DX7sjrewtutwUAgGqRp0YbAABASrRTqZKuKAAAAADUgNK2V0xXFBKTp/4kly3sIBre+BBQx/WVu5ylPvcW/tWSGgD6EFCnLV29Tu59YooMHj5OHn12mSze0CYr3hBZ+LLIgg2FvzrSbrGOCnyp1dnmDB/7535aV2VLy/np7vn6FrNMtVUWrW+VJevaZdk6U1fjovV6+c8Wma+a+Qv0+QYz39S5ybxu1My1MuieZ+Xm+56RZatfLHzQDrRLe1uztLdsMavQrzuAzrjdFgAAqkWeGm0AAAAp0U6lSrqiAAAAAFADStteMV1RSEye+pNctrCDaHTX8xAwHAW42ehfsWTFWrnrkYlyw13jZMzMVbLBFHjFFF75pthgbeU7Iqs3GvVvjV3l1GWueLfwd9XbImveEnnB+LxxjZvn1TIrzd8XzWrQv+MXvSI3PDBJbrp3tCzVoYOOjqPfzGOzBtrbWqS9VUfVEQRCZ9xuCwAA1SJPjTYAAICUaKdSJV1RAAAAAKgBpW2vmK4oJCZP/UkuW9hBNMjyIaDGet0LAfXfVvPv1vZW2WLLF1i55iUZ8dA4ueivw+XCgXfJ9Xc+IYPvHiXX3jlSrhk+yvmUXHXnM8YxNfVK40DjFfbvOLly2Di56o5xcu3tz8r1xuuM19wxVq4aNtqU1/o8LVc7r7lrjPz1ttFy4fWPSZ+r7pOb7xkjq57f4D5lAc0A28xq85mfvYeeESCG220BAKBaxBptiIiI+MNOHUwxY69DRERExOoYa3+VGnsd1kfX1ZQ5XLawg2ic50NAbyHo64hO83p0/FubtLS3F1+5cUuzvPTqm7J01YvStGy1NC03rlDXyPzla2TBiuet81e8sM3lNTJcxoq1BZevlUXLX5QlxsXGheb5gg5lff2el7nLnpfZS3XaOnlh/ZuyyXw2m/i1bjWrrMWuCjsY0K2+dp2kf8NVBOBwuy0AAFSLWKMNERER6XRCRERErLex9lepsddhfXRdTZnDZQtVwId75dIrn3TpKEEfEnacZuNAM6ncOzQErc3m426S9taN5oNu0Qnm8+plQc1TVVeHroCGXgmwvbjdFgAAqkWs0YaIiIh0OiEiIiLW21j7q9TY67A+uq6mzOGyhURosqUBoA8CVb186BYzS3Wj5GwaZiabv9vum+dtM8/1nnn6HuF0TzitnJ7Sx12r+ZxqCWfZqfo59O6G+teHmoXRjfpMp9op9jNuMs8KIaB+jtb2Vmlpa5Nm8znDeBSgFLfbAgAAAAAA1Jawc6mcrigAAAAA1IDStldMVxSgLC5bSIiP0jTm0r+FiKy9fasLyFqNZp6dbf5pNc9VO0TOlddyeinN4vukMqDTZH3gIz/922anaA0Lz7SEL6OftTAK0NNqPmtza5u0mL9aFiCG220BAAAAAABqS9i5VE5XFAAAAABqQGnbK6YrClAWly0kJEzO/OPQSvSkbGq6U7es1h3ygNttAQAAAAAAakvYuVROVxQAAAAAakBp2yumKwpQFpctAEAOcLstAAAAAABAbQk7l8rpigIAAABADShte8V0RQHK4rIFAMgBbrcFAAAAAACoLWHnUjldUQAAAACoAaVtr5iuKEBZXLYAADnA7bYAAAAAAAC1JexcKqcrCgAAAAA1oLTtFdMVBSiLyxYAIAe43RYAAAAAAKC2hJ1L5XRFAQAAAKAGlLa9YrqiAGVx2QIA5AC32wIAAAAAANSWsHOpnK4oAAAAANSA0rZXTFcUoCwuWwCAHOB2WwAAAAAAgNoSdi6V0xUFAAAAgBpQ2vaK6YoClMVlCwCQA9xuCwAAAAAAUFvCzqVyuqIAAAAAUANK214xXVEAAAAAAAAAAIDuUdrBFNMVBQAAAIAaUNr2iumKAgAAAAAAAAAAdI/SDiZEREREzJ6u6QYAAAAAAAAAANA9SjuYEBERETF7uqYbAAAAAAAAAABA9yjtYEJERETE7OmabgAAAAAAAAAAAN2jtIMJEREREbOna7oBAAAAAAAAAAAAAAAAAAAAAAAAAAAAAAAAAAAAAAAAAAAAAAAAAAAAAAAAAAAAAAAAAAAAAAAAAAAAAAAAAAAAAAAAAAAAAAAAAAAAAAAAAAAAAAAAAAAAAAAAAAAAAAAAAAAAAAAAAAAAAAAAAAAAAAAAAAAAAAAAAAAAAAAAAAAAAAAAAAAAAAAAAAAAAAAAAAAAAAAAAAAAAAAAAAAAAAAAAAAAAAAAAAAAAAAAAAAAAAAAAAAAAAAAAAAAAAAAAAAAADQg/fv3/8GAAQPON441rjKKPjbTH+zXr99BrhgAAAAAAAAAAAAAAAAAZJlLL710t/79+7/kAj/vIuNdZvrI0nkaCLqXAgAAAAAAAAAAAAAAAEDWuPTSS/cNAz7z/Ag3qxP9+/cfFJRd5CYDAAAAAAAAAAAAAAAAQJYYMGDAXUGw189NLouGf758//79z3STAQAAAAAAAAAAAAAAACAr9O/ff7YP9Yynusll0eAvKD/WTQYAAAAAAAAAAAAAAACArDBgwIB+PtTr37//S3369PlbNytKv379fubLG1e5yQAAAAAAAAAAAAAAAACQJQYMGDAwCPZsuGe8xXi+2r9//5FuWljGlnNvAQAAAAAAAAAAAAAAAABZ5NJLLz2if//+Dw4YMGCsD/p0dKA+N38H9evX7+PhSEANB91LAQAAAAAAAAAAAAAAACCvDBgw4K4gBPyBmwwAAAAAAAAAAAAAAAAAeaR///5n+gDQONZNBgAAAAAAAAAAAAAAAIC8oZcBHdDxnoCT3SwAAAAAAAAAAAAAAAAAyBqXXnrpvkG416V6f8BLLrlkd/dSAAAAAAAAAAAAAAAAAMgyAwYMON54fv/+/Ueav2ON/fR5v379Drr00kt3c8UAAAAAAAAAAAAAAAAAAAAAAAAAAAAAAAAAAAAAAAAAAAAAAAAAAAAAAAAAAAAAAAAAAAAAAAAAAAAAAAAAAAAAAAAAAAAAAAAAAAAAAAAAAAAAAAAAAAAAAAAAAAAAAAAAAAAAAAAAAAAAAAAAAAAAAAAAAAAAAAAAAAAAAAAAAAAAAAAAAAAAAAAAAAAAAAAAAAAAAAAAAAAAAAAAAAAAAAAAAAAAAAAAAAAAAAAAAAAAAAAAAAAAAAAAAAAAAAAAAAAAAAAAAAAAAAAAAAAAAAAAAAAAAAAAAAAAAACgavx//9//DwGMcAq7KW3oAAAAAElFTkSuQmCC;" parent="1" vertex="1">
          <mxGeometry x="-30" y="-190" width="1793" height="969" as="geometry" />
        </mxCell>
      </root>
    </mxGraphModel>
  </diagram>
</mxfile>
